NotoSerifEthiopic-Bold.ufo
<glyph name="dblverticallineabovecomb" format="2">
  <unicode hex="030E"/>
  <anchor x="1" y="536" name="_top"/>
  <anchor x="1" y="760" name="top"/>
  <outline>
    <contour>
      <point x="-122" y="580" type="line"/>
      <point x="-31" y="580" type="line"/>
      <point x="-31" y="760" type="line"/>
      <point x="-122" y="760" type="line"/>
    </contour>
    <contour>
      <point x="32" y="580" type="line"/>
      <point x="123" y="580" type="line"/>
      <point x="123" y="760" type="line"/>
      <point x="32" y="760" type="line"/>
    </contour>
  </outline>
</glyph>
<glyph name="ha-ethiopic" format="2">
  <advance width="705"/>
  <unicode hex="1200"/>
  <note>
uni1200
</note>
  <anchor x="352" y="721" name="top"/>
  <outline>
    <contour>
      <point x="322" y="-12" type="curve" smooth="yes"/>
      <point x="538" y="-12"/>
      <point x="645" y="126"/>
      <point x="645" y="305" type="curve" smooth="yes"/>
      <point x="645" y="623" type="line" smooth="yes"/>
      <point x="645" y="665"/>
      <point x="641" y="701"/>
      <point x="629" y="721" type="curve"/>
      <point x="386" y="706" type="line"/>
      <point x="386" y="645" type="line"/>
      <point x="427" y="645"/>
      <point x="445" y="631"/>
      <point x="445" y="572" type="curve" smooth="yes"/>
      <point x="445" y="303" type="line" smooth="yes"/>
      <point x="445" y="123"/>
      <point x="404" y="59"/>
      <point x="343" y="59" type="curve" smooth="yes"/>
      <point x="302" y="59"/>
      <point x="282" y="92"/>
      <point x="282" y="171" type="curve" smooth="yes"/>
      <point x="282" y="275"/>
      <point x="287" y="471"/>
      <point x="287" y="623" type="curve" smooth="yes"/>
      <point x="287" y="671"/>
      <point x="282" y="701"/>
      <point x="270" y="721" type="curve"/>
      <point x="27" y="706" type="line"/>
      <point x="27" y="645" type="line"/>
      <point x="68" y="645"/>
      <point x="86" y="631"/>
      <point x="86" y="572" type="curve" smooth="yes"/>
      <point x="86" y="436"/>
      <point x="81" y="296"/>
      <point x="81" y="225" type="curve" smooth="yes"/>
      <point x="81" y="75"/>
      <point x="134" y="-12"/>
    </contour>
  </outline>
</glyph>
<glyph name="hi-ethiopic" format="2">
  <advance width="690"/>
  <unicode hex="1202"/>
  <note>
uni1202
</note>
  <anchor x="347" y="721" name="top"/>
  <outline>
    <contour>
      <point x="207" y="0" type="curve"/>
      <point x="457" y="0" type="line"/>
      <point x="457" y="67" type="line"/>
      <point x="435" y="67"/>
      <point x="424" y="74"/>
      <point x="424" y="91" type="curve" smooth="yes"/>
      <point x="424" y="101"/>
      <point x="427" y="113"/>
      <point x="434" y="129" type="curve" smooth="yes"/>
      <point x="580" y="491" type="line" smooth="yes"/>
      <point x="609" y="564"/>
      <point x="619" y="625"/>
      <point x="619" y="667" type="curve" smooth="yes"/>
      <point x="619" y="693"/>
      <point x="615" y="712"/>
      <point x="610" y="721" type="curve"/>
      <point x="369" y="706" type="line"/>
      <point x="369" y="645" type="line"/>
      <point x="394" y="645"/>
      <point x="405" y="631"/>
      <point x="405" y="605" type="curve" smooth="yes"/>
      <point x="405" y="582"/>
      <point x="396" y="549"/>
      <point x="380" y="508" type="curve" smooth="yes"/>
      <point x="345" y="420" type="line"/>
      <point x="336" y="417"/>
      <point x="329" y="416"/>
      <point x="319" y="416" type="curve" smooth="yes"/>
      <point x="290" y="416"/>
      <point x="269" y="436"/>
      <point x="269" y="485" type="curve" smooth="yes"/>
      <point x="269" y="521"/>
      <point x="274" y="594"/>
      <point x="274" y="638" type="curve" smooth="yes"/>
      <point x="274" y="673"/>
      <point x="267" y="703"/>
      <point x="257" y="721" type="curve"/>
      <point x="15" y="706" type="line"/>
      <point x="15" y="645" type="line"/>
      <point x="56" y="645"/>
      <point x="74" y="631"/>
      <point x="74" y="588" type="curve" smooth="yes"/>
      <point x="74" y="553"/>
      <point x="69" y="508"/>
      <point x="69" y="473" type="curve" smooth="yes"/>
      <point x="69" y="380"/>
      <point x="127" y="331"/>
      <point x="232" y="331" type="curve" smooth="yes"/>
      <point x="265" y="331"/>
      <point x="296" y="335"/>
      <point x="314" y="339" type="curve"/>
      <point x="214" y="97" type="line" smooth="yes"/>
      <point x="204" y="72"/>
      <point x="199" y="49"/>
      <point x="199" y="32" type="curve" smooth="yes"/>
      <point x="199" y="18"/>
      <point x="202" y="7"/>
    </contour>
    <component base="rightdoubleflag" xOffset="397"/>
  </outline>
</glyph>
<glyph name="haa-ethiopic" format="2">
  <advance width="657"/>
  <unicode hex="1203"/>
  <note>
uni1203
</note>
  <anchor x="317" y="721" name="top"/>
  <outline>
    <contour>
      <point x="207" y="-7" type="curve"/>
      <point x="457" y="8" type="line"/>
      <point x="457" y="66" type="line"/>
      <point x="435" y="66"/>
      <point x="424" y="74"/>
      <point x="424" y="91" type="curve" smooth="yes"/>
      <point x="424" y="100"/>
      <point x="427" y="113"/>
      <point x="434" y="129" type="curve" smooth="yes"/>
      <point x="580" y="491" type="line" smooth="yes"/>
      <point x="609" y="564"/>
      <point x="619" y="625"/>
      <point x="619" y="666" type="curve" smooth="yes"/>
      <point x="619" y="693"/>
      <point x="615" y="712"/>
      <point x="610" y="721" type="curve"/>
      <point x="369" y="706" type="line"/>
      <point x="369" y="645" type="line"/>
      <point x="394" y="645"/>
      <point x="405" y="631"/>
      <point x="405" y="606" type="curve" smooth="yes"/>
      <point x="405" y="582"/>
      <point x="396" y="549"/>
      <point x="380" y="508" type="curve" smooth="yes"/>
      <point x="345" y="420" type="line"/>
      <point x="336" y="417"/>
      <point x="329" y="416"/>
      <point x="319" y="416" type="curve" smooth="yes"/>
      <point x="290" y="416"/>
      <point x="269" y="436"/>
      <point x="269" y="485" type="curve" smooth="yes"/>
      <point x="269" y="521"/>
      <point x="274" y="594"/>
      <point x="274" y="638" type="curve" smooth="yes"/>
      <point x="274" y="673"/>
      <point x="267" y="703"/>
      <point x="257" y="721" type="curve"/>
      <point x="15" y="706" type="line"/>
      <point x="15" y="645" type="line"/>
      <point x="56" y="645"/>
      <point x="74" y="631"/>
      <point x="74" y="588" type="curve" smooth="yes"/>
      <point x="74" y="553"/>
      <point x="69" y="508"/>
      <point x="69" y="473" type="curve" smooth="yes"/>
      <point x="69" y="380"/>
      <point x="127" y="331"/>
      <point x="232" y="331" type="curve" smooth="yes"/>
      <point x="265" y="331"/>
      <point x="296" y="335"/>
      <point x="314" y="339" type="curve"/>
      <point x="214" y="97" type="line" smooth="yes"/>
      <point x="203" y="71"/>
      <point x="199" y="47"/>
      <point x="199" y="28" type="curve" smooth="yes"/>
      <point x="199" y="12"/>
      <point x="202" y="0"/>
    </contour>
  </outline>
</glyph>
<glyph name="hee-ethiopic" format="2">
  <advance width="745"/>
  <unicode hex="1204"/>
  <note>
uni1204
</note>
  <anchor x="370" y="721" name="top"/>
  <outline>
    <contour>
      <point x="265" y="0" type="curve"/>
      <point x="539" y="0" type="line" smooth="yes"/>
      <point x="666" y="0"/>
      <point x="725" y="68"/>
      <point x="725" y="155" type="curve" smooth="yes"/>
      <point x="725" y="241"/>
      <point x="672" y="279"/>
      <point x="558" y="279" type="curve" smooth="yes"/>
      <point x="492" y="279" type="line"/>
      <point x="583" y="483" type="line" smooth="yes"/>
      <point x="614" y="553"/>
      <point x="625" y="611"/>
      <point x="625" y="654" type="curve" smooth="yes"/>
      <point x="625" y="685"/>
      <point x="619" y="708"/>
      <point x="612" y="721" type="curve"/>
      <point x="375" y="706" type="line"/>
      <point x="375" y="645" type="line"/>
      <point x="400" y="645"/>
      <point x="412" y="631"/>
      <point x="412" y="604" type="curve" smooth="yes"/>
      <point x="412" y="581"/>
      <point x="403" y="549"/>
      <point x="386" y="508" type="curve" smooth="yes"/>
      <point x="349" y="420" type="line"/>
      <point x="340" y="417"/>
      <point x="329" y="416"/>
      <point x="319" y="416" type="curve" smooth="yes"/>
      <point x="290" y="416"/>
      <point x="269" y="436"/>
      <point x="269" y="485" type="curve" smooth="yes"/>
      <point x="269" y="521"/>
      <point x="274" y="594"/>
      <point x="274" y="638" type="curve" smooth="yes"/>
      <point x="274" y="673"/>
      <point x="267" y="703"/>
      <point x="257" y="721" type="curve"/>
      <point x="15" y="706" type="line"/>
      <point x="15" y="645" type="line"/>
      <point x="56" y="645"/>
      <point x="74" y="631"/>
      <point x="74" y="588" type="curve" smooth="yes"/>
      <point x="74" y="553"/>
      <point x="69" y="508"/>
      <point x="69" y="473" type="curve" smooth="yes"/>
      <point x="69" y="380"/>
      <point x="127" y="331"/>
      <point x="232" y="331" type="curve" smooth="yes"/>
      <point x="263" y="331"/>
      <point x="295" y="335"/>
      <point x="314" y="338" type="curve"/>
      <point x="235" y="163" type="line" smooth="yes"/>
      <point x="222" y="134"/>
      <point x="216" y="107"/>
      <point x="216" y="83" type="curve" smooth="yes"/>
      <point x="216" y="42"/>
      <point x="234" y="11"/>
    </contour>
    <contour>
      <point x="450" y="66" type="line" smooth="yes"/>
      <point x="428" y="66"/>
      <point x="417" y="74"/>
      <point x="417" y="91" type="curve" smooth="yes"/>
      <point x="417" y="101"/>
      <point x="420" y="114"/>
      <point x="427" y="129" type="curve" smooth="yes"/>
      <point x="464" y="212" type="line"/>
      <point x="483" y="212" type="line" smooth="yes"/>
      <point x="535" y="212"/>
      <point x="548" y="185"/>
      <point x="548" y="151" type="curve" smooth="yes"/>
      <point x="548" y="103"/>
      <point x="525" y="66"/>
      <point x="470" y="66" type="curve" smooth="yes"/>
    </contour>
  </outline>
</glyph>
<glyph name="he-ethiopic" format="2">
  <advance width="789"/>
  <unicode hex="1205"/>
  <note>
uni1205
</note>
  <anchor x="404" y="721" name="top"/>
  <outline>
    <contour>
      <point x="406" y="-12" type="curve" smooth="yes"/>
      <point x="622" y="-12"/>
      <point x="729" y="126"/>
      <point x="729" y="305" type="curve" smooth="yes"/>
      <point x="729" y="623" type="line" smooth="yes"/>
      <point x="729" y="665"/>
      <point x="725" y="701"/>
      <point x="713" y="721" type="curve"/>
      <point x="470" y="706" type="line"/>
      <point x="470" y="645" type="line"/>
      <point x="511" y="645"/>
      <point x="529" y="631"/>
      <point x="529" y="572" type="curve" smooth="yes"/>
      <point x="529" y="303" type="line" smooth="yes"/>
      <point x="529" y="123"/>
      <point x="488" y="59"/>
      <point x="427" y="59" type="curve" smooth="yes"/>
      <point x="386" y="59"/>
      <point x="366" y="92"/>
      <point x="366" y="171" type="curve" smooth="yes"/>
      <point x="366" y="215"/>
      <point x="370" y="385"/>
      <point x="370" y="457" type="curve" smooth="yes"/>
      <point x="370" y="521"/>
      <point x="336" y="556"/>
      <point x="286" y="556" type="curve" smooth="yes"/>
      <point x="270" y="556" type="line"/>
      <point x="270" y="650" type="line" smooth="yes"/>
      <point x="270" y="681"/>
      <point x="259" y="710"/>
      <point x="241" y="721" type="curve"/>
      <point x="24" y="706" type="line"/>
      <point x="24" y="649" type="line"/>
      <point x="53" y="649"/>
      <point x="70" y="629"/>
      <point x="70" y="590" type="curve" smooth="yes"/>
      <point x="70" y="472" type="line"/>
      <point x="111" y="472" type="line" smooth="yes"/>
      <point x="141" y="472"/>
      <point x="169" y="450"/>
      <point x="169" y="409" type="curve" smooth="yes"/>
      <point x="169" y="353"/>
      <point x="165" y="276"/>
      <point x="165" y="225" type="curve" smooth="yes"/>
      <point x="165" y="75"/>
      <point x="218" y="-12"/>
    </contour>
  </outline>
</glyph>
<glyph name="ho-ethiopic" format="2">
  <advance width="931"/>
  <unicode hex="1206"/>
  <note>
uni1206
</note>
  <anchor x="474" y="721" name="top"/>
  <outline>
    <contour>
      <point x="322" y="-12" type="curve" smooth="yes"/>
      <point x="538" y="-12"/>
      <point x="645" y="126"/>
      <point x="645" y="305" type="curve" smooth="yes"/>
      <point x="645" y="439" type="line"/>
      <point x="654" y="438"/>
      <point x="663" y="437"/>
      <point x="672" y="437" type="curve" smooth="yes"/>
      <point x="735" y="437" type="line" smooth="yes"/>
      <point x="862" y="437"/>
      <point x="921" y="505"/>
      <point x="921" y="592" type="curve" smooth="yes"/>
      <point x="921" y="678"/>
      <point x="868" y="716"/>
      <point x="754" y="716" type="curve" smooth="yes"/>
      <point x="445" y="716" type="line"/>
      <point x="445" y="303" type="line" smooth="yes"/>
      <point x="445" y="123"/>
      <point x="404" y="59"/>
      <point x="343" y="59" type="curve" smooth="yes"/>
      <point x="302" y="59"/>
      <point x="282" y="92"/>
      <point x="282" y="171" type="curve" smooth="yes"/>
      <point x="282" y="275"/>
      <point x="287" y="471"/>
      <point x="287" y="623" type="curve" smooth="yes"/>
      <point x="287" y="671"/>
      <point x="282" y="701"/>
      <point x="270" y="721" type="curve"/>
      <point x="27" y="706" type="line"/>
      <point x="27" y="645" type="line"/>
      <point x="68" y="645"/>
      <point x="86" y="631"/>
      <point x="86" y="572" type="curve" smooth="yes"/>
      <point x="86" y="436"/>
      <point x="81" y="296"/>
      <point x="81" y="225" type="curve" smooth="yes"/>
      <point x="81" y="75"/>
      <point x="134" y="-12"/>
    </contour>
    <contour>
      <point x="686" y="504" type="curve" smooth="yes"/>
      <point x="656" y="504"/>
      <point x="645" y="521"/>
      <point x="645" y="559" type="curve" smooth="yes"/>
      <point x="645" y="649" type="line"/>
      <point x="679" y="649" type="line" smooth="yes"/>
      <point x="731" y="649"/>
      <point x="744" y="622"/>
      <point x="744" y="584" type="curve" smooth="yes"/>
      <point x="744" y="540"/>
      <point x="721" y="504"/>
    </contour>
  </outline>
</glyph>
<glyph name="la-ethiopic" format="2">
  <advance width="747"/>
  <unicode hex="1208"/>
  <note>
uni1208
</note>
  <anchor x="389" y="714" name="top"/>
  <outline>
    <contour>
      <point x="94" y="-7" type="curve"/>
      <point x="315" y="8" type="line"/>
      <point x="315" y="65" type="line"/>
      <point x="257" y="65"/>
      <point x="232" y="104"/>
      <point x="232" y="176" type="curve" smooth="yes"/>
      <point x="232" y="287"/>
      <point x="283" y="374"/>
      <point x="337" y="425" type="curve"/>
      <point x="462" y="102" type="line" smooth="yes"/>
      <point x="491" y="26"/>
      <point x="509" y="8"/>
      <point x="538" y="-7" type="curve"/>
      <point x="732" y="8" type="line"/>
      <point x="732" y="65" type="line"/>
      <point x="696" y="65"/>
      <point x="670" y="87"/>
      <point x="643" y="156" type="curve" smooth="yes"/>
      <point x="423" y="714" type="line"/>
      <point x="217" y="714" type="line"/>
      <point x="278" y="555" type="line"/>
      <point x="133" y="459"/>
      <point x="47" y="321"/>
      <point x="47" y="156" type="curve" smooth="yes"/>
      <point x="47" y="74"/>
      <point x="69" y="24"/>
    </contour>
  </outline>
</glyph>
<glyph name="li-ethiopic" format="2">
  <advance width="973"/>
  <unicode hex="120A"/>
  <note>
uni120A
</note>
  <anchor x="505" y="714" name="top"/>
  <outline>
    <contour>
      <point x="94" y="-7" type="curve"/>
      <point x="315" y="8" type="line"/>
      <point x="315" y="65" type="line"/>
      <point x="257" y="65"/>
      <point x="232" y="104"/>
      <point x="232" y="176" type="curve" smooth="yes"/>
      <point x="232" y="287"/>
      <point x="282" y="374"/>
      <point x="336" y="425" type="curve"/>
      <point x="462" y="102" type="line" smooth="yes"/>
      <point x="488" y="36"/>
      <point x="506" y="14"/>
      <point x="528" y="0" type="curve"/>
      <point x="786" y="0" type="line"/>
      <point x="786" y="67" type="line"/>
      <point x="732" y="67" type="line" smooth="yes"/>
      <point x="696" y="67"/>
      <point x="670" y="87"/>
      <point x="643" y="156" type="curve" smooth="yes"/>
      <point x="423" y="714" type="line"/>
      <point x="217" y="714" type="line"/>
      <point x="280" y="555" type="line"/>
      <point x="135" y="459"/>
      <point x="47" y="321"/>
      <point x="47" y="156" type="curve" smooth="yes"/>
      <point x="47" y="74"/>
      <point x="69" y="24"/>
    </contour>
    <component base="rightdoubleflag" xOffset="680"/>
  </outline>
</glyph>
<glyph name="laa-ethiopic" format="2">
  <advance width="737"/>
  <unicode hex="120B"/>
  <note>
uni120B
</note>
  <anchor x="380" y="714" name="top"/>
  <outline>
    <contour>
      <point x="528" y="-7" type="curve"/>
      <point x="722" y="8" type="line"/>
      <point x="722" y="65" type="line"/>
      <point x="686" y="65"/>
      <point x="660" y="87"/>
      <point x="633" y="156" type="curve" smooth="yes"/>
      <point x="413" y="714" type="line"/>
      <point x="202" y="714" type="line"/>
      <point x="268" y="555" type="line"/>
      <point x="116" y="490"/>
      <point x="38" y="396"/>
      <point x="38" y="278" type="curve" smooth="yes"/>
      <point x="38" y="225"/>
      <point x="56" y="180"/>
      <point x="84" y="147" type="curve"/>
      <point x="291" y="162" type="line"/>
      <point x="291" y="219" type="line"/>
      <point x="245" y="219"/>
      <point x="222" y="244"/>
      <point x="222" y="287" type="curve" smooth="yes"/>
      <point x="222" y="350"/>
      <point x="264" y="400"/>
      <point x="322" y="428" type="curve"/>
      <point x="452" y="102" type="line" smooth="yes"/>
      <point x="482" y="26"/>
      <point x="499" y="8"/>
    </contour>
  </outline>
</glyph>
<glyph name="lee-ethiopic" format="2">
  <advance width="928"/>
  <unicode hex="120C"/>
  <note>
uni120C
</note>
  <anchor x="477" y="714" name="top"/>
  <outline>
    <contour>
      <point x="94" y="-7" type="curve"/>
      <point x="315" y="8" type="line"/>
      <point x="315" y="65" type="line"/>
      <point x="257" y="65"/>
      <point x="232" y="104"/>
      <point x="232" y="176" type="curve" smooth="yes"/>
      <point x="232" y="287"/>
      <point x="283" y="374"/>
      <point x="337" y="425" type="curve"/>
      <point x="462" y="102" type="line" smooth="yes"/>
      <point x="491" y="26"/>
      <point x="539" y="0"/>
      <point x="593" y="0" type="curve"/>
      <point x="711" y="0" type="line" smooth="yes"/>
      <point x="848" y="0"/>
      <point x="908" y="64"/>
      <point x="908" y="155" type="curve" smooth="yes"/>
      <point x="908" y="241"/>
      <point x="855" y="279"/>
      <point x="731" y="279" type="curve" smooth="yes"/>
      <point x="594" y="279" type="line"/>
      <point x="423" y="714" type="line"/>
      <point x="217" y="714" type="line"/>
      <point x="278" y="555" type="line"/>
      <point x="133" y="459"/>
      <point x="47" y="321"/>
      <point x="47" y="156" type="curve" smooth="yes"/>
      <point x="47" y="74"/>
      <point x="69" y="24"/>
    </contour>
    <contour>
      <point x="705" y="65" type="curve" smooth="yes"/>
      <point x="683" y="65"/>
      <point x="671" y="85"/>
      <point x="652" y="133" type="curve" smooth="yes"/>
      <point x="621" y="212" type="line"/>
      <point x="693" y="212" type="line" smooth="yes"/>
      <point x="728" y="212"/>
      <point x="750" y="194"/>
      <point x="750" y="147" type="curve" smooth="yes"/>
      <point x="750" y="94"/>
      <point x="733" y="65"/>
    </contour>
  </outline>
</glyph>
<glyph name="le-ethiopic" format="2">
  <advance width="817"/>
  <unicode hex="120D"/>
  <note>
uni120D
</note>
  <anchor x="424" y="714" name="top"/>
  <outline>
    <contour>
      <point x="608" y="-7" type="curve"/>
      <point x="802" y="8" type="line"/>
      <point x="802" y="65" type="line"/>
      <point x="766" y="65"/>
      <point x="740" y="87"/>
      <point x="713" y="156" type="curve" smooth="yes"/>
      <point x="493" y="714" type="line"/>
      <point x="287" y="714" type="line"/>
      <point x="348" y="555" type="line"/>
      <point x="166" y="471"/>
      <point x="47" y="332"/>
      <point x="47" y="153" type="curve" smooth="yes"/>
      <point x="47" y="60"/>
      <point x="86" y="11"/>
      <point x="128" y="0" type="curve"/>
      <point x="272" y="0" type="line" smooth="yes"/>
      <point x="409" y="0"/>
      <point x="469" y="64"/>
      <point x="469" y="155" type="curve" smooth="yes"/>
      <point x="469" y="241"/>
      <point x="416" y="279"/>
      <point x="292" y="279" type="curve" smooth="yes"/>
      <point x="248" y="279" type="line"/>
      <point x="278" y="345"/>
      <point x="340" y="398"/>
      <point x="404" y="428" type="curve"/>
      <point x="532" y="102" type="line" smooth="yes"/>
      <point x="562" y="26"/>
      <point x="579" y="8"/>
    </contour>
    <contour>
      <point x="263" y="67" type="curve"/>
      <point x="235" y="72"/>
      <point x="223" y="90"/>
      <point x="223" y="151" type="curve" smooth="yes"/>
      <point x="223" y="173"/>
      <point x="225" y="193"/>
      <point x="229" y="212" type="curve"/>
      <point x="254" y="212" type="line" smooth="yes"/>
      <point x="289" y="212"/>
      <point x="311" y="194"/>
      <point x="311" y="147" type="curve" smooth="yes"/>
      <point x="311" y="94"/>
      <point x="294" y="68"/>
    </contour>
  </outline>
</glyph>
<glyph name="lwa-ethiopic" format="2">
	<advance width="842"/>
	<unicode hex="120F"/>
	<anchor x="435" y="714" name="top"/>
	<note>
		uni120F
	</note>
	<outline>
		<contour>
			<point x="468" y="61" type="line"/>
			<point x="670" y="61" type="line"/>
			<point x="413" y="714" type="line"/>
			<point x="202" y="714" type="line"/>
			<point x="268" y="555" type="line"/>
			<point x="116" y="490"/>
			<point x="38" y="396"/>
			<point x="38" y="278" type="curve" smooth="yes"/>
			<point x="38" y="225"/>
			<point x="56" y="180"/>
			<point x="84" y="147" type="curve"/>
			<point x="291" y="162" type="line"/>
			<point x="291" y="219" type="line"/>
			<point x="245" y="219"/>
			<point x="222" y="244"/>
			<point x="222" y="287" type="curve" smooth="yes"/>
			<point x="222" y="350"/>
			<point x="264" y="400"/>
			<point x="322" y="428" type="curve"/>
		</contour>
		<component base="footright" xOffset="156"/>
	</outline>
</glyph>
<glyph name="hha-ethiopic" format="2">
  <advance width="946"/>
  <unicode hex="1210"/>
  <note>
uni1210
</note>
  <anchor x="483" y="721" name="top"/>
  <outline>
    <contour>
      <point x="79" y="-7" type="curve"/>
      <point x="310" y="8" type="line"/>
      <point x="310" y="66" type="line"/>
      <point x="274" y="67"/>
      <point x="251" y="92"/>
      <point x="251" y="179" type="curve" smooth="yes"/>
      <point x="251" y="321"/>
      <point x="307" y="401"/>
      <point x="465" y="401" type="curve" smooth="yes"/>
      <point x="615" y="401"/>
      <point x="661" y="343"/>
      <point x="661" y="234" type="curve" smooth="yes"/>
      <point x="661" y="197"/>
      <point x="659" y="125"/>
      <point x="659" y="81" type="curve" smooth="yes"/>
      <point x="659" y="40"/>
      <point x="665" y="14"/>
      <point x="681" y="-7" type="curve"/>
      <point x="916" y="8" type="line"/>
      <point x="916" y="66" type="line"/>
      <point x="877" y="68"/>
      <point x="860" y="84"/>
      <point x="860" y="129" type="curve" smooth="yes"/>
      <point x="860" y="156"/>
      <point x="862" y="214"/>
      <point x="862" y="241" type="curve" smooth="yes"/>
      <point x="862" y="370"/>
      <point x="781" y="473"/>
      <point x="473" y="473" type="curve" smooth="yes"/>
      <point x="180" y="473"/>
      <point x="50" y="336"/>
      <point x="50" y="150" type="curve" smooth="yes"/>
      <point x="50" y="61"/>
      <point x="67" y="14"/>
    </contour>
    <component base="stem1" xOffset="254"/>
  </outline>
</glyph>
<glyph name="hhi-ethiopic" format="2">
  <advance width="1147"/>
  <unicode hex="1212"/>
  <note>
uni1212
</note>
  <anchor x="593" y="721" name="top"/>
  <outline>
    <contour>
      <point x="79" y="-7" type="curve"/>
      <point x="310" y="8" type="line"/>
      <point x="310" y="66" type="line"/>
      <point x="274" y="67"/>
      <point x="251" y="92"/>
      <point x="251" y="179" type="curve" smooth="yes"/>
      <point x="251" y="321"/>
      <point x="307" y="401"/>
      <point x="465" y="401" type="curve" smooth="yes"/>
      <point x="615" y="401"/>
      <point x="661" y="343"/>
      <point x="661" y="234" type="curve" smooth="yes"/>
      <point x="661" y="197"/>
      <point x="659" y="125"/>
      <point x="659" y="81" type="curve" smooth="yes"/>
      <point x="659" y="44"/>
      <point x="666" y="20"/>
      <point x="679" y="0" type="curve"/>
      <point x="916" y="0" type="line"/>
      <point x="916" y="67" type="line"/>
      <point x="877" y="67"/>
      <point x="860" y="84"/>
      <point x="860" y="129" type="curve" smooth="yes"/>
      <point x="860" y="156"/>
      <point x="862" y="214"/>
      <point x="862" y="241" type="curve" smooth="yes"/>
      <point x="862" y="370"/>
      <point x="781" y="473"/>
      <point x="473" y="473" type="curve" smooth="yes"/>
      <point x="180" y="473"/>
      <point x="50" y="336"/>
      <point x="50" y="150" type="curve" smooth="yes"/>
      <point x="50" y="61"/>
      <point x="67" y="14"/>
    </contour>
    <component base="stem1" xOffset="259"/>
    <component base="rightdoubleflag" xOffset="854"/>
  </outline>
</glyph>
<glyph name="hhaa-ethiopic" format="2">
  <advance width="890"/>
  <unicode hex="1213"/>
  <note>
uni1213
</note>
  <anchor x="447" y="721" name="top"/>
  <outline>
    <contour>
      <point x="625" y="-7" type="curve"/>
      <point x="860" y="8" type="line"/>
      <point x="860" y="68" type="line"/>
      <point x="821" y="68"/>
      <point x="804" y="84"/>
      <point x="804" y="129" type="curve" smooth="yes"/>
      <point x="804" y="156"/>
      <point x="806" y="214"/>
      <point x="806" y="241" type="curve" smooth="yes"/>
      <point x="806" y="359"/>
      <point x="738" y="456"/>
      <point x="504" y="471" type="curve"/>
      <point x="504" y="650" type="line" smooth="yes"/>
      <point x="504" y="681"/>
      <point x="493" y="710"/>
      <point x="475" y="721" type="curve"/>
      <point x="278" y="706" type="line"/>
      <point x="278" y="649" type="line"/>
      <point x="307" y="649"/>
      <point x="324" y="629"/>
      <point x="324" y="590" type="curve" smooth="yes"/>
      <point x="324" y="466" type="line"/>
      <point x="127" y="438"/>
      <point x="35" y="337"/>
      <point x="35" y="221" type="curve" smooth="yes"/>
      <point x="35" y="188"/>
      <point x="42" y="161"/>
      <point x="49" y="140" type="curve"/>
      <point x="294" y="155" type="line"/>
      <point x="294" y="215" type="line"/>
      <point x="258" y="216"/>
      <point x="235" y="235"/>
      <point x="235" y="275" type="curve" smooth="yes"/>
      <point x="235" y="328"/>
      <point x="258" y="370"/>
      <point x="324" y="389" type="curve"/>
      <point x="324" y="221" type="line" smooth="yes"/>
      <point x="324" y="183"/>
      <point x="335" y="160"/>
      <point x="353" y="143" type="curve"/>
      <point x="553" y="158" type="line"/>
      <point x="553" y="215" type="line"/>
      <point x="522" y="215"/>
      <point x="504" y="228"/>
      <point x="504" y="282" type="curve" smooth="yes"/>
      <point x="504" y="392" type="line"/>
      <point x="579" y="372"/>
      <point x="605" y="318"/>
      <point x="605" y="234" type="curve" smooth="yes"/>
      <point x="605" y="197"/>
      <point x="603" y="125"/>
      <point x="603" y="81" type="curve" smooth="yes"/>
      <point x="603" y="40"/>
      <point x="609" y="14"/>
    </contour>
  </outline>
</glyph>
<glyph name="hhee-ethiopic" format="2">
  <advance width="1158"/>
  <unicode hex="1214"/>
  <note>
uni1214
</note>
  <anchor x="594" y="721" name="top"/>
  <outline>
    <contour>
      <point x="79" y="-7" type="curve"/>
      <point x="310" y="8" type="line"/>
      <point x="310" y="66" type="line"/>
      <point x="274" y="67"/>
      <point x="251" y="92"/>
      <point x="251" y="179" type="curve" smooth="yes"/>
      <point x="251" y="321"/>
      <point x="316" y="401"/>
      <point x="465" y="401" type="curve" smooth="yes"/>
      <point x="615" y="401"/>
      <point x="661" y="343"/>
      <point x="661" y="234" type="curve" smooth="yes"/>
      <point x="661" y="156" type="line" smooth="yes"/>
      <point x="661" y="54"/>
      <point x="724" y="6"/>
      <point x="815" y="0" type="curve"/>
      <point x="952" y="0" type="line" smooth="yes"/>
      <point x="1079" y="0"/>
      <point x="1138" y="68"/>
      <point x="1138" y="155" type="curve" smooth="yes"/>
      <point x="1138" y="241"/>
      <point x="1085" y="279"/>
      <point x="971" y="279" type="curve" smooth="yes"/>
      <point x="859" y="279" type="line"/>
      <point x="843" y="390"/>
      <point x="750" y="473"/>
      <point x="473" y="473" type="curve" smooth="yes"/>
      <point x="180" y="473"/>
      <point x="50" y="336"/>
      <point x="50" y="150" type="curve" smooth="yes"/>
      <point x="50" y="61"/>
      <point x="67" y="14"/>
    </contour>
    <contour>
      <point x="903" y="67" type="curve" smooth="yes"/>
      <point x="873" y="67"/>
      <point x="862" y="84"/>
      <point x="862" y="122" type="curve" smooth="yes"/>
      <point x="862" y="212" type="line"/>
      <point x="896" y="212" type="line" smooth="yes"/>
      <point x="948" y="212"/>
      <point x="961" y="185"/>
      <point x="961" y="147" type="curve" smooth="yes"/>
      <point x="961" y="103"/>
      <point x="938" y="67"/>
    </contour>
    <component base="stem1" xOffset="257"/>
  </outline>
</glyph>
<glyph name="hhe-ethiopic" format="2">
  <advance width="946"/>
  <unicode hex="1215"/>
  <note>
uni1215
</note>
  <anchor x="483" y="843" name="top"/>
  <outline>
    <contour>
      <point x="79" y="-7" type="curve"/>
      <point x="310" y="8" type="line"/>
      <point x="310" y="66" type="line"/>
      <point x="274" y="67"/>
      <point x="251" y="92"/>
      <point x="251" y="179" type="curve" smooth="yes"/>
      <point x="251" y="281"/>
      <point x="284" y="351"/>
      <point x="358" y="382" type="curve"/>
      <point x="358" y="71" type="line" smooth="yes"/>
      <point x="358" y="33"/>
      <point x="369" y="10"/>
      <point x="387" y="-7" type="curve"/>
      <point x="607" y="8" type="line"/>
      <point x="607" y="65" type="line"/>
      <point x="576" y="65"/>
      <point x="558" y="78"/>
      <point x="558" y="132" type="curve" smooth="yes"/>
      <point x="558" y="390" type="line"/>
      <point x="635" y="369"/>
      <point x="661" y="316"/>
      <point x="661" y="234" type="curve" smooth="yes"/>
      <point x="661" y="197"/>
      <point x="659" y="125"/>
      <point x="659" y="81" type="curve" smooth="yes"/>
      <point x="659" y="40"/>
      <point x="665" y="14"/>
      <point x="681" y="-7" type="curve"/>
      <point x="916" y="8" type="line"/>
      <point x="916" y="66" type="line"/>
      <point x="877" y="68"/>
      <point x="860" y="84"/>
      <point x="860" y="129" type="curve" smooth="yes"/>
      <point x="860" y="156"/>
      <point x="862" y="214"/>
      <point x="862" y="241" type="curve" smooth="yes"/>
      <point x="862" y="357"/>
      <point x="796" y="452"/>
      <point x="558" y="470" type="curve"/>
      <point x="558" y="643" type="line" smooth="yes"/>
      <point x="558" y="674"/>
      <point x="547" y="703"/>
      <point x="529" y="714" type="curve"/>
      <point x="260" y="714" type="line"/>
      <point x="261" y="720"/>
      <point x="262" y="726"/>
      <point x="262" y="740" type="curve" smooth="yes"/>
      <point x="262" y="806"/>
      <point x="220" y="843"/>
      <point x="153" y="843" type="curve" smooth="yes"/>
      <point x="131" y="843"/>
      <point x="113" y="839"/>
      <point x="101" y="834" type="curve"/>
      <point x="120" y="796"/>
      <point x="126" y="765"/>
      <point x="126" y="725" type="curve" smooth="yes"/>
      <point x="126" y="699"/>
      <point x="121" y="672"/>
      <point x="114" y="647" type="curve"/>
      <point x="312" y="647" type="line" smooth="yes"/>
      <point x="346" y="647"/>
      <point x="358" y="629"/>
      <point x="358" y="590" type="curve" smooth="yes"/>
      <point x="358" y="465" type="line"/>
      <point x="146" y="433"/>
      <point x="50" y="310"/>
      <point x="50" y="150" type="curve" smooth="yes"/>
      <point x="50" y="61"/>
      <point x="67" y="14"/>
    </contour>
  </outline>
</glyph>
<glyph name="hho-ethiopic" format="2">
  <advance width="886"/>
  <unicode hex="1216"/>
  <note>
uni1216
</note>
  <anchor x="463" y="721" name="top"/>
  <outline>
    <contour>
      <point x="79" y="-7" type="curve"/>
      <point x="310" y="8" type="line"/>
      <point x="310" y="66" type="line"/>
      <point x="274" y="67"/>
      <point x="251" y="92"/>
      <point x="251" y="179" type="curve" smooth="yes"/>
      <point x="251" y="321"/>
      <point x="316" y="401"/>
      <point x="455" y="401" type="curve" smooth="yes"/>
      <point x="583" y="401"/>
      <point x="621" y="350"/>
      <point x="621" y="281" type="curve" smooth="yes"/>
      <point x="621" y="265"/>
      <point x="621" y="239"/>
      <point x="621" y="215" type="curve" smooth="yes"/>
      <point x="621" y="197"/>
      <point x="625" y="164"/>
      <point x="641" y="143" type="curve"/>
      <point x="876" y="158" type="line"/>
      <point x="876" y="215" type="line"/>
      <point x="837" y="217"/>
      <point x="822" y="230"/>
      <point x="822" y="258" type="curve" smooth="yes"/>
      <point x="822" y="270"/>
      <point x="822" y="283"/>
      <point x="822" y="295" type="curve" smooth="yes"/>
      <point x="822" y="395"/>
      <point x="741" y="473"/>
      <point x="453" y="473" type="curve" smooth="yes"/>
      <point x="180" y="473"/>
      <point x="50" y="336"/>
      <point x="50" y="150" type="curve" smooth="yes"/>
      <point x="50" y="61"/>
      <point x="67" y="14"/>
    </contour>
    <contour>
      <point x="368" y="143" type="curve"/>
      <point x="568" y="158" type="line"/>
      <point x="568" y="215" type="line"/>
      <point x="537" y="215"/>
      <point x="519" y="228"/>
      <point x="519" y="282" type="curve" smooth="yes"/>
      <point x="519" y="650" type="line" smooth="yes"/>
      <point x="519" y="681"/>
      <point x="508" y="710"/>
      <point x="490" y="721" type="curve"/>
      <point x="293" y="706" type="line"/>
      <point x="293" y="649" type="line"/>
      <point x="322" y="649"/>
      <point x="339" y="629"/>
      <point x="339" y="590" type="curve" smooth="yes"/>
      <point x="339" y="221" type="line" smooth="yes"/>
      <point x="339" y="183"/>
      <point x="350" y="160"/>
    </contour>
  </outline>
</glyph>
<glyph name="ma-ethiopic" format="2">
  <advance width="1160"/>
  <unicode hex="1218"/>
  <note>
uni1218
</note>
  <anchor x="585" y="714" name="top"/>
  <outline>
    <contour>
      <point x="303" y="131" type="curve" smooth="yes"/>
      <point x="416" y="131"/>
      <point x="505" y="164"/>
      <point x="551" y="183" type="curve"/>
      <point x="551" y="647" type="line"/>
      <point x="639" y="647" type="line"/>
      <point x="639" y="203" type="line"/>
      <point x="850" y="203" type="line" smooth="yes"/>
      <point x="1038" y="203"/>
      <point x="1130" y="309"/>
      <point x="1130" y="470" type="curve" smooth="yes"/>
      <point x="1130" y="642"/>
      <point x="1027" y="714"/>
      <point x="865" y="714" type="curve" smooth="yes"/>
      <point x="358" y="714" type="line" smooth="yes"/>
      <point x="157" y="714"/>
      <point x="40" y="605"/>
      <point x="40" y="392" type="curve" smooth="yes"/>
      <point x="40" y="227"/>
      <point x="129" y="131"/>
    </contour>
    <contour>
      <point x="329" y="199" type="curve" smooth="yes"/>
      <point x="269" y="199"/>
      <point x="238" y="254"/>
      <point x="238" y="400" type="curve" smooth="yes"/>
      <point x="238" y="548"/>
      <point x="284" y="647"/>
      <point x="353" y="647" type="curve" smooth="yes"/>
      <point x="361" y="647" type="line"/>
      <point x="361" y="205" type="line"/>
      <point x="352" y="201"/>
      <point x="343" y="199"/>
    </contour>
    <contour>
      <point x="829" y="270" type="line"/>
      <point x="829" y="647" type="line"/>
      <point x="853" y="647" type="line" smooth="yes"/>
      <point x="908" y="647"/>
      <point x="932" y="577"/>
      <point x="932" y="470" type="curve" smooth="yes"/>
      <point x="932" y="332"/>
      <point x="903" y="270"/>
      <point x="852" y="270" type="curve" smooth="yes"/>
    </contour>
  </outline>
</glyph>
<glyph name="maa-ethiopic" format="2">
  <advance width="1093"/>
  <unicode hex="121B"/>
  <note>
uni121B
</note>
  <anchor x="540" y="714" name="top"/>
  <outline>
    <contour>
      <point x="674" y="-7" type="curve"/>
      <point x="916" y="8" type="line"/>
      <point x="916" y="66" type="line"/>
      <point x="894" y="66"/>
      <point x="883" y="74"/>
      <point x="883" y="91" type="curve" smooth="yes"/>
      <point x="883" y="101"/>
      <point x="886" y="114"/>
      <point x="893" y="129" type="curve" smooth="yes"/>
      <point x="1004" y="379" type="line" smooth="yes"/>
      <point x="1039" y="458"/>
      <point x="1055" y="508"/>
      <point x="1055" y="554" type="curve" smooth="yes"/>
      <point x="1055" y="648"/>
      <point x="996" y="714"/>
      <point x="847" y="714" type="curve" smooth="yes"/>
      <point x="339" y="714" type="line" smooth="yes"/>
      <point x="136" y="714"/>
      <point x="25" y="619"/>
      <point x="25" y="449" type="curve" smooth="yes"/>
      <point x="25" y="314"/>
      <point x="116" y="239"/>
      <point x="257" y="239" type="curve" smooth="yes"/>
      <point x="368" y="239"/>
      <point x="451" y="284"/>
      <point x="508" y="326" type="curve"/>
      <point x="508" y="647" type="line"/>
      <point x="604" y="647" type="line"/>
      <point x="597" y="612"/>
      <point x="591" y="568"/>
      <point x="591" y="519" type="curve" smooth="yes"/>
      <point x="591" y="389"/>
      <point x="642" y="334"/>
      <point x="769" y="334" type="curve" smooth="yes"/>
      <point x="787" y="334" type="line"/>
      <point x="681" y="97" type="line" smooth="yes"/>
      <point x="670" y="72"/>
      <point x="665" y="48"/>
      <point x="665" y="29" type="curve" smooth="yes"/>
      <point x="665" y="13"/>
      <point x="669" y="0"/>
    </contour>
    <contour>
      <point x="277" y="314" type="curve" smooth="yes"/>
      <point x="235" y="314"/>
      <point x="205" y="353"/>
      <point x="205" y="446" type="curve" smooth="yes"/>
      <point x="205" y="581"/>
      <point x="246" y="647"/>
      <point x="324" y="647" type="curve" smooth="yes"/>
      <point x="328" y="647" type="line"/>
      <point x="328" y="326" type="line"/>
      <point x="315" y="319"/>
      <point x="298" y="314"/>
    </contour>
    <contour>
      <point x="815" y="422" type="line" smooth="yes"/>
      <point x="774" y="422"/>
      <point x="765" y="455"/>
      <point x="765" y="530" type="curve" smooth="yes"/>
      <point x="765" y="575"/>
      <point x="770" y="610"/>
      <point x="776" y="647" type="curve"/>
      <point x="814" y="647" type="line" smooth="yes"/>
      <point x="843" y="647"/>
      <point x="868" y="624"/>
      <point x="868" y="576" type="curve" smooth="yes"/>
      <point x="868" y="529"/>
      <point x="851" y="481"/>
      <point x="834" y="444" type="curve" smooth="yes"/>
      <point x="824" y="422" type="line"/>
    </contour>
  </outline>
</glyph>
<glyph name="mee-ethiopic" format="2">
  <advance width="1211"/>
  <unicode hex="121C"/>
  <note>
uni121C
</note>
  <anchor x="608" y="714" name="top"/>
  <outline>
    <contour>
      <point x="740" y="0" type="curve"/>
      <point x="1005" y="0" type="line" smooth="yes"/>
      <point x="1132" y="0"/>
      <point x="1191" y="68"/>
      <point x="1191" y="155" type="curve" smooth="yes"/>
      <point x="1191" y="241"/>
      <point x="1138" y="279"/>
      <point x="1024" y="279" type="curve" smooth="yes"/>
      <point x="960" y="279" type="line"/>
      <point x="1004" y="379" type="line" smooth="yes"/>
      <point x="1039" y="458"/>
      <point x="1055" y="508"/>
      <point x="1055" y="554" type="curve" smooth="yes"/>
      <point x="1055" y="648"/>
      <point x="996" y="714"/>
      <point x="847" y="714" type="curve" smooth="yes"/>
      <point x="339" y="714" type="line" smooth="yes"/>
      <point x="136" y="714"/>
      <point x="25" y="619"/>
      <point x="25" y="449" type="curve" smooth="yes"/>
      <point x="25" y="314"/>
      <point x="116" y="239"/>
      <point x="257" y="239" type="curve" smooth="yes"/>
      <point x="368" y="239"/>
      <point x="451" y="284"/>
      <point x="508" y="326" type="curve"/>
      <point x="508" y="647" type="line"/>
      <point x="604" y="647" type="line"/>
      <point x="597" y="612"/>
      <point x="591" y="568"/>
      <point x="591" y="519" type="curve" smooth="yes"/>
      <point x="591" y="389"/>
      <point x="642" y="334"/>
      <point x="769" y="334" type="curve" smooth="yes"/>
      <point x="787" y="334" type="line"/>
      <point x="710" y="163" type="line" smooth="yes"/>
      <point x="697" y="134"/>
      <point x="691" y="107"/>
      <point x="691" y="83" type="curve" smooth="yes"/>
      <point x="691" y="42"/>
      <point x="709" y="11"/>
    </contour>
    <contour>
      <point x="277" y="314" type="curve" smooth="yes"/>
      <point x="235" y="314"/>
      <point x="205" y="353"/>
      <point x="205" y="446" type="curve" smooth="yes"/>
      <point x="205" y="581"/>
      <point x="246" y="647"/>
      <point x="324" y="647" type="curve" smooth="yes"/>
      <point x="328" y="647" type="line"/>
      <point x="328" y="326" type="line"/>
      <point x="315" y="319"/>
      <point x="298" y="314"/>
    </contour>
    <contour>
      <point x="916" y="66" type="line" smooth="yes"/>
      <point x="894" y="66"/>
      <point x="883" y="74"/>
      <point x="883" y="91" type="curve" smooth="yes"/>
      <point x="883" y="101"/>
      <point x="886" y="114"/>
      <point x="893" y="129" type="curve" smooth="yes"/>
      <point x="930" y="212" type="line"/>
      <point x="949" y="212" type="line" smooth="yes"/>
      <point x="1001" y="212"/>
      <point x="1014" y="185"/>
      <point x="1014" y="151" type="curve" smooth="yes"/>
      <point x="1014" y="103"/>
      <point x="991" y="66"/>
      <point x="936" y="66" type="curve" smooth="yes"/>
    </contour>
    <contour>
      <point x="815" y="422" type="line" smooth="yes"/>
      <point x="774" y="422"/>
      <point x="765" y="455"/>
      <point x="765" y="530" type="curve" smooth="yes"/>
      <point x="765" y="575"/>
      <point x="770" y="610"/>
      <point x="776" y="647" type="curve"/>
      <point x="814" y="647" type="line" smooth="yes"/>
      <point x="843" y="647"/>
      <point x="868" y="624"/>
      <point x="868" y="576" type="curve" smooth="yes"/>
      <point x="868" y="529"/>
      <point x="851" y="481"/>
      <point x="834" y="444" type="curve" smooth="yes"/>
      <point x="824" y="422" type="line"/>
    </contour>
  </outline>
</glyph>
<glyph name="mo-ethiopic" format="2">
  <advance width="1105"/>
  <unicode hex="121E"/>
  <note>
uni121E
</note>
  <anchor x="555" y="714" name="top"/>
  <outline>
    <contour>
      <point x="257" y="239" type="curve" smooth="yes"/>
      <point x="368" y="239"/>
      <point x="451" y="284"/>
      <point x="508" y="326" type="curve"/>
      <point x="508" y="647" type="line"/>
      <point x="607" y="647" type="line"/>
      <point x="607" y="336" type="line"/>
      <point x="805" y="336" type="line" smooth="yes"/>
      <point x="1004" y="336"/>
      <point x="1085" y="415"/>
      <point x="1085" y="534" type="curve" smooth="yes"/>
      <point x="1085" y="661"/>
      <point x="993" y="714"/>
      <point x="820" y="714" type="curve" smooth="yes"/>
      <point x="339" y="714" type="line" smooth="yes"/>
      <point x="136" y="714"/>
      <point x="25" y="619"/>
      <point x="25" y="449" type="curve" smooth="yes"/>
      <point x="25" y="314"/>
      <point x="116" y="239"/>
    </contour>
    <contour>
      <point x="357" y="-7" type="curve"/>
      <point x="557" y="8" type="line"/>
      <point x="557" y="65" type="line"/>
      <point x="526" y="65"/>
      <point x="508" y="78"/>
      <point x="508" y="132" type="curve" smooth="yes"/>
      <point x="508" y="380" type="line"/>
      <point x="328" y="288" type="line"/>
      <point x="328" y="71" type="line" smooth="yes"/>
      <point x="328" y="33"/>
      <point x="339" y="10"/>
    </contour>
    <contour>
      <point x="277" y="314" type="curve" smooth="yes"/>
      <point x="235" y="314"/>
      <point x="205" y="353"/>
      <point x="205" y="446" type="curve" smooth="yes"/>
      <point x="205" y="581"/>
      <point x="246" y="647"/>
      <point x="324" y="647" type="curve" smooth="yes"/>
      <point x="328" y="647" type="line"/>
      <point x="328" y="326" type="line"/>
      <point x="315" y="319"/>
      <point x="298" y="314"/>
    </contour>
    <contour>
      <point x="797" y="409" type="line"/>
      <point x="797" y="647" type="line"/>
      <point x="808" y="647" type="line" smooth="yes"/>
      <point x="865" y="647"/>
      <point x="887" y="603"/>
      <point x="887" y="535" type="curve" smooth="yes"/>
      <point x="887" y="448"/>
      <point x="861" y="409"/>
      <point x="807" y="409" type="curve" smooth="yes"/>
    </contour>
  </outline>
</glyph>
<glyph name="mwa-ethiopic" format="2">
  <advance width="1136"/>
  <unicode hex="121F"/>
  <note>
uni121F
</note>
  <anchor x="575" y="714" name="top"/>
  <outline>
    <contour>
      <point x="678" y="6" type="curve"/>
      <point x="916" y="8" type="line"/>
      <point x="916" y="67" type="line"/>
      <point x="893" y="67"/>
      <point x="883" y="75"/>
      <point x="883" y="93" type="curve" smooth="yes"/>
      <point x="883" y="103"/>
      <point x="886" y="114"/>
      <point x="893" y="129" type="curve" smooth="yes"/>
      <point x="1004" y="379" type="line" smooth="yes"/>
      <point x="1039" y="458"/>
      <point x="1055" y="508"/>
      <point x="1055" y="554" type="curve" smooth="yes"/>
      <point x="1055" y="648"/>
      <point x="996" y="714"/>
      <point x="847" y="714" type="curve" smooth="yes"/>
      <point x="339" y="714" type="line" smooth="yes"/>
      <point x="136" y="714"/>
      <point x="25" y="619"/>
      <point x="25" y="449" type="curve" smooth="yes"/>
      <point x="25" y="314"/>
      <point x="116" y="239"/>
      <point x="257" y="239" type="curve" smooth="yes"/>
      <point x="368" y="239"/>
      <point x="451" y="284"/>
      <point x="508" y="326" type="curve"/>
      <point x="508" y="647" type="line"/>
      <point x="604" y="647" type="line"/>
      <point x="597" y="612"/>
      <point x="591" y="568"/>
      <point x="591" y="519" type="curve" smooth="yes"/>
      <point x="591" y="389"/>
      <point x="642" y="334"/>
      <point x="769" y="334" type="curve" smooth="yes"/>
      <point x="787" y="334" type="line"/>
      <point x="684" y="104" type="line" smooth="yes"/>
      <point x="673" y="79"/>
      <point x="668" y="59"/>
      <point x="668" y="44" type="curve" smooth="yes"/>
      <point x="668" y="30"/>
      <point x="673" y="13"/>
    </contour>
    <contour>
      <point x="277" y="314" type="curve" smooth="yes"/>
      <point x="235" y="314"/>
      <point x="205" y="353"/>
      <point x="205" y="446" type="curve" smooth="yes"/>
      <point x="205" y="581"/>
      <point x="246" y="647"/>
      <point x="324" y="647" type="curve" smooth="yes"/>
      <point x="328" y="647" type="line"/>
      <point x="328" y="326" type="line"/>
      <point x="315" y="319"/>
      <point x="298" y="314"/>
    </contour>
    <contour>
      <point x="815" y="422" type="line" smooth="yes"/>
      <point x="774" y="422"/>
      <point x="765" y="455"/>
      <point x="765" y="530" type="curve" smooth="yes"/>
      <point x="765" y="575"/>
      <point x="770" y="610"/>
      <point x="776" y="647" type="curve"/>
      <point x="814" y="647" type="line" smooth="yes"/>
      <point x="843" y="647"/>
      <point x="868" y="624"/>
      <point x="868" y="576" type="curve" smooth="yes"/>
      <point x="868" y="529"/>
      <point x="851" y="481"/>
      <point x="834" y="444" type="curve" smooth="yes"/>
      <point x="824" y="422" type="line"/>
    </contour>
    <component base="footright" xOffset="450"/>
  </outline>
</glyph>
<glyph name="sza-ethiopic" format="2">
  <advance width="989"/>
  <unicode hex="1220"/>
  <note>
uni1220
</note>
  <anchor x="478" y="721" name="top"/>
  <outline>
    <contour>
      <point x="309" y="-12" type="curve" smooth="yes"/>
      <point x="459" y="-12"/>
      <point x="513" y="68"/>
      <point x="529" y="135" type="curve"/>
      <point x="552" y="114"/>
      <point x="597" y="93"/>
      <point x="668" y="93" type="curve" smooth="yes"/>
      <point x="834" y="93"/>
      <point x="929" y="221"/>
      <point x="929" y="380" type="curve" smooth="yes"/>
      <point x="929" y="623" type="line" smooth="yes"/>
      <point x="929" y="665"/>
      <point x="925" y="701"/>
      <point x="913" y="721" type="curve"/>
      <point x="670" y="706" type="line"/>
      <point x="670" y="645" type="line"/>
      <point x="711" y="645"/>
      <point x="729" y="631"/>
      <point x="729" y="572" type="curve" smooth="yes"/>
      <point x="729" y="348" type="line" smooth="yes"/>
      <point x="729" y="208"/>
      <point x="718" y="164"/>
      <point x="662" y="164" type="curve" smooth="yes"/>
      <point x="625" y="164"/>
      <point x="605" y="197"/>
      <point x="605" y="276" type="curve" smooth="yes"/>
      <point x="605" y="623" type="line" smooth="yes"/>
      <point x="605" y="665"/>
      <point x="601" y="701"/>
      <point x="589" y="721" type="curve"/>
      <point x="346" y="706" type="line"/>
      <point x="346" y="645" type="line"/>
      <point x="387" y="645"/>
      <point x="405" y="631"/>
      <point x="405" y="572" type="curve" smooth="yes"/>
      <point x="405" y="243" type="line" smooth="yes"/>
      <point x="405" y="123"/>
      <point x="394" y="59"/>
      <point x="339" y="59" type="curve" smooth="yes"/>
      <point x="308" y="59"/>
      <point x="282" y="92"/>
      <point x="282" y="171" type="curve" smooth="yes"/>
      <point x="282" y="275"/>
      <point x="287" y="471"/>
      <point x="287" y="623" type="curve" smooth="yes"/>
      <point x="287" y="671"/>
      <point x="282" y="701"/>
      <point x="270" y="721" type="curve"/>
      <point x="27" y="706" type="line"/>
      <point x="27" y="645" type="line"/>
      <point x="68" y="645"/>
      <point x="86" y="631"/>
      <point x="86" y="572" type="curve" smooth="yes"/>
      <point x="86" y="436"/>
      <point x="81" y="296"/>
      <point x="81" y="225" type="curve" smooth="yes"/>
      <point x="81" y="75"/>
      <point x="138" y="-12"/>
    </contour>
  </outline>
</glyph>
<glyph name="szi-ethiopic" format="2">
  <advance width="1000"/>
  <unicode hex="1222"/>
  <note>
uni1222
</note>
  <anchor x="508" y="721" name="top"/>
  <outline>
    <contour>
      <point x="536" y="0" type="curve"/>
      <point x="768" y="0" type="line"/>
      <point x="768" y="67" type="line"/>
      <point x="746" y="67"/>
      <point x="736" y="74"/>
      <point x="736" y="91" type="curve" smooth="yes"/>
      <point x="736" y="101"/>
      <point x="739" y="113"/>
      <point x="745" y="129" type="curve" smooth="yes"/>
      <point x="887" y="497" type="line" smooth="yes"/>
      <point x="902" y="535"/>
      <point x="905" y="576"/>
      <point x="905" y="616" type="curve" smooth="yes"/>
      <point x="905" y="623" type="line" smooth="yes"/>
      <point x="905" y="665"/>
      <point x="901" y="701"/>
      <point x="889" y="721" type="curve"/>
      <point x="646" y="706" type="line"/>
      <point x="646" y="645" type="line"/>
      <point x="687" y="645"/>
      <point x="705" y="631"/>
      <point x="705" y="572" type="curve" smooth="yes"/>
      <point x="705" y="552" type="line" smooth="yes"/>
      <point x="705" y="459"/>
      <point x="694" y="401"/>
      <point x="644" y="401" type="curve" smooth="yes"/>
      <point x="613" y="401"/>
      <point x="593" y="434"/>
      <point x="593" y="513" type="curve" smooth="yes"/>
      <point x="593" y="623" type="line" smooth="yes"/>
      <point x="593" y="665"/>
      <point x="589" y="701"/>
      <point x="577" y="721" type="curve"/>
      <point x="334" y="706" type="line"/>
      <point x="334" y="645" type="line"/>
      <point x="375" y="645"/>
      <point x="393" y="631"/>
      <point x="393" y="572" type="curve" smooth="yes"/>
      <point x="393" y="480" type="line" smooth="yes"/>
      <point x="393" y="360"/>
      <point x="382" y="296"/>
      <point x="333" y="296" type="curve" smooth="yes"/>
      <point x="302" y="296"/>
      <point x="282" y="329"/>
      <point x="282" y="408" type="curve" smooth="yes"/>
      <point x="282" y="442"/>
      <point x="287" y="581"/>
      <point x="287" y="623" type="curve" smooth="yes"/>
      <point x="287" y="671"/>
      <point x="282" y="701"/>
      <point x="270" y="721" type="curve"/>
      <point x="27" y="706" type="line"/>
      <point x="27" y="645" type="line"/>
      <point x="68" y="645"/>
      <point x="86" y="631"/>
      <point x="86" y="572" type="curve" smooth="yes"/>
      <point x="86" y="546"/>
      <point x="81" y="463"/>
      <point x="81" y="462" type="curve" smooth="yes"/>
      <point x="81" y="312"/>
      <point x="138" y="225"/>
      <point x="303" y="225" type="curve" smooth="yes"/>
      <point x="447" y="225"/>
      <point x="501" y="305"/>
      <point x="517" y="372" type="curve"/>
      <point x="537" y="354"/>
      <point x="576" y="330"/>
      <point x="630" y="330" type="curve" smooth="yes"/>
      <point x="635" y="330"/>
      <point x="638" y="330"/>
      <point x="646" y="332" type="curve"/>
      <point x="541" y="97" type="line" smooth="yes"/>
      <point x="530" y="73"/>
      <point x="528" y="52"/>
      <point x="528" y="34" type="curve" smooth="yes"/>
      <point x="528" y="19"/>
      <point x="531" y="7"/>
    </contour>
    <component base="rightdoubleflag" xOffset="707"/>
  </outline>
</glyph>
<glyph name="szaa-ethiopic" format="2">
  <advance width="943"/>
  <unicode hex="1223"/>
  <note>
uni1223
</note>
  <anchor x="466" y="721" name="top"/>
  <outline>
    <contour>
      <point x="534" y="-7" type="curve"/>
      <point x="768" y="8" type="line"/>
      <point x="768" y="66" type="line"/>
      <point x="746" y="66"/>
      <point x="736" y="74"/>
      <point x="736" y="91" type="curve" smooth="yes"/>
      <point x="736" y="100"/>
      <point x="739" y="113"/>
      <point x="745" y="129" type="curve" smooth="yes"/>
      <point x="887" y="497" type="line"/>
      <point x="636" y="334" type="line"/>
      <point x="541" y="97" type="line" smooth="yes"/>
      <point x="530" y="70"/>
      <point x="526" y="46"/>
      <point x="526" y="28" type="curve" smooth="yes"/>
      <point x="526" y="12"/>
      <point x="529" y="0"/>
    </contour>
    <component base="shorttoploops"/>
  </outline>
</glyph>
<glyph name="szee-ethiopic" format="2">
  <advance width="1043"/>
  <unicode hex="1224"/>
  <note>
uni1224
</note>
  <anchor x="525" y="721" name="top"/>
  <outline>
    <contour>
      <point x="572" y="0" type="curve"/>
      <point x="837" y="0" type="line" smooth="yes"/>
      <point x="964" y="0"/>
      <point x="1023" y="68"/>
      <point x="1023" y="155" type="curve" smooth="yes"/>
      <point x="1023" y="241"/>
      <point x="970" y="279"/>
      <point x="856" y="279" type="curve" smooth="yes"/>
      <point x="792" y="279" type="line"/>
      <point x="877" y="473" type="line"/>
      <point x="626" y="349" type="line"/>
      <point x="542" y="163" type="line" smooth="yes"/>
      <point x="529" y="134"/>
      <point x="523" y="107"/>
      <point x="523" y="83" type="curve" smooth="yes"/>
      <point x="523" y="42"/>
      <point x="541" y="11"/>
    </contour>
    <contour>
      <point x="748" y="66" type="line" smooth="yes"/>
      <point x="726" y="66"/>
      <point x="715" y="74"/>
      <point x="715" y="91" type="curve" smooth="yes"/>
      <point x="715" y="101"/>
      <point x="718" y="114"/>
      <point x="725" y="129" type="curve" smooth="yes"/>
      <point x="762" y="212" type="line"/>
      <point x="781" y="212" type="line" smooth="yes"/>
      <point x="833" y="212"/>
      <point x="846" y="185"/>
      <point x="846" y="151" type="curve" smooth="yes"/>
      <point x="846" y="103"/>
      <point x="823" y="66"/>
      <point x="768" y="66" type="curve" smooth="yes"/>
    </contour>
    <component base="shorttoploops"/>
  </outline>
</glyph>
<glyph name="sze-ethiopic" format="2">
  <advance width="1059"/>
  <unicode hex="1225"/>
  <note>
uni1225
</note>
  <anchor x="518" y="721" name="top"/>
  <outline>
    <contour>
      <point x="39" y="-7" type="curve"/>
      <point x="273" y="8" type="line"/>
      <point x="273" y="66" type="line"/>
      <point x="253" y="66"/>
      <point x="243" y="73"/>
      <point x="243" y="90" type="curve" smooth="yes"/>
      <point x="243" y="100"/>
      <point x="247" y="112"/>
      <point x="254" y="129" type="curve" smooth="yes"/>
      <point x="330" y="301" type="line"/>
      <point x="194" y="435" type="line"/>
      <point x="50" y="97" type="line" smooth="yes"/>
      <point x="38" y="69"/>
      <point x="32" y="43"/>
      <point x="32" y="24" type="curve" smooth="yes"/>
      <point x="32" y="10"/>
      <point x="34" y="-1"/>
    </contour>
    <component base="shorttoploops" xOffset="99"/>
  </outline>
</glyph>
<glyph name="szo-ethiopic" format="2">
  <advance width="960"/>
  <unicode hex="1226"/>
  <note>
uni1226
</note>
  <anchor x="466" y="721" name="top"/>
  <outline>
    <contour>
      <point x="278" y="-7" type="curve"/>
      <point x="512" y="8" type="line"/>
      <point x="512" y="66" type="line"/>
      <point x="490" y="66"/>
      <point x="480" y="74"/>
      <point x="480" y="91" type="curve" smooth="yes"/>
      <point x="480" y="100"/>
      <point x="483" y="113"/>
      <point x="489" y="129" type="curve" smooth="yes"/>
      <point x="602" y="420" type="line"/>
      <point x="501" y="420" type="line"/>
      <point x="362" y="289" type="line"/>
      <point x="285" y="97" type="line" smooth="yes"/>
      <point x="274" y="71"/>
      <point x="270" y="47"/>
      <point x="270" y="28" type="curve" smooth="yes"/>
      <point x="270" y="12"/>
      <point x="273" y="0"/>
    </contour>
    <component base="shorttoploops"/>
  </outline>
</glyph>
<glyph name="ra-ethiopic" format="2">
  <advance width="602"/>
  <unicode hex="1228"/>
  <note>
uni1228
</note>
  <anchor x="303" y="721" name="top"/>
  <outline>
    <contour>
      <point x="508" y="-88" type="curve" smooth="yes"/>
      <point x="532" y="-88"/>
      <point x="554" y="-84"/>
      <point x="567" y="-76" type="curve"/>
      <point x="546" y="-53"/>
      <point x="531" y="-12"/>
      <point x="531" y="34" type="curve" smooth="yes"/>
      <point x="531" y="80"/>
      <point x="546" y="120"/>
      <point x="567" y="143" type="curve"/>
      <point x="554" y="150"/>
      <point x="532" y="155"/>
      <point x="508" y="155" type="curve" smooth="yes"/>
      <point x="440" y="155"/>
      <point x="407" y="113"/>
      <point x="395" y="67" type="curve"/>
      <point x="334" y="67" type="line"/>
      <point x="334" y="0" type="line"/>
      <point x="395" y="0" type="line"/>
      <point x="407" y="-46"/>
      <point x="440" y="-88"/>
    </contour>
    <component base="nose"/>
  </outline>
</glyph>
<glyph name="ru-ethiopic" format="2">
  <advance width="665"/>
  <unicode hex="1229"/>
  <note>
uni1229
</note>
  <anchor x="332" y="721" name="top"/>
  <outline>
    <contour>
      <point x="217" y="189" type="curve" smooth="yes"/>
      <point x="409" y="189" type="line"/>
      <point x="409" y="256" type="line"/>
      <point x="257" y="256" type="line" smooth="yes"/>
      <point x="209" y="256"/>
      <point x="193" y="278"/>
      <point x="193" y="311" type="curve" smooth="yes"/>
      <point x="193" y="354"/>
      <point x="219" y="372"/>
      <point x="287" y="418" type="curve" smooth="yes"/>
      <point x="425" y="512"/>
      <point x="453" y="550"/>
      <point x="453" y="631" type="curve" smooth="yes"/>
      <point x="453" y="657"/>
      <point x="450" y="682"/>
      <point x="426" y="721" type="curve"/>
      <point x="202" y="706" type="line"/>
      <point x="202" y="645" type="line"/>
      <point x="227" y="645"/>
      <point x="240" y="631"/>
      <point x="240" y="602" type="curve" smooth="yes"/>
      <point x="240" y="576"/>
      <point x="229" y="559"/>
      <point x="155" y="506" type="curve" smooth="yes"/>
      <point x="71" y="445"/>
      <point x="10" y="415"/>
      <point x="10" y="325" type="curve" smooth="yes"/>
      <point x="10" y="239"/>
      <point x="66" y="189"/>
    </contour>
    <contour>
      <point x="257" y="-7" type="curve"/>
      <point x="475" y="8" type="line"/>
      <point x="475" y="69" type="line"/>
      <point x="434" y="69"/>
      <point x="416" y="83"/>
      <point x="416" y="142" type="curve" smooth="yes"/>
      <point x="416" y="229" type="line"/>
      <point x="241" y="229" type="line"/>
      <point x="241" y="91" type="line" smooth="yes"/>
      <point x="241" y="49"/>
      <point x="245" y="13"/>
    </contour>
    <component base="rightsingleflag" xOffset="371" yOffset="-163"/>
  </outline>
</glyph>
<glyph name="ri-ethiopic" format="2">
  <advance width="635"/>
  <unicode hex="122A"/>
  <note>
uni122A
</note>
  <anchor x="327" y="721" name="top"/>
  <outline>
    <contour>
      <point x="320" y="-10" type="curve" smooth="yes"/>
      <point x="492" y="-10"/>
      <point x="615" y="60"/>
      <point x="615" y="214" type="curve" smooth="yes"/>
      <point x="615" y="243"/>
      <point x="609" y="272"/>
      <point x="603" y="288" type="curve"/>
      <point x="376" y="273" type="line"/>
      <point x="376" y="212" type="line"/>
      <point x="401" y="212"/>
      <point x="417" y="201"/>
      <point x="417" y="167" type="curve"/>
      <point x="417" y="91"/>
      <point x="382" y="57"/>
      <point x="325" y="57" type="curve" smooth="yes"/>
      <point x="262" y="57"/>
      <point x="230" y="103"/>
      <point x="230" y="167" type="curve" smooth="yes"/>
      <point x="230" y="265"/>
      <point x="269" y="299"/>
      <point x="355" y="361" type="curve" smooth="yes"/>
      <point x="491" y="459"/>
      <point x="537" y="527"/>
      <point x="537" y="632" type="curve" smooth="yes"/>
      <point x="537" y="681"/>
      <point x="523" y="708"/>
      <point x="514" y="721" type="curve"/>
      <point x="291" y="706" type="line"/>
      <point x="291" y="645" type="line"/>
      <point x="316" y="645"/>
      <point x="329" y="630"/>
      <point x="329" y="600" type="curve" smooth="yes"/>
      <point x="329" y="547"/>
      <point x="287" y="518"/>
      <point x="214" y="464" type="curve" smooth="yes"/>
      <point x="138" y="408"/>
      <point x="40" y="339"/>
      <point x="40" y="208" type="curve" smooth="yes"/>
      <point x="40" y="47"/>
      <point x="149" y="-10"/>
    </contour>
  </outline>
</glyph>
<glyph name="raa-ethiopic" format="2">
  <advance width="760"/>
  <unicode hex="122B"/>
  <note>
uni122B
</note>
  <anchor x="395" y="721" name="top"/>
  <outline>
    <contour>
      <point x="314" y="0" type="curve" smooth="yes"/>
      <point x="517" y="0" type="line"/>
      <point x="517" y="68" type="line" smooth="yes"/>
      <point x="517" y="196"/>
      <point x="549" y="245"/>
      <point x="608" y="245" type="curve" smooth="yes"/>
      <point x="621" y="245" type="line"/>
      <point x="620" y="241"/>
      <point x="620" y="237"/>
      <point x="620" y="233" type="curve" smooth="yes"/>
      <point x="620" y="175"/>
      <point x="650" y="144"/>
      <point x="705" y="144" type="curve" smooth="yes"/>
      <point x="727" y="144"/>
      <point x="741" y="147"/>
      <point x="750" y="150" type="curve"/>
      <point x="734" y="183"/>
      <point x="729" y="211"/>
      <point x="729" y="244" type="curve" smooth="yes"/>
      <point x="729" y="266"/>
      <point x="733" y="291"/>
      <point x="739" y="312" type="curve"/>
      <point x="568" y="312" type="line" smooth="yes"/>
      <point x="407" y="312"/>
      <point x="327" y="233"/>
      <point x="326" y="67" type="curve"/>
      <point x="319" y="67" type="line" smooth="yes"/>
      <point x="267" y="67"/>
      <point x="230" y="107"/>
      <point x="230" y="178" type="curve" smooth="yes"/>
      <point x="230" y="260"/>
      <point x="269" y="299"/>
      <point x="355" y="361" type="curve" smooth="yes"/>
      <point x="491" y="459"/>
      <point x="537" y="526"/>
      <point x="537" y="629" type="curve" smooth="yes"/>
      <point x="537" y="678"/>
      <point x="523" y="708"/>
      <point x="514" y="721" type="curve"/>
      <point x="291" y="706" type="line"/>
      <point x="291" y="645" type="line"/>
      <point x="316" y="645"/>
      <point x="329" y="630"/>
      <point x="329" y="600" type="curve" smooth="yes"/>
      <point x="329" y="547"/>
      <point x="287" y="518"/>
      <point x="214" y="464" type="curve" smooth="yes"/>
      <point x="138" y="408"/>
      <point x="40" y="335"/>
      <point x="40" y="207" type="curve" smooth="yes"/>
      <point x="40" y="55"/>
      <point x="143" y="0"/>
    </contour>
  </outline>
</glyph>
<glyph name="re-ethiopic" format="2">
  <advance width="643"/>
  <unicode hex="122D"/>
  <note>
uni122D
</note>
  <anchor x="336" y="714" name="top"/>
  <outline>
    <contour>
      <point x="556" y="-85" type="curve" smooth="yes"/>
      <point x="574" y="-85"/>
      <point x="593" y="-82"/>
      <point x="606" y="-76" type="curve"/>
      <point x="585" y="-53"/>
      <point x="570" y="-13"/>
      <point x="570" y="33" type="curve" smooth="yes"/>
      <point x="570" y="79"/>
      <point x="585" y="120"/>
      <point x="606" y="143" type="curve"/>
      <point x="593" y="149"/>
      <point x="574" y="152"/>
      <point x="556" y="152" type="curve" smooth="yes"/>
      <point x="482" y="152"/>
      <point x="446" y="113"/>
      <point x="434" y="67" type="curve"/>
      <point x="392" y="67" type="line" smooth="yes"/>
      <point x="301" y="67"/>
      <point x="260" y="121"/>
      <point x="260" y="227" type="curve" smooth="yes"/>
      <point x="260" y="316" type="line" smooth="yes"/>
      <point x="260" y="560"/>
      <point x="343" y="647"/>
      <point x="428" y="647" type="curve" smooth="yes"/>
      <point x="444" y="647" type="line"/>
      <point x="443" y="640"/>
      <point x="443" y="634"/>
      <point x="443" y="627" type="curve" smooth="yes"/>
      <point x="443" y="564"/>
      <point x="488" y="522"/>
      <point x="563" y="522" type="curve" smooth="yes"/>
      <point x="581" y="522"/>
      <point x="600" y="525"/>
      <point x="613" y="531" type="curve"/>
      <point x="592" y="554"/>
      <point x="577" y="594"/>
      <point x="577" y="640" type="curve" smooth="yes"/>
      <point x="577" y="667"/>
      <point x="582" y="693"/>
      <point x="591" y="714" type="curve"/>
      <point x="406" y="714" type="line" smooth="yes"/>
      <point x="212" y="714"/>
      <point x="60" y="595"/>
      <point x="60" y="315" type="curve" smooth="yes"/>
      <point x="60" y="265" type="line" smooth="yes"/>
      <point x="60" y="79"/>
      <point x="144" y="0"/>
      <point x="334" y="0" type="curve" smooth="yes"/>
      <point x="434" y="0" type="line"/>
      <point x="446" y="-46"/>
      <point x="482" y="-85"/>
    </contour>
  </outline>
</glyph>
<glyph name="ro-ethiopic" format="2">
  <advance width="776"/>
  <unicode hex="122E"/>
  <note>
uni122E
</note>
  <anchor x="408" y="714" name="top"/>
  <outline>
    <contour>
      <point x="626" y="-85" type="curve" smooth="yes"/>
      <point x="644" y="-85"/>
      <point x="663" y="-82"/>
      <point x="676" y="-76" type="curve"/>
      <point x="655" y="-53"/>
      <point x="640" y="-13"/>
      <point x="640" y="33" type="curve" smooth="yes"/>
      <point x="640" y="79"/>
      <point x="655" y="120"/>
      <point x="676" y="143" type="curve"/>
      <point x="663" y="149"/>
      <point x="644" y="152"/>
      <point x="626" y="152" type="curve" smooth="yes"/>
      <point x="552" y="152"/>
      <point x="516" y="113"/>
      <point x="504" y="67" type="curve"/>
      <point x="395" y="67" type="line" smooth="yes"/>
      <point x="291" y="67"/>
      <point x="260" y="121"/>
      <point x="260" y="227" type="curve" smooth="yes"/>
      <point x="260" y="356" type="line" smooth="yes"/>
      <point x="260" y="580"/>
      <point x="334" y="647"/>
      <point x="416" y="647" type="curve" smooth="yes"/>
      <point x="424" y="647" type="line"/>
      <point x="591" y="714" type="line"/>
      <point x="406" y="714" type="line" smooth="yes"/>
      <point x="212" y="714"/>
      <point x="60" y="595"/>
      <point x="60" y="315" type="curve" smooth="yes"/>
      <point x="60" y="265" type="line" smooth="yes"/>
      <point x="60" y="79"/>
      <point x="144" y="0"/>
      <point x="334" y="0" type="curve" smooth="yes"/>
      <point x="504" y="0" type="line"/>
      <point x="516" y="-46"/>
      <point x="552" y="-85"/>
    </contour>
    <component base="ballsmall" xOffset="348" yOffset="298"/>
  </outline>
</glyph>
<glyph name="rwa-ethiopic" format="2">
  <advance width="765"/>
  <unicode hex="122F"/>
  <note>
uni122F
</note>
  <anchor x="397" y="843" name="top"/>
  <outline>
    <contour>
      <point x="314" y="0" type="curve" smooth="yes"/>
      <point x="517" y="0" type="line"/>
      <point x="517" y="68" type="line" smooth="yes"/>
      <point x="517" y="196"/>
      <point x="549" y="245"/>
      <point x="608" y="245" type="curve" smooth="yes"/>
      <point x="621" y="245" type="line"/>
      <point x="620" y="241"/>
      <point x="620" y="237"/>
      <point x="620" y="233" type="curve" smooth="yes"/>
      <point x="620" y="175"/>
      <point x="650" y="144"/>
      <point x="705" y="144" type="curve" smooth="yes"/>
      <point x="727" y="144"/>
      <point x="741" y="147"/>
      <point x="750" y="150" type="curve"/>
      <point x="734" y="183"/>
      <point x="729" y="211"/>
      <point x="729" y="244" type="curve" smooth="yes"/>
      <point x="729" y="266"/>
      <point x="733" y="291"/>
      <point x="739" y="312" type="curve"/>
      <point x="568" y="312" type="line" smooth="yes"/>
      <point x="407" y="312"/>
      <point x="327" y="233"/>
      <point x="326" y="67" type="curve"/>
      <point x="319" y="67" type="line" smooth="yes"/>
      <point x="267" y="67"/>
      <point x="230" y="107"/>
      <point x="230" y="178" type="curve" smooth="yes"/>
      <point x="230" y="260"/>
      <point x="269" y="299"/>
      <point x="355" y="361" type="curve" smooth="yes"/>
      <point x="491" y="459"/>
      <point x="537" y="528"/>
      <point x="537" y="631" type="curve" smooth="yes"/>
      <point x="537" y="665"/>
      <point x="525" y="695"/>
      <point x="516" y="708" type="curve"/>
      <point x="291" y="708" type="line"/>
      <point x="291" y="647" type="line"/>
      <point x="316" y="647"/>
      <point x="329" y="632"/>
      <point x="329" y="600" type="curve" smooth="yes"/>
      <point x="329" y="547"/>
      <point x="287" y="518"/>
      <point x="214" y="464" type="curve" smooth="yes"/>
      <point x="138" y="408"/>
      <point x="40" y="335"/>
      <point x="40" y="207" type="curve" smooth="yes"/>
      <point x="40" y="55"/>
      <point x="143" y="0"/>
    </contour>
    <contour>
      <point x="703" y="843" type="curve" smooth="yes"/>
      <point x="636" y="843"/>
      <point x="594" y="806"/>
      <point x="594" y="740" type="curve" smooth="yes"/>
      <point x="594" y="726"/>
      <point x="595" y="720"/>
      <point x="596" y="714" type="curve"/>
      <point x="248" y="714" type="line"/>
      <point x="249" y="720"/>
      <point x="250" y="726"/>
      <point x="250" y="740" type="curve" smooth="yes"/>
      <point x="250" y="806"/>
      <point x="208" y="843"/>
      <point x="141" y="843" type="curve" smooth="yes"/>
      <point x="119" y="843"/>
      <point x="101" y="839"/>
      <point x="89" y="834" type="curve"/>
      <point x="108" y="796"/>
      <point x="114" y="765"/>
      <point x="114" y="725" type="curve" smooth="yes"/>
      <point x="114" y="699"/>
      <point x="109" y="672"/>
      <point x="102" y="647" type="curve"/>
      <point x="742" y="647" type="line"/>
      <point x="735" y="672"/>
      <point x="730" y="699"/>
      <point x="730" y="725" type="curve" smooth="yes"/>
      <point x="730" y="765"/>
      <point x="736" y="796"/>
      <point x="755" y="834" type="curve"/>
      <point x="743" y="839"/>
      <point x="725" y="843"/>
    </contour>
  </outline>
</glyph>
<glyph name="sa-ethiopic" format="2">
	<advance width="693"/>
	<unicode hex="1230"/>
	<anchor x="363" y="767" name="top"/>
	<note>
		uni1230
	</note>
	<outline>
		<contour>
			<point x="262" y="566" type="line"/>
			<point x="442" y="566" type="line"/>
			<point x="442" y="696" type="line" smooth="yes"/>
			<point x="442" y="727"/>
			<point x="431" y="756"/>
			<point x="413" y="767" type="curve"/>
			<point x="216" y="752" type="line"/>
			<point x="216" y="695" type="line"/>
			<point x="245" y="695"/>
			<point x="262" y="675"/>
			<point x="262" y="636" type="curve" smooth="yes"/>
		</contour>
		<component base="shortnarch"/>
	</outline>
</glyph>
<glyph name="si-ethiopic" format="2">
  <advance width="888"/>
  <unicode hex="1232"/>
  <note>
uni1232
</note>
  <anchor x="469" y="767" name="top"/>
  <outline>
    <contour>
      <point x="76" y="-7" type="curve"/>
      <point x="319" y="8" type="line"/>
      <point x="319" y="69" type="line"/>
      <point x="278" y="69"/>
      <point x="260" y="83"/>
      <point x="260" y="142" type="curve" smooth="yes"/>
      <point x="260" y="297" type="line" smooth="yes"/>
      <point x="260" y="477"/>
      <point x="301" y="541"/>
      <point x="356" y="541" type="curve" smooth="yes"/>
      <point x="391" y="541"/>
      <point x="411" y="508"/>
      <point x="411" y="429" type="curve" smooth="yes"/>
      <point x="411" y="325"/>
      <point x="406" y="186"/>
      <point x="406" y="98" type="curve" smooth="yes"/>
      <point x="406" y="50"/>
      <point x="411" y="20"/>
      <point x="423" y="0" type="curve"/>
      <point x="666" y="0" type="line"/>
      <point x="666" y="67" type="line"/>
      <point x="625" y="67"/>
      <point x="607" y="81"/>
      <point x="607" y="140" type="curve" smooth="yes"/>
      <point x="607" y="212"/>
      <point x="612" y="304"/>
      <point x="612" y="375" type="curve" smooth="yes"/>
      <point x="612" y="525"/>
      <point x="559" y="612"/>
      <point x="377" y="612" type="curve" smooth="yes"/>
      <point x="167" y="612"/>
      <point x="60" y="474"/>
      <point x="60" y="295" type="curve" smooth="yes"/>
      <point x="60" y="91" type="line" smooth="yes"/>
      <point x="60" y="49"/>
      <point x="64" y="13"/>
    </contour>
    <contour>
      <point x="268" y="566" type="line"/>
      <point x="448" y="566" type="line"/>
      <point x="448" y="696" type="line" smooth="yes"/>
      <point x="448" y="727"/>
      <point x="437" y="756"/>
      <point x="419" y="767" type="curve"/>
      <point x="222" y="752" type="line"/>
      <point x="222" y="695" type="line"/>
      <point x="251" y="695"/>
      <point x="268" y="675"/>
      <point x="268" y="636" type="curve" smooth="yes"/>
    </contour>
    <component base="rightdoubleflag" xOffset="595"/>
  </outline>
</glyph>
<glyph name="saa-ethiopic" format="2">
  <advance width="678"/>
  <unicode hex="1233"/>
  <note>
uni1233
</note>
  <anchor x="348" y="767" name="top"/>
  <outline>
    <contour>
      <point x="242" y="566" type="line"/>
      <point x="422" y="566" type="line"/>
      <point x="422" y="696" type="line" smooth="yes"/>
      <point x="422" y="727"/>
      <point x="411" y="756"/>
      <point x="393" y="767" type="curve"/>
      <point x="196" y="752" type="line"/>
      <point x="196" y="695" type="line"/>
      <point x="225" y="695"/>
      <point x="242" y="675"/>
      <point x="242" y="636" type="curve" smooth="yes"/>
    </contour>
    <component base="baashort"/>
  </outline>
</glyph>
<glyph name="see-ethiopic" format="2">
  <advance width="905"/>
  <unicode hex="1234"/>
  <note>
uni1234
</note>
  <anchor x="472" y="767" name="top"/>
  <outline>
    <contour>
      <point x="76" y="-7" type="curve"/>
      <point x="319" y="8" type="line"/>
      <point x="319" y="69" type="line"/>
      <point x="278" y="69"/>
      <point x="260" y="83"/>
      <point x="260" y="142" type="curve" smooth="yes"/>
      <point x="260" y="297" type="line" smooth="yes"/>
      <point x="260" y="477"/>
      <point x="301" y="541"/>
      <point x="356" y="541" type="curve" smooth="yes"/>
      <point x="391" y="541"/>
      <point x="411" y="508"/>
      <point x="411" y="429" type="curve" smooth="yes"/>
      <point x="411" y="378"/>
      <point x="408" y="216"/>
      <point x="408" y="131" type="curve" smooth="yes"/>
      <point x="408" y="49"/>
      <point x="442" y="18"/>
      <point x="500" y="0" type="curve"/>
      <point x="699" y="0" type="line" smooth="yes"/>
      <point x="826" y="0"/>
      <point x="885" y="68"/>
      <point x="885" y="155" type="curve" smooth="yes"/>
      <point x="885" y="241"/>
      <point x="832" y="279"/>
      <point x="718" y="279" type="curve" smooth="yes"/>
      <point x="610" y="279" type="line"/>
      <point x="610" y="305"/>
      <point x="612" y="347"/>
      <point x="612" y="375" type="curve" smooth="yes"/>
      <point x="612" y="503"/>
      <point x="573" y="586"/>
      <point x="448" y="607" type="curve"/>
      <point x="448" y="696" type="line" smooth="yes"/>
      <point x="448" y="727"/>
      <point x="437" y="756"/>
      <point x="419" y="767" type="curve"/>
      <point x="222" y="752" type="line"/>
      <point x="222" y="695" type="line"/>
      <point x="251" y="695"/>
      <point x="268" y="675"/>
      <point x="268" y="636" type="curve" smooth="yes"/>
      <point x="268" y="598" type="line"/>
      <point x="130" y="558"/>
      <point x="60" y="440"/>
      <point x="60" y="295" type="curve" smooth="yes"/>
      <point x="60" y="91" type="line" smooth="yes"/>
      <point x="60" y="49"/>
      <point x="64" y="13"/>
    </contour>
    <contour>
      <point x="650" y="67" type="curve" smooth="yes"/>
      <point x="621" y="67"/>
      <point x="610" y="80"/>
      <point x="610" y="112" type="curve" smooth="yes"/>
      <point x="610" y="212" type="line"/>
      <point x="643" y="212" type="line" smooth="yes"/>
      <point x="695" y="212"/>
      <point x="708" y="185"/>
      <point x="708" y="147" type="curve" smooth="yes"/>
      <point x="708" y="103"/>
      <point x="685" y="67"/>
    </contour>
  </outline>
</glyph>
<glyph name="se-ethiopic" format="2">
  <advance width="693"/>
  <unicode hex="1235"/>
  <note>
uni1235
</note>
  <anchor x="363" y="764" name="top"/>
  <outline>
    <contour>
      <point x="269" y="566" type="line"/>
      <point x="446" y="566" type="line"/>
      <point x="409" y="642" type="line" smooth="yes"/>
      <point x="404" y="653"/>
      <point x="401" y="663"/>
      <point x="401" y="672" type="curve" smooth="yes"/>
      <point x="401" y="692"/>
      <point x="414" y="706"/>
      <point x="437" y="707" type="curve"/>
      <point x="437" y="764" type="line"/>
      <point x="229" y="758" type="line"/>
      <point x="219" y="747"/>
      <point x="212" y="729"/>
      <point x="212" y="708" type="curve" smooth="yes"/>
      <point x="212" y="692"/>
      <point x="216" y="675"/>
      <point x="224" y="658" type="curve" smooth="yes"/>
    </contour>
    <component base="shortnarch"/>
  </outline>
</glyph>
<glyph name="so-ethiopic" format="2">
  <advance width="673"/>
  <unicode hex="1236"/>
  <note>
uni1236
</note>
  <anchor x="364" y="767" name="top"/>
  <outline>
    <contour>
      <point x="258" y="566" type="line"/>
      <point x="438" y="566" type="line"/>
      <point x="438" y="696" type="line" smooth="yes"/>
      <point x="438" y="727"/>
      <point x="427" y="756"/>
      <point x="409" y="767" type="curve"/>
      <point x="212" y="752" type="line"/>
      <point x="212" y="695" type="line"/>
      <point x="241" y="695"/>
      <point x="258" y="675"/>
      <point x="258" y="636" type="curve" smooth="yes"/>
    </contour>
    <component base="boshort"/>
  </outline>
</glyph>
<glyph name="swa-ethiopic" format="2">
  <advance width="786"/>
  <unicode hex="1237"/>
  <note>
uni1237
</note>
  <anchor x="393" y="767" name="top"/>
  <outline>
    <contour>
      <point x="417" y="0" type="curve"/>
      <point x="660" y="0" type="line"/>
      <point x="660" y="67" type="line"/>
      <point x="619" y="67"/>
      <point x="601" y="83"/>
      <point x="601" y="142" type="curve" smooth="yes"/>
      <point x="601" y="194"/>
      <point x="606" y="304"/>
      <point x="606" y="375" type="curve" smooth="yes"/>
      <point x="606" y="525"/>
      <point x="553" y="612"/>
      <point x="371" y="612" type="curve" smooth="yes"/>
      <point x="165" y="612"/>
      <point x="54" y="490"/>
      <point x="54" y="341" type="curve" smooth="yes"/>
      <point x="54" y="317" type="line" smooth="yes"/>
      <point x="54" y="279"/>
      <point x="58" y="253"/>
      <point x="70" y="233" type="curve"/>
      <point x="313" y="248" type="line"/>
      <point x="313" y="309" type="line"/>
      <point x="272" y="309"/>
      <point x="254" y="323"/>
      <point x="254" y="352" type="curve" smooth="yes"/>
      <point x="254" y="377" type="line" smooth="yes"/>
      <point x="254" y="487"/>
      <point x="295" y="541"/>
      <point x="350" y="541" type="curve" smooth="yes"/>
      <point x="385" y="541"/>
      <point x="405" y="508"/>
      <point x="405" y="429" type="curve" smooth="yes"/>
      <point x="405" y="325"/>
      <point x="400" y="173"/>
      <point x="400" y="95" type="curve" smooth="yes"/>
      <point x="400" y="47"/>
      <point x="405" y="20"/>
    </contour>
    <contour>
      <point x="255" y="566" type="line"/>
      <point x="435" y="566" type="line"/>
      <point x="435" y="696" type="line" smooth="yes"/>
      <point x="435" y="727"/>
      <point x="424" y="756"/>
      <point x="406" y="767" type="curve"/>
      <point x="209" y="752" type="line"/>
      <point x="209" y="695" type="line"/>
      <point x="238" y="695"/>
      <point x="255" y="675"/>
      <point x="255" y="636" type="curve" smooth="yes"/>
    </contour>
    <component base="footlong"/>
  </outline>
</glyph>
<glyph name="sha-ethiopic" format="2">
	<advance width="740"/>
	<unicode hex="1238"/>
	<anchor x="370" y="848" name="top"/>
	<note>
		uni1238
	</note>
	<outline>
		<contour>
			<point x="287" y="566" type="line"/>
			<point x="457" y="566" type="line"/>
			<point x="457" y="734" type="line"/>
			<point x="287" y="734" type="line"/>
		</contour>
		<component base="shortnarch" xOffset="20"/>
		<component base="bonemiddle" xOffset="40" yOffset="14"/>
	</outline>
</glyph>
<glyph name="shi-ethiopic" format="2">
  <advance width="911"/>
  <unicode hex="123A"/>
  <note>
uni123A
</note>
  <anchor x="475" y="848" name="top"/>
  <outline>
    <contour>
      <point x="105" y="-7" type="curve"/>
      <point x="348" y="8" type="line"/>
      <point x="348" y="69" type="line"/>
      <point x="307" y="69"/>
      <point x="289" y="83"/>
      <point x="289" y="142" type="curve" smooth="yes"/>
      <point x="289" y="297" type="line" smooth="yes"/>
      <point x="289" y="477"/>
      <point x="330" y="541"/>
      <point x="385" y="541" type="curve" smooth="yes"/>
      <point x="420" y="541"/>
      <point x="440" y="508"/>
      <point x="440" y="429" type="curve" smooth="yes"/>
      <point x="440" y="325"/>
      <point x="435" y="185"/>
      <point x="435" y="97" type="curve" smooth="yes"/>
      <point x="435" y="49"/>
      <point x="440" y="20"/>
      <point x="452" y="0" type="curve"/>
      <point x="695" y="0" type="line"/>
      <point x="695" y="67" type="line"/>
      <point x="654" y="67"/>
      <point x="636" y="81"/>
      <point x="636" y="142" type="curve" smooth="yes"/>
      <point x="636" y="214"/>
      <point x="641" y="304"/>
      <point x="641" y="375" type="curve" smooth="yes"/>
      <point x="641" y="525"/>
      <point x="588" y="612"/>
      <point x="406" y="612" type="curve" smooth="yes"/>
      <point x="196" y="612"/>
      <point x="89" y="474"/>
      <point x="89" y="295" type="curve" smooth="yes"/>
      <point x="89" y="91" type="line" smooth="yes"/>
      <point x="89" y="49"/>
      <point x="93" y="13"/>
    </contour>
    <contour>
      <point x="842" y="-88" type="curve" smooth="yes"/>
      <point x="866" y="-88"/>
      <point x="888" y="-84"/>
      <point x="901" y="-76" type="curve"/>
      <point x="880" y="-53"/>
      <point x="865" y="-12"/>
      <point x="865" y="34" type="curve" smooth="yes"/>
      <point x="865" y="80"/>
      <point x="880" y="120"/>
      <point x="901" y="143" type="curve"/>
      <point x="888" y="150"/>
      <point x="866" y="155"/>
      <point x="842" y="155" type="curve" smooth="yes"/>
      <point x="774" y="155"/>
      <point x="741" y="113"/>
      <point x="729" y="67" type="curve"/>
      <point x="608" y="67" type="line"/>
      <point x="608" y="0" type="line"/>
      <point x="729" y="0" type="line"/>
      <point x="741" y="-46"/>
      <point x="774" y="-88"/>
    </contour>
    <contour>
      <point x="286" y="566" type="line"/>
      <point x="456" y="566" type="line"/>
      <point x="456" y="734" type="line"/>
      <point x="286" y="734" type="line"/>
    </contour>
    <component base="bonemiddle" xOffset="40" yOffset="14"/>
  </outline>
</glyph>
<glyph name="shaa-ethiopic" format="2">
  <advance width="733"/>
  <unicode hex="123B"/>
  <note>
uni123B
</note>
  <anchor x="361" y="848" name="top"/>
  <outline>
    <contour>
      <point x="276" y="566" type="line"/>
      <point x="446" y="566" type="line"/>
      <point x="446" y="734" type="line"/>
      <point x="276" y="734" type="line"/>
    </contour>
    <component base="bonemiddle" xOffset="30" yOffset="14"/>
    <component base="baashort" xOffset="32"/>
  </outline>
</glyph>
<glyph name="shee-ethiopic" format="2">
  <advance width="900"/>
  <unicode hex="123C"/>
  <note>
uni123C
</note>
  <anchor x="465" y="848" name="top"/>
  <outline>
    <contour>
      <point x="87" y="-7" type="curve"/>
      <point x="330" y="8" type="line"/>
      <point x="330" y="69" type="line"/>
      <point x="289" y="69"/>
      <point x="271" y="83"/>
      <point x="271" y="142" type="curve" smooth="yes"/>
      <point x="271" y="297" type="line" smooth="yes"/>
      <point x="271" y="477"/>
      <point x="312" y="541"/>
      <point x="367" y="541" type="curve" smooth="yes"/>
      <point x="402" y="541"/>
      <point x="424" y="508"/>
      <point x="424" y="429" type="curve" smooth="yes"/>
      <point x="424" y="359"/>
      <point x="424" y="319"/>
      <point x="424" y="235" type="curve"/>
      <point x="603" y="214" type="line"/>
      <point x="603" y="286"/>
      <point x="603" y="330"/>
      <point x="603" y="375" type="curve" smooth="yes"/>
      <point x="603" y="525"/>
      <point x="560" y="612"/>
      <point x="388" y="612" type="curve" smooth="yes"/>
      <point x="178" y="612"/>
      <point x="71" y="474"/>
      <point x="71" y="295" type="curve" smooth="yes"/>
      <point x="71" y="91" type="line" smooth="yes"/>
      <point x="71" y="49"/>
      <point x="75" y="13"/>
    </contour>
    <contour>
      <point x="285" y="566" type="line"/>
      <point x="455" y="566" type="line"/>
      <point x="455" y="734" type="line"/>
      <point x="285" y="734" type="line"/>
    </contour>
    <component base="bonemiddle" xOffset="40" yOffset="14"/>
    <component base="baselinebowl" xOffset="404"/>
  </outline>
</glyph>
<glyph name="sho-ethiopic" format="2">
	<advance width="740"/>
	<unicode hex="123E"/>
	<anchor x="370" y="848" name="top"/>
	<note>
		uni123E
	</note>
	<outline>
		<contour>
			<point x="285" y="566" type="line"/>
			<point x="455" y="566" type="line"/>
			<point x="455" y="734" type="line"/>
			<point x="285" y="734" type="line"/>
		</contour>
		<component base="boshort" xOffset="18"/>
		<component base="bonemiddle" xOffset="40" yOffset="14"/>
	</outline>
</glyph>
<glyph name="qi-ethiopic" format="2">
  <advance width="735"/>
  <unicode hex="1242"/>
  <note>
uni1242
</note>
  <anchor x="367" y="721" name="top"/>
  <outline>
    <contour>
      <point x="276" y="0" type="curve"/>
      <point x="519" y="0" type="line"/>
      <point x="519" y="67" type="line"/>
      <point x="478" y="67"/>
      <point x="460" y="81"/>
      <point x="460" y="140" type="curve" smooth="yes"/>
      <point x="460" y="650" type="line" smooth="yes"/>
      <point x="460" y="681"/>
      <point x="449" y="710"/>
      <point x="431" y="721" type="curve"/>
      <point x="213" y="706" type="line"/>
      <point x="213" y="649" type="line"/>
      <point x="242" y="649"/>
      <point x="259" y="629"/>
      <point x="259" y="590" type="curve" smooth="yes"/>
      <point x="259" y="98" type="line" smooth="yes"/>
      <point x="259" y="50"/>
      <point x="264" y="20"/>
    </contour>
    <component base="rightdoubleflag" xOffset="442"/>
    <component base="midring" yOffset="22"/>
  </outline>
</glyph>
<glyph name="qee-ethiopic" format="2">
  <advance width="719"/>
  <unicode hex="1244"/>
  <note>
uni1244
</note>
  <anchor x="359" y="721" name="top"/>
  <outline>
    <contour>
      <point x="376" y="0" type="curve" smooth="yes"/>
      <point x="531" y="0" type="line" smooth="yes"/>
      <point x="653" y="0"/>
      <point x="709" y="59"/>
      <point x="709" y="135" type="curve" smooth="yes"/>
      <point x="709" y="207"/>
      <point x="659" y="240"/>
      <point x="549" y="240" type="curve" smooth="yes"/>
      <point x="449" y="240" type="line"/>
      <point x="449" y="650" type="line" smooth="yes"/>
      <point x="449" y="681"/>
      <point x="438" y="710"/>
      <point x="420" y="721" type="curve"/>
      <point x="203" y="706" type="line"/>
      <point x="203" y="649" type="line"/>
      <point x="232" y="649"/>
      <point x="249" y="629"/>
      <point x="249" y="590" type="curve" smooth="yes"/>
      <point x="249" y="118" type="line" smooth="yes"/>
      <point x="249" y="47"/>
      <point x="292" y="0"/>
    </contour>
    <contour>
      <point x="484" y="60" type="curve" smooth="yes"/>
      <point x="459" y="60"/>
      <point x="449" y="74"/>
      <point x="449" y="105" type="curve" smooth="yes"/>
      <point x="449" y="178" type="line"/>
      <point x="479" y="178" type="line" smooth="yes"/>
      <point x="523" y="178"/>
      <point x="535" y="156"/>
      <point x="535" y="125" type="curve" smooth="yes"/>
      <point x="535" y="89"/>
      <point x="515" y="60"/>
    </contour>
    <component base="midringshort" yOffset="55"/>
  </outline>
</glyph>
<glyph name="qe-ethiopic" format="2">
  <advance width="727"/>
  <unicode hex="1245"/>
  <note>
uni1245
</note>
  <anchor x="363" y="843" name="top"/>
  <outline>
    <contour>
      <point x="296" y="-7" type="curve"/>
      <point x="516" y="8" type="line"/>
      <point x="516" y="65" type="line"/>
      <point x="485" y="65"/>
      <point x="467" y="78"/>
      <point x="467" y="132" type="curve" smooth="yes"/>
      <point x="467" y="647" type="line" smooth="yes"/>
      <point x="467" y="674"/>
      <point x="462" y="700"/>
      <point x="438" y="714" type="curve"/>
      <point x="169" y="714" type="line"/>
      <point x="170" y="720"/>
      <point x="171" y="726"/>
      <point x="171" y="740" type="curve" smooth="yes"/>
      <point x="171" y="806"/>
      <point x="129" y="843"/>
      <point x="62" y="843" type="curve" smooth="yes"/>
      <point x="40" y="843"/>
      <point x="22" y="839"/>
      <point x="10" y="834" type="curve"/>
      <point x="29" y="796"/>
      <point x="35" y="765"/>
      <point x="35" y="725" type="curve" smooth="yes"/>
      <point x="35" y="699"/>
      <point x="30" y="672"/>
      <point x="23" y="647" type="curve"/>
      <point x="221" y="647" type="line" smooth="yes"/>
      <point x="255" y="647"/>
      <point x="267" y="629"/>
      <point x="267" y="590" type="curve" smooth="yes"/>
      <point x="267" y="71" type="line" smooth="yes"/>
      <point x="267" y="33"/>
      <point x="278" y="10"/>
    </contour>
    <component base="midring" xOffset="7"/>
  </outline>
</glyph>
<glyph name="qoa-ethiopic" format="2">
  <advance width="698"/>
  <unicode hex="1247"/>
  <note>
uni1247
</note>
  <anchor x="349" y="770" name="top"/>
  <outline>
    <contour>
      <point x="92" y="-88" type="curve" smooth="yes"/>
      <point x="160" y="-88"/>
      <point x="193" y="-46"/>
      <point x="205" y="0" type="curve"/>
      <point x="411" y="0" type="line"/>
      <point x="429" y="11"/>
      <point x="440" y="40"/>
      <point x="440" y="71" type="curve" smooth="yes"/>
      <point x="440" y="479" type="line" smooth="yes"/>
      <point x="440" y="504"/>
      <point x="443" y="514"/>
      <point x="463" y="522" type="curve" smooth="yes"/>
      <point x="517" y="544"/>
      <point x="560" y="582"/>
      <point x="560" y="646" type="curve" smooth="yes"/>
      <point x="560" y="716"/>
      <point x="500" y="770"/>
      <point x="352" y="770" type="curve" smooth="yes"/>
      <point x="208" y="770"/>
      <point x="143" y="713"/>
      <point x="143" y="635" type="curve" smooth="yes"/>
      <point x="143" y="563"/>
      <point x="205" y="528"/>
      <point x="278" y="515" type="curve"/>
      <point x="269" y="505"/>
      <point x="260" y="493"/>
      <point x="260" y="468" type="curve" smooth="yes"/>
      <point x="260" y="124" type="line" smooth="yes"/>
      <point x="260" y="85"/>
      <point x="248" y="67"/>
      <point x="224" y="67" type="curve" smooth="yes"/>
      <point x="205" y="67" type="line"/>
      <point x="193" y="113"/>
      <point x="160" y="155"/>
      <point x="92" y="155" type="curve" smooth="yes"/>
      <point x="68" y="155"/>
      <point x="46" y="150"/>
      <point x="33" y="143" type="curve"/>
      <point x="54" y="120"/>
      <point x="69" y="80"/>
      <point x="69" y="34" type="curve" smooth="yes"/>
      <point x="69" y="-12"/>
      <point x="54" y="-53"/>
      <point x="33" y="-76" type="curve"/>
      <point x="46" y="-84"/>
      <point x="68" y="-88"/>
    </contour>
    <contour>
      <point x="350" y="554" type="curve"/>
      <point x="316" y="565"/>
      <point x="291" y="581"/>
      <point x="291" y="636" type="curve" smooth="yes"/>
      <point x="291" y="688"/>
      <point x="309" y="716"/>
      <point x="352" y="716" type="curve" smooth="yes"/>
      <point x="392" y="716"/>
      <point x="412" y="689"/>
      <point x="412" y="643" type="curve" smooth="yes"/>
      <point x="412" y="589"/>
      <point x="384" y="567"/>
    </contour>
    <component base="midringshort" yOffset="-56"/>
  </outline>
</glyph>
<glyph name="qwaa-ethiopic" format="2">
	<advance width="720"/>
	<unicode hex="124B"/>
	<anchor x="360" y="719" name="top"/>
	<note>
		uni124B
	</note>
	<outline>
		<contour>
			<point x="265" y="162" type="line"/>
			<point x="465" y="162" type="line"/>
			<point x="465" y="663" type="line" smooth="yes"/>
			<point x="465" y="688"/>
			<point x="454" y="710"/>
			<point x="436" y="719" type="curve"/>
			<point x="219" y="707" type="line"/>
			<point x="219" y="662" type="line"/>
			<point x="248" y="662"/>
			<point x="265" y="647"/>
			<point x="265" y="616" type="curve" smooth="yes"/>
		</contour>
		<contour>
			<point x="284" y="135" type="line"/>
			<point x="634" y="135" type="line"/>
			<point x="634" y="202" type="line"/>
			<point x="284" y="202" type="line"/>
		</contour>
		<contour>
			<point x="463" y="-7" type="curve"/>
			<point x="683" y="8" type="line"/>
			<point x="683" y="65" type="line"/>
			<point x="652" y="65"/>
			<point x="634" y="78"/>
			<point x="634" y="132" type="curve" smooth="yes"/>
			<point x="634" y="185" type="line"/>
			<point x="434" y="185" type="line"/>
			<point x="434" y="71" type="line" smooth="yes"/>
			<point x="434" y="33"/>
			<point x="445" y="10"/>
		</contour>
		<component base="midring" yOffset="66"/>
		<component base="leftsingleflag" xOffset="35" yOffset="-217"/>
	</outline>
</glyph>
<glyph name="qwee-ethiopic" format="2">
  <advance width="719"/>
  <unicode hex="124C"/>
  <note>
uni1244
</note>
  <anchor x="359" y="721" name="top"/>
  <outline>
    <contour>
      <point x="89" y="-129" type="curve" smooth="yes"/>
      <point x="156" y="-129"/>
      <point x="198" y="-92"/>
      <point x="198" y="-26" type="curve" smooth="yes"/>
      <point x="198" y="-12"/>
      <point x="197" y="-6"/>
      <point x="196" y="0" type="curve"/>
      <point x="455" y="0" type="line"/>
      <point x="331" y="67" type="line"/>
      <point x="50" y="67" type="line"/>
      <point x="57" y="42"/>
      <point x="62" y="15"/>
      <point x="62" y="-11" type="curve" smooth="yes"/>
      <point x="62" y="-51"/>
      <point x="56" y="-82"/>
      <point x="37" y="-120" type="curve"/>
      <point x="49" y="-125"/>
      <point x="67" y="-129"/>
    </contour>
    <component base="qee-ethiopic"/>
  </outline>
</glyph>
<glyph name="qha-ethiopic" format="2">
	<advance width="740"/>
	<unicode hex="1250"/>
	<anchor x="370" y="848" name="top"/>
	<note>
		uni1250
	</note>
	<outline>
		<contour>
			<point x="301" y="-7" type="curve"/>
			<point x="521" y="8" type="line"/>
			<point x="521" y="65" type="line"/>
			<point x="490" y="65"/>
			<point x="472" y="78"/>
			<point x="472" y="132" type="curve" smooth="yes"/>
			<point x="472" y="720" type="line"/>
			<point x="272" y="720" type="line"/>
			<point x="272" y="71" type="line" smooth="yes"/>
			<point x="272" y="33"/>
			<point x="283" y="10"/>
		</contour>
		<component base="midring" xOffset="10" yOffset="41"/>
		<component base="bonemiddle" xOffset="42" yOffset="14"/>
	</outline>
</glyph>
<glyph name="qhi-ethiopic" format="2">
  <advance width="740"/>
  <unicode hex="1252"/>
  <note>
uni1252
</note>
  <anchor x="370" y="848" name="top"/>
  <outline>
    <contour>
      <point x="286" y="0" type="curve"/>
      <point x="528" y="0" type="line"/>
      <point x="528" y="67" type="line"/>
      <point x="487" y="67"/>
      <point x="469" y="81"/>
      <point x="469" y="140" type="curve"/>
      <point x="469" y="720" type="line"/>
      <point x="269" y="720" type="line"/>
      <point x="269" y="98" type="line" smooth="yes"/>
      <point x="269" y="50"/>
      <point x="274" y="20"/>
    </contour>
    <component base="midring" xOffset="10" yOffset="41"/>
    <component base="bonemiddle" xOffset="39" yOffset="14"/>
    <component base="rightdoubleflag" xOffset="432"/>
  </outline>
</glyph>
<glyph name="qhaa-ethiopic" format="2">
  <advance width="744"/>
  <unicode hex="1253"/>
  <note>
uni1253
</note>
  <anchor x="367" y="848" name="top"/>
  <outline>
    <contour>
      <point x="62" y="-129" type="curve" smooth="yes"/>
      <point x="129" y="-129"/>
      <point x="171" y="-92"/>
      <point x="171" y="-26" type="curve" smooth="yes"/>
      <point x="171" y="-12"/>
      <point x="170" y="-6"/>
      <point x="169" y="0" type="curve"/>
      <point x="178" y="0" type="line" smooth="yes"/>
      <point x="362" y="0"/>
      <point x="464" y="91"/>
      <point x="464" y="234" type="curve" smooth="yes"/>
      <point x="464" y="710" type="line"/>
      <point x="284" y="710" type="line"/>
      <point x="284" y="235" type="line" smooth="yes"/>
      <point x="284" y="117"/>
      <point x="233" y="67"/>
      <point x="128" y="67" type="curve" smooth="yes"/>
      <point x="23" y="67" type="line"/>
      <point x="30" y="42"/>
      <point x="35" y="15"/>
      <point x="35" y="-11" type="curve" smooth="yes"/>
      <point x="35" y="-51"/>
      <point x="29" y="-82"/>
      <point x="10" y="-120" type="curve"/>
      <point x="22" y="-125"/>
      <point x="40" y="-129"/>
    </contour>
    <component base="midring" xOffset="14" yOffset="5"/>
    <component base="bonemiddle" xOffset="43" yOffset="14"/>
  </outline>
</glyph>
<glyph name="qhee-ethiopic" format="2">
  <advance width="741"/>
  <unicode hex="1254"/>
  <note>
uni1254
</note>
  <anchor x="370" y="848" name="top"/>
  <outline>
    <contour>
      <point x="388" y="0" type="curve" smooth="yes"/>
      <point x="543" y="0" type="line" smooth="yes"/>
      <point x="665" y="0"/>
      <point x="721" y="59"/>
      <point x="721" y="135" type="curve" smooth="yes"/>
      <point x="721" y="207"/>
      <point x="671" y="240"/>
      <point x="561" y="240" type="curve" smooth="yes"/>
      <point x="461" y="240" type="line"/>
      <point x="461" y="750" type="line"/>
      <point x="261" y="750" type="line"/>
      <point x="261" y="118" type="line" smooth="yes"/>
      <point x="261" y="47"/>
      <point x="304" y="0"/>
    </contour>
    <contour>
      <point x="496" y="60" type="curve" smooth="yes"/>
      <point x="471" y="60"/>
      <point x="461" y="74"/>
      <point x="461" y="105" type="curve" smooth="yes"/>
      <point x="461" y="178" type="line"/>
      <point x="491" y="178" type="line" smooth="yes"/>
      <point x="535" y="178"/>
      <point x="547" y="156"/>
      <point x="547" y="125" type="curve" smooth="yes"/>
      <point x="547" y="89"/>
      <point x="527" y="60"/>
    </contour>
    <component base="midringshort" xOffset="10" yOffset="52"/>
    <component base="bonemiddle" xOffset="30" yOffset="14"/>
  </outline>
</glyph>
<glyph name="qhe-ethiopic" format="2">
  <advance width="770"/>
  <unicode hex="1255"/>
  <note>
uni1255
</note>
  <anchor x="385" y="848" name="top"/>
  <outline>
    <contour>
      <point x="323" y="-7" type="curve"/>
      <point x="543" y="8" type="line"/>
      <point x="543" y="65" type="line"/>
      <point x="512" y="65"/>
      <point x="494" y="78"/>
      <point x="494" y="122" type="curve" smooth="yes"/>
      <point x="494" y="186"/>
      <point x="555" y="393"/>
      <point x="555" y="457" type="curve" smooth="yes"/>
      <point x="555" y="521"/>
      <point x="521" y="556"/>
      <point x="445" y="556" type="curve" smooth="yes"/>
      <point x="399" y="556" type="line"/>
      <point x="399" y="710" type="line"/>
      <point x="199" y="710" type="line"/>
      <point x="199" y="472" type="line"/>
      <point x="276" y="472" type="line" smooth="yes"/>
      <point x="326" y="472"/>
      <point x="354" y="457"/>
      <point x="354" y="409" type="curve" smooth="yes"/>
      <point x="354" y="355"/>
      <point x="294" y="137"/>
      <point x="294" y="71" type="curve" smooth="yes"/>
      <point x="294" y="33"/>
      <point x="305" y="10"/>
    </contour>
    <component base="midringshort" xOffset="72" yOffset="-109"/>
    <component base="bone" yOffset="17"/>
  </outline>
</glyph>
<glyph name="qho-ethiopic" format="2">
  <advance width="751"/>
  <unicode hex="1256"/>
  <note>
uni1256
</note>
  <anchor x="375" y="848" name="top"/>
  <outline>
    <contour>
      <point x="300" y="-7" type="curve"/>
      <point x="520" y="8" type="line"/>
      <point x="520" y="65" type="line"/>
      <point x="489" y="65"/>
      <point x="471" y="78"/>
      <point x="471" y="132" type="curve" smooth="yes"/>
      <point x="471" y="376" type="line" smooth="yes"/>
      <point x="471" y="401"/>
      <point x="474" y="411"/>
      <point x="494" y="419" type="curve" smooth="yes"/>
      <point x="548" y="441"/>
      <point x="591" y="479"/>
      <point x="591" y="540" type="curve" smooth="yes"/>
      <point x="591" y="610"/>
      <point x="531" y="661"/>
      <point x="373" y="661" type="curve" smooth="yes"/>
      <point x="219" y="661"/>
      <point x="154" y="607"/>
      <point x="154" y="529" type="curve" smooth="yes"/>
      <point x="154" y="460"/>
      <point x="216" y="425"/>
      <point x="289" y="412" type="curve"/>
      <point x="280" y="402"/>
      <point x="271" y="390"/>
      <point x="271" y="365" type="curve" smooth="yes"/>
      <point x="271" y="71" type="line" smooth="yes"/>
      <point x="271" y="33"/>
      <point x="282" y="10"/>
    </contour>
    <contour>
      <point x="371" y="451" type="curve"/>
      <point x="344" y="462"/>
      <point x="319" y="478"/>
      <point x="319" y="530" type="curve" smooth="yes"/>
      <point x="319" y="582"/>
      <point x="337" y="607"/>
      <point x="373" y="607" type="curve" smooth="yes"/>
      <point x="407" y="607"/>
      <point x="427" y="583"/>
      <point x="427" y="537" type="curve" smooth="yes"/>
      <point x="427" y="486"/>
      <point x="399" y="464"/>
    </contour>
    <contour>
      <point x="286" y="643" type="line"/>
      <point x="466" y="643" type="line"/>
      <point x="466" y="724" type="line"/>
      <point x="286" y="724" type="line"/>
    </contour>
    <component base="bonelong" xOffset="10" yOffset="14"/>
    <component base="midringshort" xOffset="19" yOffset="-145"/>
  </outline>
</glyph>
<glyph name="qhwa-ethiopic" format="2">
	<advance width="1028"/>
	<unicode hex="1258"/>
	<anchor x="514" y="848" name="top"/>
	<note>
		uni1258
	</note>
	<outline>
		<contour>
			<point x="287" y="-7" type="curve"/>
			<point x="507" y="8" type="line"/>
			<point x="507" y="65" type="line"/>
			<point x="476" y="65"/>
			<point x="458" y="78"/>
			<point x="458" y="132" type="curve" smooth="yes"/>
			<point x="458" y="720" type="line"/>
			<point x="258" y="720" type="line"/>
			<point x="258" y="71" type="line" smooth="yes"/>
			<point x="258" y="33"/>
			<point x="269" y="10"/>
		</contour>
		<component base="rightbulbsmall" xOffset="464" yOffset="-152"/>
		<component base="midringshort" xOffset="10" yOffset="68"/>
		<component base="bonemiddle" xOffset="30" yOffset="14"/>
	</outline>
</glyph>
<glyph name="qhwaa-ethiopic" format="2">
  <advance width="747"/>
  <unicode hex="125B"/>
  <note>
uni125B
</note>
  <anchor x="373" y="848" name="top"/>
  <outline>
    <contour>
      <point x="270" y="181" type="line"/>
      <point x="470" y="181" type="line"/>
      <point x="470" y="720" type="line"/>
      <point x="270" y="720" type="line"/>
    </contour>
    <contour>
      <point x="258" y="143" type="line"/>
      <point x="668" y="143" type="line"/>
      <point x="668" y="210" type="line"/>
      <point x="258" y="210" type="line"/>
    </contour>
    <contour>
      <point x="537" y="-7" type="curve"/>
      <point x="717" y="8" type="line"/>
      <point x="717" y="65" type="line"/>
      <point x="686" y="65"/>
      <point x="668" y="78"/>
      <point x="668" y="132" type="curve" smooth="yes"/>
      <point x="668" y="198" type="line"/>
      <point x="508" y="198" type="line"/>
      <point x="508" y="71" type="line" smooth="yes"/>
      <point x="508" y="33"/>
      <point x="519" y="10"/>
    </contour>
    <component base="midringshort" xOffset="20" yOffset="49"/>
    <component base="leftsingleflag" xOffset="32" yOffset="-209"/>
    <component base="bonemiddle" xOffset="40" yOffset="14"/>
  </outline>
</glyph>
<glyph name="qhwee-ethiopic" format="2">
  <advance width="761"/>
  <unicode hex="125C"/>
  <note>
uni125C
</note>
  <anchor x="380" y="848" name="top"/>
  <outline>
    <contour>
      <point x="237" y="0" type="line"/>
      <point x="446" y="0" type="line"/>
      <point x="446" y="67" type="line"/>
      <point x="237" y="67" type="line"/>
    </contour>
    <component base="qhee-ethiopic" xOffset="10"/>
    <component base="leftsingleflag" xOffset="31" yOffset="-352"/>
  </outline>
</glyph>
<glyph name="ba-ethiopic" format="2">
  <advance width="705"/>
  <unicode hex="1260"/>
  <note>
uni1260
</note>
  <anchor x="369" y="726" name="top"/>
  <outline>
    <contour>
      <point x="383" y="726" type="curve" smooth="yes"/>
      <point x="167" y="726"/>
      <point x="60" y="588"/>
      <point x="60" y="409" type="curve" smooth="yes"/>
      <point x="60" y="91" type="line" smooth="yes"/>
      <point x="60" y="49"/>
      <point x="64" y="13"/>
      <point x="76" y="-7" type="curve"/>
      <point x="319" y="8" type="line"/>
      <point x="319" y="69" type="line"/>
      <point x="278" y="69"/>
      <point x="260" y="83"/>
      <point x="260" y="142" type="curve" smooth="yes"/>
      <point x="260" y="411" type="line" smooth="yes"/>
      <point x="260" y="591"/>
      <point x="301" y="655"/>
      <point x="362" y="655" type="curve" smooth="yes"/>
      <point x="403" y="655"/>
      <point x="423" y="622"/>
      <point x="423" y="543" type="curve" smooth="yes"/>
      <point x="423" y="439"/>
      <point x="418" y="243"/>
      <point x="418" y="91" type="curve" smooth="yes"/>
      <point x="418" y="43"/>
      <point x="423" y="13"/>
      <point x="435" y="-7" type="curve"/>
      <point x="678" y="8" type="line"/>
      <point x="678" y="69" type="line"/>
      <point x="637" y="69"/>
      <point x="619" y="83"/>
      <point x="619" y="142" type="curve" smooth="yes"/>
      <point x="619" y="278"/>
      <point x="624" y="418"/>
      <point x="624" y="489" type="curve" smooth="yes"/>
      <point x="624" y="639"/>
      <point x="571" y="726"/>
    </contour>
  </outline>
</glyph>
<glyph name="bi-ethiopic" format="2">
  <advance width="892"/>
  <unicode hex="1262"/>
  <note>
uni1262
</note>
  <anchor x="471" y="726" name="top"/>
  <outline>
    <contour>
      <point x="823" y="-88" type="curve" smooth="yes"/>
      <point x="847" y="-88"/>
      <point x="869" y="-84"/>
      <point x="882" y="-76" type="curve"/>
      <point x="861" y="-53"/>
      <point x="846" y="-12"/>
      <point x="846" y="34" type="curve" smooth="yes"/>
      <point x="846" y="80"/>
      <point x="861" y="120"/>
      <point x="882" y="143" type="curve"/>
      <point x="869" y="150"/>
      <point x="847" y="155"/>
      <point x="823" y="155" type="curve" smooth="yes"/>
      <point x="755" y="155"/>
      <point x="722" y="113"/>
      <point x="710" y="67" type="curve"/>
      <point x="678" y="67" type="line" smooth="yes"/>
      <point x="637" y="67"/>
      <point x="619" y="81"/>
      <point x="619" y="142" type="curve" smooth="yes"/>
      <point x="619" y="278"/>
      <point x="624" y="418"/>
      <point x="624" y="489" type="curve" smooth="yes"/>
      <point x="624" y="639"/>
      <point x="571" y="726"/>
      <point x="383" y="726" type="curve" smooth="yes"/>
      <point x="167" y="726"/>
      <point x="60" y="588"/>
      <point x="60" y="409" type="curve" smooth="yes"/>
      <point x="60" y="91" type="line" smooth="yes"/>
      <point x="60" y="49"/>
      <point x="64" y="13"/>
      <point x="76" y="-7" type="curve"/>
      <point x="319" y="8" type="line"/>
      <point x="319" y="69" type="line"/>
      <point x="278" y="69"/>
      <point x="260" y="83"/>
      <point x="260" y="142" type="curve" smooth="yes"/>
      <point x="260" y="411" type="line" smooth="yes"/>
      <point x="260" y="591"/>
      <point x="301" y="655"/>
      <point x="362" y="655" type="curve" smooth="yes"/>
      <point x="403" y="655"/>
      <point x="423" y="622"/>
      <point x="423" y="543" type="curve" smooth="yes"/>
      <point x="423" y="439"/>
      <point x="418" y="243"/>
      <point x="418" y="91" type="curve" smooth="yes"/>
      <point x="418" y="50"/>
      <point x="423" y="20"/>
      <point x="435" y="0" type="curve"/>
      <point x="710" y="0" type="line"/>
      <point x="722" y="-46"/>
      <point x="755" y="-88"/>
    </contour>
  </outline>
</glyph>
<glyph name="baa-ethiopic" format="2">
  <advance width="678"/>
  <unicode hex="1263"/>
  <note>
uni1263
</note>
  <anchor x="348" y="726" name="top"/>
  <outline>
    <contour>
      <point x="408" y="-7" type="curve"/>
      <point x="651" y="8" type="line"/>
      <point x="651" y="69" type="line"/>
      <point x="610" y="69"/>
      <point x="592" y="83"/>
      <point x="592" y="142" type="curve" smooth="yes"/>
      <point x="592" y="278"/>
      <point x="597" y="418"/>
      <point x="597" y="489" type="curve" smooth="yes"/>
      <point x="597" y="639"/>
      <point x="544" y="726"/>
      <point x="362" y="726" type="curve" smooth="yes"/>
      <point x="152" y="726"/>
      <point x="45" y="588"/>
      <point x="45" y="409" type="curve" smooth="yes"/>
      <point x="45" y="336" type="line" smooth="yes"/>
      <point x="45" y="294"/>
      <point x="49" y="258"/>
      <point x="61" y="238" type="curve"/>
      <point x="304" y="253" type="line"/>
      <point x="304" y="314" type="line"/>
      <point x="263" y="314"/>
      <point x="245" y="328"/>
      <point x="245" y="387" type="curve" smooth="yes"/>
      <point x="245" y="411" type="line" smooth="yes"/>
      <point x="245" y="591"/>
      <point x="286" y="655"/>
      <point x="341" y="655" type="curve" smooth="yes"/>
      <point x="376" y="655"/>
      <point x="396" y="622"/>
      <point x="396" y="543" type="curve" smooth="yes"/>
      <point x="396" y="439"/>
      <point x="391" y="243"/>
      <point x="391" y="91" type="curve" smooth="yes"/>
      <point x="391" y="43"/>
      <point x="396" y="13"/>
    </contour>
  </outline>
</glyph>
<glyph name="bee-ethiopic" format="2">
  <advance width="904"/>
  <unicode hex="1264"/>
  <note>
uni1264
</note>
  <anchor x="472" y="726" name="top"/>
  <outline>
    <contour>
      <point x="76" y="-7" type="curve"/>
      <point x="319" y="8" type="line"/>
      <point x="319" y="69" type="line"/>
      <point x="278" y="69"/>
      <point x="260" y="83"/>
      <point x="260" y="142" type="curve" smooth="yes"/>
      <point x="260" y="411" type="line" smooth="yes"/>
      <point x="260" y="591"/>
      <point x="301" y="655"/>
      <point x="356" y="655" type="curve" smooth="yes"/>
      <point x="391" y="655"/>
      <point x="411" y="622"/>
      <point x="411" y="543" type="curve" smooth="yes"/>
      <point x="411" y="433"/>
      <point x="407" y="242"/>
      <point x="407" y="131" type="curve" smooth="yes"/>
      <point x="407" y="49"/>
      <point x="441" y="18"/>
      <point x="499" y="0" type="curve"/>
      <point x="698" y="0" type="line" smooth="yes"/>
      <point x="825" y="0"/>
      <point x="884" y="68"/>
      <point x="884" y="155" type="curve" smooth="yes"/>
      <point x="884" y="241"/>
      <point x="831" y="279"/>
      <point x="717" y="279" type="curve" smooth="yes"/>
      <point x="609" y="279" type="line"/>
      <point x="609" y="335"/>
      <point x="612" y="429"/>
      <point x="612" y="489" type="curve" smooth="yes"/>
      <point x="612" y="639"/>
      <point x="559" y="726"/>
      <point x="377" y="726" type="curve" smooth="yes"/>
      <point x="167" y="726"/>
      <point x="60" y="588"/>
      <point x="60" y="409" type="curve" smooth="yes"/>
      <point x="60" y="91" type="line" smooth="yes"/>
      <point x="60" y="49"/>
      <point x="64" y="13"/>
    </contour>
    <contour>
      <point x="649" y="67" type="curve" smooth="yes"/>
      <point x="620" y="67"/>
      <point x="609" y="80"/>
      <point x="609" y="112" type="curve" smooth="yes"/>
      <point x="609" y="212" type="line"/>
      <point x="642" y="212" type="line" smooth="yes"/>
      <point x="694" y="212"/>
      <point x="707" y="185"/>
      <point x="707" y="147" type="curve" smooth="yes"/>
      <point x="707" y="103"/>
      <point x="684" y="67"/>
    </contour>
  </outline>
</glyph>
<glyph name="bo-ethiopic" format="2">
  <advance width="683"/>
  <unicode hex="1266"/>
  <note>
uni1266
</note>
  <anchor x="364" y="726" name="top"/>
  <outline>
    <contour>
      <point x="76" y="-7" type="curve"/>
      <point x="319" y="8" type="line"/>
      <point x="319" y="69" type="line"/>
      <point x="278" y="69"/>
      <point x="260" y="83"/>
      <point x="260" y="142" type="curve" smooth="yes"/>
      <point x="260" y="411" type="line" smooth="yes"/>
      <point x="260" y="591"/>
      <point x="301" y="655"/>
      <point x="356" y="655" type="curve" smooth="yes"/>
      <point x="391" y="655"/>
      <point x="411" y="622"/>
      <point x="411" y="543" type="curve" smooth="yes"/>
      <point x="411" y="489"/>
      <point x="408" y="388"/>
      <point x="408" y="336" type="curve" smooth="yes"/>
      <point x="408" y="288"/>
      <point x="413" y="258"/>
      <point x="425" y="238" type="curve"/>
      <point x="668" y="253" type="line"/>
      <point x="668" y="314" type="line"/>
      <point x="627" y="314"/>
      <point x="609" y="328"/>
      <point x="609" y="387" type="curve" smooth="yes"/>
      <point x="609" y="413"/>
      <point x="612" y="478"/>
      <point x="612" y="509" type="curve" smooth="yes"/>
      <point x="612" y="635"/>
      <point x="559" y="726"/>
      <point x="377" y="726" type="curve" smooth="yes"/>
      <point x="167" y="726"/>
      <point x="60" y="588"/>
      <point x="60" y="409" type="curve" smooth="yes"/>
      <point x="60" y="91" type="line" smooth="yes"/>
      <point x="60" y="49"/>
      <point x="64" y="13"/>
    </contour>
  </outline>
</glyph>
<glyph name="bwa-ethiopic" format="2">
  <advance width="806"/>
  <unicode hex="1267"/>
  <note>
uni1267
</note>
  <anchor x="413" y="726" name="top"/>
  <outline>
    <contour>
      <point x="413" y="37" type="line"/>
      <point x="614" y="37" type="line"/>
      <point x="614" y="489" type="line" smooth="yes"/>
      <point x="614" y="639"/>
      <point x="562" y="726"/>
      <point x="380" y="726" type="curve" smooth="yes"/>
      <point x="170" y="726"/>
      <point x="63" y="588"/>
      <point x="63" y="409" type="curve" smooth="yes"/>
      <point x="63" y="336" type="line" smooth="yes"/>
      <point x="63" y="294"/>
      <point x="67" y="258"/>
      <point x="79" y="238" type="curve"/>
      <point x="322" y="253" type="line"/>
      <point x="322" y="314" type="line"/>
      <point x="281" y="314"/>
      <point x="263" y="328"/>
      <point x="263" y="387" type="curve" smooth="yes"/>
      <point x="263" y="411" type="line" smooth="yes"/>
      <point x="263" y="591"/>
      <point x="304" y="655"/>
      <point x="359" y="655" type="curve" smooth="yes"/>
      <point x="394" y="655"/>
      <point x="413" y="622"/>
      <point x="413" y="543" type="curve" smooth="yes"/>
    </contour>
    <component base="footlong" xOffset="20"/>
  </outline>
</glyph>
<glyph name="vi-ethiopic" format="2">
  <advance width="888"/>
  <unicode hex="126A"/>
  <note>
uni126A
</note>
  <anchor x="469" y="848" name="top"/>
  <outline>
    <contour>
      <point x="76" y="-7" type="curve"/>
      <point x="319" y="8" type="line"/>
      <point x="319" y="69" type="line"/>
      <point x="278" y="69"/>
      <point x="260" y="83"/>
      <point x="260" y="142" type="curve" smooth="yes"/>
      <point x="260" y="297" type="line" smooth="yes"/>
      <point x="260" y="477"/>
      <point x="301" y="541"/>
      <point x="356" y="541" type="curve" smooth="yes"/>
      <point x="391" y="541"/>
      <point x="411" y="508"/>
      <point x="411" y="429" type="curve" smooth="yes"/>
      <point x="411" y="325"/>
      <point x="406" y="186"/>
      <point x="406" y="98" type="curve" smooth="yes"/>
      <point x="406" y="50"/>
      <point x="411" y="20"/>
      <point x="423" y="0" type="curve"/>
      <point x="666" y="0" type="line"/>
      <point x="666" y="67" type="line"/>
      <point x="625" y="67"/>
      <point x="607" y="81"/>
      <point x="607" y="140" type="curve" smooth="yes"/>
      <point x="607" y="212"/>
      <point x="612" y="304"/>
      <point x="612" y="375" type="curve" smooth="yes"/>
      <point x="612" y="525"/>
      <point x="559" y="612"/>
      <point x="377" y="612" type="curve" smooth="yes"/>
      <point x="167" y="612"/>
      <point x="60" y="474"/>
      <point x="60" y="295" type="curve" smooth="yes"/>
      <point x="60" y="91" type="line" smooth="yes"/>
      <point x="60" y="49"/>
      <point x="64" y="13"/>
    </contour>
    <component base="bone" xOffset="68" yOffset="17"/>
    <component base="rightdoubleflag" xOffset="595"/>
  </outline>
</glyph>
<glyph name="vwa-ethiopic" format="2">
  <advance width="786"/>
  <unicode hex="126F"/>
  <note>
uni126F
</note>
  <anchor x="393" y="848" name="top"/>
  <outline>
    <contour>
      <point x="394" y="33" type="curve"/>
      <point x="595" y="33" type="line"/>
      <point x="595" y="118"/>
      <point x="600" y="304"/>
      <point x="600" y="375" type="curve" smooth="yes"/>
      <point x="600" y="525"/>
      <point x="547" y="612"/>
      <point x="365" y="612" type="curve" smooth="yes"/>
      <point x="159" y="612"/>
      <point x="48" y="490"/>
      <point x="48" y="341" type="curve" smooth="yes"/>
      <point x="48" y="317" type="line" smooth="yes"/>
      <point x="48" y="279"/>
      <point x="52" y="253"/>
      <point x="64" y="233" type="curve"/>
      <point x="307" y="248" type="line"/>
      <point x="307" y="309" type="line"/>
      <point x="266" y="309"/>
      <point x="248" y="323"/>
      <point x="248" y="352" type="curve" smooth="yes"/>
      <point x="248" y="377" type="line" smooth="yes"/>
      <point x="248" y="487"/>
      <point x="289" y="541"/>
      <point x="344" y="541" type="curve" smooth="yes"/>
      <point x="387" y="541"/>
      <point x="399" y="508"/>
      <point x="399" y="440" type="curve" smooth="yes"/>
      <point x="399" y="325"/>
      <point x="394" y="108"/>
    </contour>
    <component base="footlong"/>
    <component base="bonemiddle" xOffset="27" yOffset="14"/>
  </outline>
</glyph>
<glyph name="ti-ethiopic" format="2">
  <advance width="676"/>
  <unicode hex="1272"/>
  <note>
uni1272
</note>
  <anchor x="333" y="721" name="top"/>
  <outline>
    <contour>
      <point x="603" y="-88" type="curve" smooth="yes"/>
      <point x="627" y="-88"/>
      <point x="649" y="-84"/>
      <point x="662" y="-76" type="curve"/>
      <point x="641" y="-53"/>
      <point x="626" y="-12"/>
      <point x="626" y="34" type="curve" smooth="yes"/>
      <point x="626" y="80"/>
      <point x="641" y="120"/>
      <point x="662" y="143" type="curve"/>
      <point x="649" y="150"/>
      <point x="627" y="155"/>
      <point x="603" y="155" type="curve" smooth="yes"/>
      <point x="535" y="155"/>
      <point x="502" y="113"/>
      <point x="490" y="67" type="curve"/>
      <point x="483" y="67" type="line" smooth="yes"/>
      <point x="452" y="67"/>
      <point x="434" y="78"/>
      <point x="434" y="132" type="curve" smooth="yes"/>
      <point x="434" y="650" type="line" smooth="yes"/>
      <point x="434" y="681"/>
      <point x="423" y="710"/>
      <point x="405" y="721" type="curve"/>
      <point x="188" y="706" type="line"/>
      <point x="188" y="649" type="line"/>
      <point x="217" y="649"/>
      <point x="234" y="629"/>
      <point x="234" y="590" type="curve" smooth="yes"/>
      <point x="234" y="78" type="line" smooth="yes"/>
      <point x="234" y="40"/>
      <point x="245" y="17"/>
      <point x="263" y="0" type="curve"/>
      <point x="490" y="0" type="line"/>
      <point x="502" y="-46"/>
      <point x="535" y="-88"/>
    </contour>
    <component base="footmiddle" xOffset="-10" yOffset="486"/>
  </outline>
</glyph>
<glyph name="tee-ethiopic" format="2">
  <advance width="715"/>
  <unicode hex="1274"/>
  <note>
uni1274
</note>
  <anchor x="347" y="721" name="top"/>
  <outline>
    <contour>
      <point x="362" y="0" type="curve" smooth="yes"/>
      <point x="517" y="0" type="line" smooth="yes"/>
      <point x="639" y="0"/>
      <point x="695" y="59"/>
      <point x="695" y="135" type="curve" smooth="yes"/>
      <point x="695" y="207"/>
      <point x="645" y="240"/>
      <point x="535" y="240" type="curve" smooth="yes"/>
      <point x="435" y="240" type="line"/>
      <point x="435" y="650" type="line" smooth="yes"/>
      <point x="435" y="681"/>
      <point x="424" y="710"/>
      <point x="406" y="721" type="curve"/>
      <point x="189" y="706" type="line"/>
      <point x="189" y="649" type="line"/>
      <point x="218" y="649"/>
      <point x="235" y="629"/>
      <point x="235" y="590" type="curve" smooth="yes"/>
      <point x="235" y="118" type="line" smooth="yes"/>
      <point x="235" y="47"/>
      <point x="278" y="0"/>
    </contour>
    <contour>
      <point x="470" y="60" type="curve" smooth="yes"/>
      <point x="445" y="60"/>
      <point x="435" y="74"/>
      <point x="435" y="105" type="curve" smooth="yes"/>
      <point x="435" y="178" type="line"/>
      <point x="465" y="178" type="line" smooth="yes"/>
      <point x="509" y="178"/>
      <point x="521" y="156"/>
      <point x="521" y="125" type="curve" smooth="yes"/>
      <point x="521" y="89"/>
      <point x="501" y="60"/>
    </contour>
    <component base="footmiddle" xOffset="-10" yOffset="485"/>
  </outline>
</glyph>
<glyph name="twa-ethiopic" format="2">
  <advance width="708"/>
  <unicode hex="1277"/>
  <note>
uni1277
</note>
  <anchor x="354" y="721" name="top"/>
  <outline>
    <contour>
      <point x="279" y="6" type="curve"/>
      <point x="504" y="10" type="line"/>
      <point x="504" y="67" type="line"/>
      <point x="473" y="67"/>
      <point x="455" y="80"/>
      <point x="455" y="132" type="curve" smooth="yes"/>
      <point x="455" y="650" type="line" smooth="yes"/>
      <point x="455" y="681"/>
      <point x="444" y="710"/>
      <point x="426" y="721" type="curve"/>
      <point x="209" y="706" type="line"/>
      <point x="209" y="649" type="line"/>
      <point x="238" y="649"/>
      <point x="255" y="629"/>
      <point x="255" y="590" type="curve" smooth="yes"/>
      <point x="255" y="81" type="line" smooth="yes"/>
      <point x="255" y="43"/>
      <point x="267" y="19"/>
    </contour>
    <component base="footmiddle" xOffset="10" yOffset="432"/>
    <component base="footmiddle" xOffset="12"/>
  </outline>
</glyph>
<glyph name="ca-ethiopic" format="2">
	<advance width="706"/>
	<unicode hex="1278"/>
	<anchor x="353" y="848" name="top"/>
	<note>
		uni1278
	</note>
	<outline>
		<contour>
			<point x="284" y="-7" type="curve"/>
			<point x="504" y="9" type="line"/>
			<point x="504" y="69" type="line"/>
			<point x="473" y="69"/>
			<point x="455" y="83"/>
			<point x="455" y="140" type="curve" smooth="yes"/>
			<point x="455" y="730" type="line"/>
			<point x="255" y="730" type="line"/>
			<point x="255" y="76" type="line" smooth="yes"/>
			<point x="255" y="35"/>
			<point x="266" y="11"/>
		</contour>
		<component base="bonemiddle" xOffset="26" yOffset="14"/>
		<component base="footmiddle" xOffset="10" yOffset="441"/>
	</outline>
</glyph>
<glyph name="ci-ethiopic" format="2">
  <advance width="740"/>
  <unicode hex="127A"/>
  <note>
uni127A
</note>
  <anchor x="370" y="848" name="top"/>
  <outline>
    <contour>
      <point x="651" y="-88" type="curve" smooth="yes"/>
      <point x="675" y="-88"/>
      <point x="697" y="-84"/>
      <point x="710" y="-76" type="curve"/>
      <point x="689" y="-53"/>
      <point x="674" y="-12"/>
      <point x="674" y="34" type="curve" smooth="yes"/>
      <point x="674" y="80"/>
      <point x="689" y="120"/>
      <point x="710" y="143" type="curve"/>
      <point x="697" y="150"/>
      <point x="675" y="155"/>
      <point x="651" y="155" type="curve" smooth="yes"/>
      <point x="583" y="155"/>
      <point x="550" y="113"/>
      <point x="538" y="67" type="curve"/>
      <point x="513" y="67" type="line" smooth="yes"/>
      <point x="482" y="67"/>
      <point x="464" y="81"/>
      <point x="464" y="138" type="curve" smooth="yes"/>
      <point x="464" y="735" type="line"/>
      <point x="264" y="735" type="line"/>
      <point x="264" y="85" type="line" smooth="yes"/>
      <point x="264" y="44"/>
      <point x="275" y="18"/>
      <point x="289" y="0" type="curve"/>
      <point x="538" y="0" type="line"/>
      <point x="550" y="-46"/>
      <point x="583" y="-88"/>
    </contour>
    <component base="bonemiddle" xOffset="34" yOffset="14"/>
    <component base="footmiddle" xOffset="20" yOffset="444"/>
  </outline>
</glyph>
<glyph name="caa-ethiopic" format="2">
  <advance width="738"/>
  <unicode hex="127B"/>
  <note>
uni127B
</note>
  <anchor x="379" y="848" name="top"/>
  <outline>
    <contour>
      <point x="82" y="-129" type="curve" smooth="yes"/>
      <point x="149" y="-129"/>
      <point x="191" y="-92"/>
      <point x="191" y="-26" type="curve" smooth="yes"/>
      <point x="191" y="-12"/>
      <point x="190" y="-6"/>
      <point x="189" y="0" type="curve"/>
      <point x="198" y="0" type="line" smooth="yes"/>
      <point x="382" y="0"/>
      <point x="484" y="91"/>
      <point x="484" y="234" type="curve" smooth="yes"/>
      <point x="484" y="736" type="line"/>
      <point x="304" y="736" type="line"/>
      <point x="304" y="235" type="line" smooth="yes"/>
      <point x="304" y="117"/>
      <point x="253" y="67"/>
      <point x="148" y="67" type="curve" smooth="yes"/>
      <point x="43" y="67" type="line"/>
      <point x="50" y="42"/>
      <point x="55" y="15"/>
      <point x="55" y="-11" type="curve" smooth="yes"/>
      <point x="55" y="-51"/>
      <point x="49" y="-82"/>
      <point x="30" y="-120" type="curve"/>
      <point x="42" y="-125"/>
      <point x="60" y="-129"/>
    </contour>
    <component base="footmiddle" xOffset="52" yOffset="423"/>
    <component base="bonemiddle" xOffset="64" yOffset="14"/>
  </outline>
</glyph>
<glyph name="cee-ethiopic" format="2">
  <advance width="764"/>
  <unicode hex="127C"/>
  <note>
uni127C
</note>
  <anchor x="377" y="849" name="top"/>
  <outline>
    <contour>
      <point x="391" y="0" type="curve" smooth="yes"/>
      <point x="546" y="0" type="line" smooth="yes"/>
      <point x="668" y="0"/>
      <point x="724" y="59"/>
      <point x="724" y="135" type="curve" smooth="yes"/>
      <point x="724" y="207"/>
      <point x="674" y="240"/>
      <point x="564" y="240" type="curve" smooth="yes"/>
      <point x="464" y="240" type="line"/>
      <point x="464" y="740" type="line"/>
      <point x="264" y="740" type="line"/>
      <point x="264" y="118" type="line" smooth="yes"/>
      <point x="264" y="47"/>
      <point x="307" y="0"/>
    </contour>
    <contour>
      <point x="499" y="60" type="curve" smooth="yes"/>
      <point x="474" y="60"/>
      <point x="464" y="74"/>
      <point x="464" y="105" type="curve" smooth="yes"/>
      <point x="464" y="178" type="line"/>
      <point x="494" y="178" type="line" smooth="yes"/>
      <point x="538" y="178"/>
      <point x="550" y="156"/>
      <point x="550" y="125" type="curve" smooth="yes"/>
      <point x="550" y="89"/>
      <point x="530" y="60"/>
    </contour>
    <component base="bonemiddle" xOffset="35" yOffset="15"/>
    <component base="footmiddle" xOffset="20" yOffset="444"/>
  </outline>
</glyph>
<glyph name="ce-ethiopic" format="2">
  <advance width="780"/>
  <unicode hex="127D"/>
  <note>
uni127D
</note>
  <anchor x="378" y="849" name="top"/>
  <outline>
    <contour>
      <point x="331" y="-6" type="curve"/>
      <point x="551" y="9" type="line"/>
      <point x="551" y="66" type="line"/>
      <point x="520" y="66"/>
      <point x="502" y="79"/>
      <point x="502" y="123" type="curve" smooth="yes"/>
      <point x="502" y="187"/>
      <point x="563" y="408"/>
      <point x="563" y="469" type="curve" smooth="yes"/>
      <point x="563" y="523"/>
      <point x="529" y="558"/>
      <point x="453" y="558" type="curve" smooth="yes"/>
      <point x="407" y="558" type="line"/>
      <point x="407" y="761" type="line"/>
      <point x="207" y="761" type="line"/>
      <point x="207" y="487" type="line"/>
      <point x="284" y="487" type="line" smooth="yes"/>
      <point x="334" y="487"/>
      <point x="362" y="472"/>
      <point x="362" y="424" type="curve" smooth="yes"/>
      <point x="362" y="370"/>
      <point x="302" y="138"/>
      <point x="302" y="72" type="curve" smooth="yes"/>
      <point x="302" y="34"/>
      <point x="313" y="11"/>
    </contour>
    <component base="footmiddle" xOffset="94" yOffset="311"/>
    <component base="bone.alt" yOffset="19"/>
  </outline>
</glyph>
<glyph name="co-ethiopic" format="2">
  <advance width="810"/>
  <unicode hex="127E"/>
  <note>
uni127E
</note>
  <anchor x="405" y="907" name="top"/>
  <outline>
    <contour>
      <point x="246" y="711" type="line"/>
      <point x="609" y="711" type="line"/>
      <point x="609" y="778" type="line"/>
      <point x="246" y="778" type="line"/>
    </contour>
    <contour>
      <point x="748" y="907" type="curve" smooth="yes"/>
      <point x="681" y="907"/>
      <point x="639" y="870"/>
      <point x="639" y="804" type="curve" smooth="yes"/>
      <point x="639" y="790"/>
      <point x="640" y="784"/>
      <point x="641" y="778" type="curve"/>
      <point x="506" y="778" type="line"/>
      <point x="506" y="711" type="line"/>
      <point x="787" y="711" type="line"/>
      <point x="780" y="736"/>
      <point x="775" y="763"/>
      <point x="775" y="789" type="curve" smooth="yes"/>
      <point x="775" y="829"/>
      <point x="781" y="860"/>
      <point x="800" y="898" type="curve"/>
      <point x="788" y="903"/>
      <point x="770" y="907"/>
    </contour>
    <component base="to-ethiopic" xOffset="86"/>
    <component base="leftdoubleflag" yOffset="711"/>
  </outline>
</glyph>
<glyph name="cwa-ethiopic" format="2">
  <advance width="717"/>
  <unicode hex="127F"/>
  <note>
uni127F
</note>
  <anchor x="358" y="848" name="top"/>
  <outline>
    <contour>
      <point x="288" y="6" type="curve"/>
      <point x="508" y="9" type="line"/>
      <point x="508" y="67" type="line"/>
      <point x="477" y="67"/>
      <point x="459" y="81"/>
      <point x="459" y="138" type="curve" smooth="yes"/>
      <point x="459" y="735" type="line"/>
      <point x="259" y="735" type="line"/>
      <point x="259" y="76" type="line" smooth="yes"/>
      <point x="259" y="48"/>
      <point x="270" y="24"/>
    </contour>
    <component base="bonemiddle" xOffset="29" yOffset="14"/>
    <component base="footmiddle" xOffset="15" yOffset="448"/>
    <component base="footmiddle" xOffset="16"/>
  </outline>
</glyph>
<glyph name="xaa-ethiopic" format="2">
  <advance width="648"/>
  <unicode hex="1283"/>
  <note>
uni1283
</note>
  <anchor x="294" y="721" name="top"/>
  <outline>
    <contour>
      <point x="141" y="-129" type="curve" smooth="yes"/>
      <point x="208" y="-129"/>
      <point x="250" y="-92"/>
      <point x="250" y="-26" type="curve" smooth="yes"/>
      <point x="250" y="-12"/>
      <point x="249" y="-6"/>
      <point x="248" y="0" type="curve"/>
      <point x="257" y="0" type="line" smooth="yes"/>
      <point x="451" y="0"/>
      <point x="588" y="111"/>
      <point x="588" y="284" type="curve" smooth="yes"/>
      <point x="588" y="457" type="line" smooth="yes"/>
      <point x="588" y="521"/>
      <point x="554" y="556"/>
      <point x="478" y="556" type="curve" smooth="yes"/>
      <point x="432" y="556" type="line"/>
      <point x="432" y="650" type="line" smooth="yes"/>
      <point x="432" y="681"/>
      <point x="421" y="710"/>
      <point x="403" y="721" type="curve"/>
      <point x="186" y="706" type="line"/>
      <point x="186" y="649" type="line"/>
      <point x="215" y="649"/>
      <point x="232" y="629"/>
      <point x="232" y="590" type="curve" smooth="yes"/>
      <point x="232" y="472" type="line"/>
      <point x="309" y="472" type="line" smooth="yes"/>
      <point x="359" y="472"/>
      <point x="387" y="457"/>
      <point x="387" y="409" type="curve" smooth="yes"/>
      <point x="387" y="285" type="line" smooth="yes"/>
      <point x="387" y="124"/>
      <point x="322" y="67"/>
      <point x="207" y="67" type="curve" smooth="yes"/>
      <point x="102" y="67" type="line"/>
      <point x="109" y="42"/>
      <point x="114" y="15"/>
      <point x="114" y="-11" type="curve" smooth="yes"/>
      <point x="114" y="-51"/>
      <point x="108" y="-82"/>
      <point x="89" y="-120" type="curve"/>
      <point x="101" y="-125"/>
      <point x="119" y="-129"/>
    </contour>
    <component base="leftsingleflag" xOffset="-10" yOffset="179"/>
  </outline>
</glyph>
<glyph name="xe-ethiopic" format="2">
	<advance width="668"/>
	<unicode hex="1285"/>
	<anchor x="309" y="721" name="top"/>
	<note>
		uni1285
	</note>
	<outline>
		<contour>
			<point x="27" y="278" type="curve"/>
			<point x="244" y="293" type="line"/>
			<point x="244" y="350" type="line"/>
			<point x="213" y="350"/>
			<point x="189" y="370"/>
			<point x="189" y="417" type="curve" smooth="yes"/>
			<point x="189" y="466"/>
			<point x="206" y="520"/>
			<point x="278" y="548" type="curve"/>
			<point x="270" y="609" type="line"/>
			<point x="104" y="590"/>
			<point x="10" y="499"/>
			<point x="10" y="371" type="curve" smooth="yes"/>
			<point x="10" y="330"/>
			<point x="19" y="296"/>
		</contour>
		<component base="na-ethiopic" xOffset="196"/>
	</outline>
</glyph>
<glyph name="xwaa-ethiopic" format="2">
  <advance width="752"/>
  <unicode hex="128B"/>
  <note>
uni128B
</note>
  <anchor x="371" y="721" name="top"/>
  <outline>
    <contour>
      <point x="383" y="147" type="curve"/>
      <point x="603" y="156" type="line"/>
      <point x="603" y="213" type="line"/>
      <point x="572" y="213"/>
      <point x="554" y="226"/>
      <point x="554" y="270" type="curve" smooth="yes"/>
      <point x="554" y="307"/>
      <point x="595" y="420"/>
      <point x="595" y="457" type="curve" smooth="yes"/>
      <point x="595" y="521"/>
      <point x="561" y="556"/>
      <point x="485" y="556" type="curve" smooth="yes"/>
      <point x="439" y="556" type="line"/>
      <point x="439" y="650" type="line" smooth="yes"/>
      <point x="439" y="681"/>
      <point x="428" y="710"/>
      <point x="410" y="721" type="curve"/>
      <point x="193" y="706" type="line"/>
      <point x="193" y="649" type="line"/>
      <point x="222" y="649"/>
      <point x="239" y="629"/>
      <point x="239" y="590" type="curve" smooth="yes"/>
      <point x="239" y="472" type="line"/>
      <point x="316" y="472" type="line" smooth="yes"/>
      <point x="366" y="472"/>
      <point x="394" y="457"/>
      <point x="394" y="409" type="curve" smooth="yes"/>
      <point x="394" y="378"/>
      <point x="354" y="263"/>
      <point x="354" y="225" type="curve" smooth="yes"/>
      <point x="354" y="187"/>
      <point x="365" y="164"/>
    </contour>
    <contour>
      <point x="280" y="146" type="line"/>
      <point x="696" y="146" type="line"/>
      <point x="696" y="213" type="line"/>
      <point x="280" y="213" type="line"/>
    </contour>
    <contour>
      <point x="595" y="-7" type="curve"/>
      <point x="742" y="8" type="line"/>
      <point x="742" y="65" type="line"/>
      <point x="713" y="65"/>
      <point x="696" y="85"/>
      <point x="696" y="124" type="curve" smooth="yes"/>
      <point x="696" y="213" type="line"/>
      <point x="566" y="213" type="line"/>
      <point x="566" y="64" type="line" smooth="yes"/>
      <point x="566" y="33"/>
      <point x="577" y="4"/>
    </contour>
    <component base="leftsingleflag" xOffset="33" yOffset="-206"/>
    <component base="leftsingleflag" xOffset="-10" yOffset="179"/>
  </outline>
</glyph>
<glyph name="xwee-ethiopic" format="2">
	<advance width="793"/>
	<unicode hex="128C"/>
	<anchor x="386" y="721" name="top"/>
	<note>
		uni128C
	</note>
	<outline>
		<contour>
			<point x="314" y="0" type="line"/>
			<point x="519" y="0" type="line"/>
			<point x="459" y="67" type="line"/>
			<point x="314" y="67" type="line"/>
		</contour>
		<component base="xee-ethiopic"/>
		<component base="leftsingleflag" xOffset="71" yOffset="-352"/>
	</outline>
</glyph>
<glyph name="na-ethiopic" format="2">
  <advance width="472"/>
  <unicode hex="1290"/>
  <note>
uni1290
</note>
  <anchor x="211" y="721" name="top"/>
  <outline>
    <contour>
      <point x="176" y="-7" type="curve"/>
      <point x="400" y="8" type="line"/>
      <point x="400" y="65" type="line"/>
      <point x="369" y="65"/>
      <point x="351" y="78"/>
      <point x="351" y="122" type="curve" smooth="yes"/>
      <point x="351" y="186"/>
      <point x="412" y="388"/>
      <point x="412" y="452" type="curve" smooth="yes"/>
      <point x="412" y="511"/>
      <point x="378" y="546"/>
      <point x="302" y="546" type="curve" smooth="yes"/>
      <point x="256" y="546" type="line"/>
      <point x="256" y="650" type="line" smooth="yes"/>
      <point x="256" y="681"/>
      <point x="245" y="710"/>
      <point x="227" y="721" type="curve"/>
      <point x="10" y="706" type="line"/>
      <point x="10" y="649" type="line"/>
      <point x="39" y="649"/>
      <point x="56" y="629"/>
      <point x="56" y="590" type="curve" smooth="yes"/>
      <point x="56" y="475" type="line"/>
      <point x="133" y="475" type="line" smooth="yes"/>
      <point x="183" y="475"/>
      <point x="211" y="460"/>
      <point x="211" y="412" type="curve" smooth="yes"/>
      <point x="211" y="358"/>
      <point x="147" y="157"/>
      <point x="147" y="78" type="curve" smooth="yes"/>
      <point x="147" y="33"/>
      <point x="158" y="10"/>
    </contour>
  </outline>
</glyph>
<glyph name="ni-ethiopic" format="2">
  <advance width="627"/>
  <unicode hex="1292"/>
  <note>
uni1292
</note>
  <anchor x="313" y="721" name="top"/>
  <outline>
    <contour>
      <point x="180" y="0" type="curve"/>
      <point x="400" y="0" type="line"/>
      <point x="400" y="67" type="line"/>
      <point x="369" y="67"/>
      <point x="351" y="80"/>
      <point x="351" y="122" type="curve" smooth="yes"/>
      <point x="351" y="186"/>
      <point x="412" y="388"/>
      <point x="412" y="452" type="curve" smooth="yes"/>
      <point x="412" y="511"/>
      <point x="378" y="546"/>
      <point x="302" y="546" type="curve" smooth="yes"/>
      <point x="256" y="546" type="line"/>
      <point x="256" y="650" type="line" smooth="yes"/>
      <point x="256" y="681"/>
      <point x="245" y="710"/>
      <point x="227" y="721" type="curve"/>
      <point x="10" y="706" type="line"/>
      <point x="10" y="649" type="line"/>
      <point x="39" y="649"/>
      <point x="56" y="629"/>
      <point x="56" y="590" type="curve" smooth="yes"/>
      <point x="56" y="475" type="line"/>
      <point x="133" y="475" type="line" smooth="yes"/>
      <point x="183" y="475"/>
      <point x="211" y="460"/>
      <point x="211" y="412" type="curve" smooth="yes"/>
      <point x="211" y="358"/>
      <point x="151" y="147"/>
      <point x="151" y="78" type="curve" smooth="yes"/>
      <point x="151" y="44"/>
      <point x="162" y="17"/>
    </contour>
    <component base="rightdoubleflag" xOffset="334"/>
  </outline>
</glyph>
<glyph name="naa-ethiopic" format="2">
  <advance width="581"/>
  <unicode hex="1293"/>
  <note>
uni1293
</note>
  <anchor x="290" y="714" name="top"/>
  <outline>
    <contour>
      <point x="334" y="-7" type="curve"/>
      <point x="571" y="8" type="line"/>
      <point x="571" y="69" type="line"/>
      <point x="530" y="69"/>
      <point x="512" y="83"/>
      <point x="512" y="142" type="curve" smooth="yes"/>
      <point x="512" y="203" type="line" smooth="yes"/>
      <point x="512" y="309"/>
      <point x="439" y="365"/>
      <point x="333" y="365" type="curve" smooth="yes"/>
      <point x="220" y="365" type="line"/>
      <point x="220" y="545"/>
      <point x="275" y="647"/>
      <point x="386" y="647" type="curve" smooth="yes"/>
      <point x="397" y="647" type="line"/>
      <point x="396" y="641"/>
      <point x="395" y="635"/>
      <point x="395" y="621" type="curve" smooth="yes"/>
      <point x="395" y="555"/>
      <point x="437" y="518"/>
      <point x="504" y="518" type="curve" smooth="yes"/>
      <point x="526" y="518"/>
      <point x="544" y="522"/>
      <point x="556" y="527" type="curve"/>
      <point x="537" y="565"/>
      <point x="531" y="596"/>
      <point x="531" y="636" type="curve" smooth="yes"/>
      <point x="531" y="662"/>
      <point x="536" y="689"/>
      <point x="543" y="714" type="curve"/>
      <point x="375" y="714" type="line" smooth="yes"/>
      <point x="131" y="714"/>
      <point x="10" y="580"/>
      <point x="10" y="320" type="curve" smooth="yes"/>
      <point x="10" y="287" type="line"/>
      <point x="229" y="287" type="line" smooth="yes"/>
      <point x="293" y="287"/>
      <point x="313" y="254"/>
      <point x="313" y="175" type="curve" smooth="yes"/>
      <point x="313" y="91" type="line" smooth="yes"/>
      <point x="313" y="46"/>
      <point x="321" y="15"/>
    </contour>
  </outline>
</glyph>
<glyph name="nee-ethiopic" format="2">
  <advance width="606"/>
  <unicode hex="1294"/>
  <note>
uni1294
</note>
  <anchor x="298" y="721" name="top"/>
  <outline>
    <contour>
      <point x="263" y="0" type="curve"/>
      <point x="400" y="0" type="line" smooth="yes"/>
      <point x="527" y="0"/>
      <point x="586" y="68"/>
      <point x="586" y="155" type="curve" smooth="yes"/>
      <point x="586" y="241"/>
      <point x="542" y="279"/>
      <point x="428" y="279" type="curve" smooth="yes"/>
      <point x="355" y="279" type="line"/>
      <point x="371" y="312" type="line" smooth="yes"/>
      <point x="391" y="353"/>
      <point x="414" y="401"/>
      <point x="414" y="453" type="curve" smooth="yes"/>
      <point x="414" y="517"/>
      <point x="378" y="556"/>
      <point x="302" y="556" type="curve" smooth="yes"/>
      <point x="256" y="556" type="line"/>
      <point x="256" y="650" type="line" smooth="yes"/>
      <point x="256" y="681"/>
      <point x="245" y="710"/>
      <point x="227" y="721" type="curve"/>
      <point x="10" y="706" type="line"/>
      <point x="10" y="649" type="line"/>
      <point x="39" y="649"/>
      <point x="56" y="629"/>
      <point x="56" y="590" type="curve" smooth="yes"/>
      <point x="56" y="472" type="line"/>
      <point x="138" y="472" type="line" smooth="yes"/>
      <point x="188" y="472"/>
      <point x="211" y="454"/>
      <point x="211" y="415" type="curve" smooth="yes"/>
      <point x="211" y="383"/>
      <point x="194" y="349"/>
      <point x="175" y="308" type="curve" smooth="yes"/>
      <point x="144" y="242" type="line" smooth="yes"/>
      <point x="127" y="205"/>
      <point x="118" y="168"/>
      <point x="118" y="142" type="curve" smooth="yes"/>
      <point x="118" y="50"/>
      <point x="175" y="8"/>
    </contour>
    <contour>
      <point x="348" y="67" type="curve" smooth="yes"/>
      <point x="315" y="67"/>
      <point x="299" y="89"/>
      <point x="299" y="127" type="curve" smooth="yes"/>
      <point x="299" y="151"/>
      <point x="309" y="181"/>
      <point x="322" y="212" type="curve"/>
      <point x="344" y="212" type="line" smooth="yes"/>
      <point x="396" y="212"/>
      <point x="410" y="186"/>
      <point x="410" y="148" type="curve" smooth="yes"/>
      <point x="410" y="100"/>
      <point x="384" y="67"/>
    </contour>
  </outline>
</glyph>
<glyph name="ne-ethiopic" format="2">
  <advance width="665"/>
  <unicode hex="1295"/>
  <note>
uni1295
</note>
  <anchor x="307" y="714" name="top"/>
  <outline>
    <contour>
      <point x="373" y="-7" type="curve"/>
      <point x="593" y="8" type="line"/>
      <point x="593" y="65" type="line"/>
      <point x="562" y="65"/>
      <point x="544" y="78"/>
      <point x="544" y="122" type="curve" smooth="yes"/>
      <point x="544" y="186"/>
      <point x="605" y="383"/>
      <point x="605" y="452" type="curve" smooth="yes"/>
      <point x="605" y="511"/>
      <point x="571" y="546"/>
      <point x="495" y="546" type="curve" smooth="yes"/>
      <point x="449" y="546" type="line"/>
      <point x="449" y="586" type="line" smooth="yes"/>
      <point x="449" y="664"/>
      <point x="400" y="714"/>
      <point x="275" y="714" type="curve" smooth="yes"/>
      <point x="23" y="714" type="line"/>
      <point x="30" y="689"/>
      <point x="35" y="662"/>
      <point x="35" y="636" type="curve" smooth="yes"/>
      <point x="35" y="596"/>
      <point x="29" y="565"/>
      <point x="10" y="527" type="curve"/>
      <point x="22" y="522"/>
      <point x="40" y="518"/>
      <point x="62" y="518" type="curve" smooth="yes"/>
      <point x="129" y="518"/>
      <point x="171" y="555"/>
      <point x="171" y="621" type="curve" smooth="yes"/>
      <point x="171" y="635"/>
      <point x="170" y="641"/>
      <point x="169" y="647" type="curve"/>
      <point x="186" y="647" type="line" smooth="yes"/>
      <point x="227" y="647"/>
      <point x="249" y="628"/>
      <point x="249" y="567" type="curve" smooth="yes"/>
      <point x="249" y="475" type="line"/>
      <point x="326" y="475" type="line" smooth="yes"/>
      <point x="376" y="475"/>
      <point x="404" y="460"/>
      <point x="404" y="409" type="curve" smooth="yes"/>
      <point x="404" y="355"/>
      <point x="344" y="139"/>
      <point x="344" y="71" type="curve" smooth="yes"/>
      <point x="344" y="33"/>
      <point x="355" y="10"/>
    </contour>
  </outline>
</glyph>
<glyph name="no-ethiopic" format="2">
  <advance width="726"/>
  <unicode hex="1296"/>
  <note>
uni1296
</note>
  <anchor x="358" y="714" name="top"/>
  <outline>
    <contour>
      <point x="334" y="-7" type="curve"/>
      <point x="571" y="8" type="line"/>
      <point x="571" y="69" type="line"/>
      <point x="530" y="69"/>
      <point x="512" y="83"/>
      <point x="512" y="142" type="curve" smooth="yes"/>
      <point x="512" y="219" type="line" smooth="yes"/>
      <point x="512" y="315"/>
      <point x="439" y="365"/>
      <point x="333" y="365" type="curve" smooth="yes"/>
      <point x="220" y="365" type="line"/>
      <point x="220" y="385" type="line" smooth="yes"/>
      <point x="220" y="582"/>
      <point x="285" y="647"/>
      <point x="366" y="647" type="curve" smooth="yes"/>
      <point x="374" y="647" type="line"/>
      <point x="541" y="714" type="line"/>
      <point x="356" y="714" type="line" smooth="yes"/>
      <point x="162" y="714"/>
      <point x="10" y="595"/>
      <point x="10" y="315" type="curve" smooth="yes"/>
      <point x="10" y="287" type="line"/>
      <point x="229" y="287" type="line" smooth="yes"/>
      <point x="293" y="287"/>
      <point x="313" y="260"/>
      <point x="313" y="191" type="curve" smooth="yes"/>
      <point x="313" y="91" type="line" smooth="yes"/>
      <point x="313" y="46"/>
      <point x="321" y="15"/>
    </contour>
    <component base="ballsmall" xOffset="298" yOffset="298"/>
  </outline>
</glyph>
<glyph name="nwa-ethiopic" format="2">
  <advance width="711"/>
  <unicode hex="1297"/>
  <note>
uni1297
</note>
  <anchor x="368" y="714" name="top"/>
  <outline>
    <contour>
      <point x="299" y="37" type="line"/>
      <point x="498" y="37" type="line"/>
      <point x="498" y="203" type="line" smooth="yes"/>
      <point x="498" y="309"/>
      <point x="425" y="365"/>
      <point x="319" y="365" type="curve" smooth="yes"/>
      <point x="246" y="365" type="line"/>
      <point x="246" y="545"/>
      <point x="301" y="647"/>
      <point x="412" y="647" type="curve" smooth="yes"/>
      <point x="423" y="647" type="line"/>
      <point x="422" y="641"/>
      <point x="421" y="635"/>
      <point x="421" y="621" type="curve" smooth="yes"/>
      <point x="421" y="555"/>
      <point x="463" y="518"/>
      <point x="530" y="518" type="curve" smooth="yes"/>
      <point x="552" y="518"/>
      <point x="570" y="522"/>
      <point x="582" y="527" type="curve"/>
      <point x="563" y="565"/>
      <point x="557" y="596"/>
      <point x="557" y="636" type="curve" smooth="yes"/>
      <point x="557" y="662"/>
      <point x="562" y="689"/>
      <point x="569" y="714" type="curve"/>
      <point x="401" y="714" type="line" smooth="yes"/>
      <point x="157" y="714"/>
      <point x="36" y="580"/>
      <point x="36" y="320" type="curve" smooth="yes"/>
      <point x="36" y="287" type="line"/>
      <point x="215" y="287" type="line" smooth="yes"/>
      <point x="279" y="287"/>
      <point x="299" y="254"/>
      <point x="299" y="175" type="curve" smooth="yes"/>
    </contour>
    <component base="footmiddle" xOffset="25"/>
  </outline>
</glyph>
<glyph name="nya-ethiopic" format="2">
  <advance width="680"/>
  <unicode hex="1298"/>
  <note>
uni1298
</note>
  <anchor x="330" y="802" name="top"/>
  <outline>
    <contour>
      <point x="354" y="-6" type="curve"/>
      <point x="574" y="9" type="line"/>
      <point x="574" y="66" type="line"/>
      <point x="543" y="66"/>
      <point x="525" y="79"/>
      <point x="525" y="123" type="curve" smooth="yes"/>
      <point x="525" y="187"/>
      <point x="586" y="368"/>
      <point x="586" y="429" type="curve" smooth="yes"/>
      <point x="586" y="483"/>
      <point x="552" y="518"/>
      <point x="476" y="518" type="curve" smooth="yes"/>
      <point x="430" y="518" type="line"/>
      <point x="430" y="687" type="line"/>
      <point x="230" y="687" type="line"/>
      <point x="230" y="447" type="line"/>
      <point x="307" y="447" type="line" smooth="yes"/>
      <point x="357" y="447"/>
      <point x="385" y="432"/>
      <point x="385" y="384" type="curve" smooth="yes"/>
      <point x="385" y="330"/>
      <point x="325" y="138"/>
      <point x="325" y="72" type="curve" smooth="yes"/>
      <point x="325" y="34"/>
      <point x="336" y="11"/>
    </contour>
    <component base="bonemiddle" yOffset="-32"/>
  </outline>
</glyph>
<glyph name="nyi-ethiopic" format="2">
  <advance width="794"/>
  <unicode hex="129A"/>
  <note>
uni129A
</note>
  <anchor x="397" y="802" name="top"/>
  <outline>
    <contour>
      <point x="354" y="0" type="curve"/>
      <point x="574" y="0" type="line"/>
      <point x="574" y="67" type="line"/>
      <point x="543" y="67"/>
      <point x="525" y="80"/>
      <point x="525" y="123" type="curve" smooth="yes"/>
      <point x="525" y="187"/>
      <point x="586" y="368"/>
      <point x="586" y="429" type="curve" smooth="yes"/>
      <point x="586" y="483"/>
      <point x="552" y="518"/>
      <point x="476" y="518" type="curve" smooth="yes"/>
      <point x="430" y="518" type="line"/>
      <point x="430" y="667" type="line"/>
      <point x="230" y="667" type="line"/>
      <point x="230" y="447" type="line"/>
      <point x="307" y="447" type="line" smooth="yes"/>
      <point x="357" y="447"/>
      <point x="385" y="432"/>
      <point x="385" y="384" type="curve" smooth="yes"/>
      <point x="385" y="330"/>
      <point x="325" y="144"/>
      <point x="325" y="78" type="curve" smooth="yes"/>
      <point x="325" y="40"/>
      <point x="336" y="17"/>
    </contour>
    <component base="rightdoubleflag" xOffset="501"/>
    <component base="bonemiddle" yOffset="-32"/>
  </outline>
</glyph>
<glyph name="nyaa-ethiopic" format="2">
  <advance width="660"/>
  <unicode hex="129B"/>
  <note>
uni129B
</note>
  <anchor x="330" y="802" name="top"/>
  <outline>
    <contour>
      <point x="340" y="-7" type="curve"/>
      <point x="581" y="8" type="line"/>
      <point x="581" y="69" type="line"/>
      <point x="540" y="69"/>
      <point x="522" y="83"/>
      <point x="522" y="122" type="curve" smooth="yes"/>
      <point x="522" y="143" type="line" smooth="yes"/>
      <point x="522" y="215"/>
      <point x="449" y="271"/>
      <point x="343" y="271" type="curve" smooth="yes"/>
      <point x="230" y="271" type="line"/>
      <point x="230" y="358"/>
      <point x="285" y="460"/>
      <point x="396" y="460" type="curve" smooth="yes"/>
      <point x="407" y="460" type="line"/>
      <point x="406" y="454"/>
      <point x="405" y="448"/>
      <point x="405" y="434" type="curve" smooth="yes"/>
      <point x="405" y="368"/>
      <point x="447" y="331"/>
      <point x="514" y="331" type="curve" smooth="yes"/>
      <point x="536" y="331"/>
      <point x="554" y="335"/>
      <point x="566" y="340" type="curve"/>
      <point x="547" y="378"/>
      <point x="541" y="409"/>
      <point x="541" y="449" type="curve" smooth="yes"/>
      <point x="541" y="475"/>
      <point x="546" y="502"/>
      <point x="553" y="527" type="curve"/>
      <point x="385" y="527" type="line" smooth="yes"/>
      <point x="141" y="527"/>
      <point x="20" y="393"/>
      <point x="20" y="226" type="curve" smooth="yes"/>
      <point x="20" y="193" type="line"/>
      <point x="239" y="193" type="line" smooth="yes"/>
      <point x="303" y="193"/>
      <point x="323" y="160"/>
      <point x="323" y="115" type="curve" smooth="yes"/>
      <point x="323" y="91" type="line" smooth="yes"/>
      <point x="323" y="43"/>
      <point x="328" y="13"/>
    </contour>
    <contour>
      <point x="246" y="489" type="line"/>
      <point x="415" y="489" type="line"/>
      <point x="415" y="661" type="line"/>
      <point x="246" y="661" type="line"/>
    </contour>
    <component base="bonemiddle" yOffset="-32"/>
  </outline>
</glyph>
<glyph name="nyee-ethiopic" format="2">
  <advance width="782"/>
  <unicode hex="129C"/>
  <note>
uni129C
</note>
  <anchor x="386" y="802" name="top"/>
  <outline>
    <contour>
      <point x="439" y="0" type="curve"/>
      <point x="576" y="0" type="line" smooth="yes"/>
      <point x="703" y="0"/>
      <point x="762" y="68"/>
      <point x="762" y="155" type="curve" smooth="yes"/>
      <point x="762" y="241"/>
      <point x="718" y="279"/>
      <point x="604" y="279" type="curve" smooth="yes"/>
      <point x="531" y="279" type="line"/>
      <point x="547" y="312" type="line" smooth="yes"/>
      <point x="566" y="351"/>
      <point x="590" y="392"/>
      <point x="590" y="444" type="curve" smooth="yes"/>
      <point x="590" y="508"/>
      <point x="554" y="547"/>
      <point x="478" y="547" type="curve" smooth="yes"/>
      <point x="432" y="547" type="line"/>
      <point x="432" y="681" type="line"/>
      <point x="232" y="681" type="line"/>
      <point x="232" y="463" type="line"/>
      <point x="314" y="463" type="line" smooth="yes"/>
      <point x="364" y="463"/>
      <point x="387" y="445"/>
      <point x="387" y="406" type="curve" smooth="yes"/>
      <point x="387" y="374"/>
      <point x="369" y="347"/>
      <point x="351" y="308" type="curve" smooth="yes"/>
      <point x="320" y="242" type="line" smooth="yes"/>
      <point x="303" y="205"/>
      <point x="294" y="168"/>
      <point x="294" y="142" type="curve" smooth="yes"/>
      <point x="294" y="50"/>
      <point x="351" y="8"/>
    </contour>
    <contour>
      <point x="524" y="67" type="curve" smooth="yes"/>
      <point x="491" y="67"/>
      <point x="475" y="89"/>
      <point x="475" y="127" type="curve" smooth="yes"/>
      <point x="475" y="151"/>
      <point x="485" y="181"/>
      <point x="498" y="212" type="curve"/>
      <point x="520" y="212" type="line" smooth="yes"/>
      <point x="572" y="212"/>
      <point x="586" y="186"/>
      <point x="586" y="148" type="curve" smooth="yes"/>
      <point x="586" y="100"/>
      <point x="560" y="67"/>
    </contour>
    <component base="bonemiddle" yOffset="-32"/>
  </outline>
</glyph>
<glyph name="nye-ethiopic" format="2">
  <advance width="674"/>
  <unicode hex="129D"/>
  <note>
uni129D
</note>
  <anchor x="312" y="843" name="top"/>
  <outline>
    <contour>
      <point x="394" y="-7" type="curve"/>
      <point x="614" y="8" type="line"/>
      <point x="614" y="65" type="line"/>
      <point x="583" y="65"/>
      <point x="565" y="78"/>
      <point x="565" y="112" type="curve" smooth="yes"/>
      <point x="565" y="156"/>
      <point x="605" y="237"/>
      <point x="605" y="296" type="curve" smooth="yes"/>
      <point x="605" y="352"/>
      <point x="571" y="380"/>
      <point x="495" y="380" type="curve" smooth="yes"/>
      <point x="449" y="380" type="line"/>
      <point x="449" y="407" type="line" smooth="yes"/>
      <point x="449" y="485"/>
      <point x="400" y="535"/>
      <point x="275" y="535" type="curve" smooth="yes"/>
      <point x="23" y="535" type="line"/>
      <point x="30" y="510"/>
      <point x="35" y="483"/>
      <point x="35" y="457" type="curve" smooth="yes"/>
      <point x="35" y="417"/>
      <point x="29" y="386"/>
      <point x="10" y="348" type="curve"/>
      <point x="22" y="343"/>
      <point x="40" y="339"/>
      <point x="62" y="339" type="curve" smooth="yes"/>
      <point x="129" y="339"/>
      <point x="171" y="376"/>
      <point x="171" y="442" type="curve" smooth="yes"/>
      <point x="171" y="456"/>
      <point x="170" y="462"/>
      <point x="169" y="468" type="curve"/>
      <point x="186" y="468" type="line" smooth="yes"/>
      <point x="227" y="468"/>
      <point x="249" y="449"/>
      <point x="249" y="388" type="curve" smooth="yes"/>
      <point x="249" y="309" type="line"/>
      <point x="326" y="309" type="line" smooth="yes"/>
      <point x="376" y="309"/>
      <point x="404" y="294"/>
      <point x="404" y="249" type="curve" smooth="yes"/>
      <point x="404" y="205"/>
      <point x="365" y="122"/>
      <point x="365" y="67" type="curve" smooth="yes"/>
      <point x="365" y="29"/>
      <point x="376" y="10"/>
    </contour>
    <contour>
      <point x="192" y="479" type="line"/>
      <point x="372" y="479" type="line"/>
      <point x="372" y="670" type="line"/>
      <point x="192" y="670" type="line"/>
    </contour>
    <contour>
      <point x="496" y="843" type="curve" smooth="yes"/>
      <point x="429" y="843"/>
      <point x="387" y="806"/>
      <point x="387" y="740" type="curve" smooth="yes"/>
      <point x="387" y="726"/>
      <point x="388" y="720"/>
      <point x="389" y="714" type="curve"/>
      <point x="169" y="714" type="line"/>
      <point x="170" y="720"/>
      <point x="171" y="726"/>
      <point x="171" y="740" type="curve" smooth="yes"/>
      <point x="171" y="806"/>
      <point x="129" y="843"/>
      <point x="62" y="843" type="curve" smooth="yes"/>
      <point x="40" y="843"/>
      <point x="22" y="839"/>
      <point x="10" y="834" type="curve"/>
      <point x="29" y="796"/>
      <point x="35" y="765"/>
      <point x="35" y="725" type="curve" smooth="yes"/>
      <point x="35" y="699"/>
      <point x="30" y="672"/>
      <point x="23" y="647" type="curve"/>
      <point x="535" y="647" type="line"/>
      <point x="528" y="672"/>
      <point x="523" y="699"/>
      <point x="523" y="725" type="curve" smooth="yes"/>
      <point x="523" y="765"/>
      <point x="529" y="796"/>
      <point x="548" y="834" type="curve"/>
      <point x="536" y="839"/>
      <point x="518" y="843"/>
    </contour>
  </outline>
</glyph>
<glyph name="nyo-ethiopic" format="2">
  <advance width="741"/>
  <unicode hex="129E"/>
  <note>
uni129E
</note>
  <anchor x="365" y="848" name="top"/>
  <outline>
    <contour>
      <point x="334" y="-7" type="curve"/>
      <point x="571" y="8" type="line"/>
      <point x="571" y="69" type="line"/>
      <point x="530" y="69"/>
      <point x="512" y="83"/>
      <point x="512" y="122" type="curve" smooth="yes"/>
      <point x="512" y="155" type="line" smooth="yes"/>
      <point x="512" y="222"/>
      <point x="481" y="261"/>
      <point x="387" y="261" type="curve" smooth="yes"/>
      <point x="220" y="261" type="line"/>
      <point x="220" y="373"/>
      <point x="239" y="497"/>
      <point x="369" y="497" type="curve"/>
      <point x="542" y="575" type="line"/>
      <point x="375" y="575" type="line" smooth="yes"/>
      <point x="131" y="575"/>
      <point x="10" y="441"/>
      <point x="10" y="216" type="curve" smooth="yes"/>
      <point x="10" y="183" type="line"/>
      <point x="254" y="183" type="line" smooth="yes"/>
      <point x="298" y="183"/>
      <point x="313" y="163"/>
      <point x="313" y="118" type="curve" smooth="yes"/>
      <point x="313" y="91" type="line" smooth="yes"/>
      <point x="313" y="46"/>
      <point x="321" y="15"/>
    </contour>
    <contour>
      <point x="288" y="517" type="line"/>
      <point x="468" y="517" type="line"/>
      <point x="468" y="707" type="line"/>
      <point x="288" y="707" type="line"/>
    </contour>
    <component base="bonemiddle" xOffset="46" yOffset="14"/>
    <component base="ballsmall" xOffset="313" yOffset="159"/>
  </outline>
</glyph>
<glyph name="nywa-ethiopic" format="2">
  <advance width="706"/>
  <unicode hex="129F"/>
  <note>
uni129F
</note>
  <anchor x="363" y="848" name="top"/>
  <outline>
    <contour>
      <point x="352" y="1" type="curve"/>
      <point x="593" y="6" type="line"/>
      <point x="593" y="67" type="line"/>
      <point x="552" y="67"/>
      <point x="534" y="81"/>
      <point x="534" y="120" type="curve" smooth="yes"/>
      <point x="534" y="143" type="line" smooth="yes"/>
      <point x="534" y="215"/>
      <point x="461" y="271"/>
      <point x="355" y="271" type="curve" smooth="yes"/>
      <point x="252" y="271" type="line"/>
      <point x="252" y="378"/>
      <point x="307" y="480"/>
      <point x="418" y="480" type="curve" smooth="yes"/>
      <point x="429" y="480" type="line"/>
      <point x="428" y="474"/>
      <point x="427" y="468"/>
      <point x="427" y="454" type="curve" smooth="yes"/>
      <point x="427" y="388"/>
      <point x="469" y="351"/>
      <point x="536" y="351" type="curve" smooth="yes"/>
      <point x="558" y="351"/>
      <point x="576" y="355"/>
      <point x="588" y="360" type="curve"/>
      <point x="569" y="398"/>
      <point x="563" y="429"/>
      <point x="563" y="469" type="curve" smooth="yes"/>
      <point x="563" y="495"/>
      <point x="568" y="522"/>
      <point x="575" y="547" type="curve"/>
      <point x="407" y="547" type="line" smooth="yes"/>
      <point x="163" y="547"/>
      <point x="42" y="413"/>
      <point x="42" y="226" type="curve" smooth="yes"/>
      <point x="42" y="193" type="line"/>
      <point x="261" y="193" type="line" smooth="yes"/>
      <point x="315" y="193"/>
      <point x="335" y="160"/>
      <point x="335" y="115" type="curve" smooth="yes"/>
      <point x="335" y="99" type="line" smooth="yes"/>
      <point x="335" y="51"/>
      <point x="340" y="21"/>
    </contour>
    <contour>
      <point x="268" y="509" type="line"/>
      <point x="437" y="509" type="line"/>
      <point x="437" y="721" type="line"/>
      <point x="268" y="721" type="line"/>
    </contour>
    <component base="bonemiddle" xOffset="22" yOffset="14"/>
    <component base="footmiddle" xOffset="20"/>
  </outline>
</glyph>
<glyph name="aGlottal-ethiopic" format="2">
  <advance width="671"/>
  <unicode hex="12A0"/>
  <note>
uni12A0
</note>
  <anchor x="345" y="721" name="top"/>
  <outline>
    <contour>
      <point x="83" y="-7" type="curve"/>
      <point x="307" y="8" type="line"/>
      <point x="307" y="65" type="line"/>
      <point x="281" y="65"/>
      <point x="265" y="77"/>
      <point x="265" y="106" type="curve" smooth="yes"/>
      <point x="265" y="124"/>
      <point x="273" y="148"/>
      <point x="286" y="184" type="curve" smooth="yes"/>
      <point x="339" y="329" type="line" smooth="yes"/>
      <point x="365" y="400"/>
      <point x="381" y="440"/>
      <point x="381" y="470" type="curve" smooth="yes"/>
      <point x="381" y="516"/>
      <point x="347" y="546"/>
      <point x="300" y="546" type="curve" smooth="yes"/>
      <point x="271" y="546" type="line"/>
      <point x="271" y="638" type="line" smooth="yes"/>
      <point x="271" y="676"/>
      <point x="265" y="701"/>
      <point x="249" y="721" type="curve"/>
      <point x="25" y="706" type="line"/>
      <point x="25" y="649" type="line"/>
      <point x="56" y="649"/>
      <point x="71" y="629"/>
      <point x="71" y="589" type="curve" smooth="yes"/>
      <point x="71" y="475" type="line"/>
      <point x="122" y="475" type="line" smooth="yes"/>
      <point x="161" y="475"/>
      <point x="177" y="462"/>
      <point x="177" y="435" type="curve" smooth="yes"/>
      <point x="177" y="406"/>
      <point x="164" y="380"/>
      <point x="150" y="344" type="curve" smooth="yes"/>
      <point x="94" y="201" type="line" smooth="yes"/>
      <point x="77" y="158"/>
      <point x="64" y="116"/>
      <point x="64" y="74" type="curve" smooth="yes"/>
      <point x="64" y="41"/>
      <point x="72" y="15"/>
    </contour>
    <contour>
      <point x="450" y="-7" type="curve"/>
      <point x="666" y="8" type="line"/>
      <point x="666" y="65" type="line"/>
      <point x="629" y="65"/>
      <point x="614" y="84"/>
      <point x="609" y="129" type="curve" smooth="yes"/>
      <point x="588" y="320"/>
      <point x="530" y="374"/>
      <point x="351" y="392" type="curve"/>
      <point x="322" y="314" type="line"/>
      <point x="382" y="300"/>
      <point x="397" y="263"/>
      <point x="415" y="93" type="curve" smooth="yes"/>
      <point x="420" y="45"/>
      <point x="431" y="16"/>
    </contour>
  </outline>
</glyph>
<glyph name="iGlottal-ethiopic" format="2">
  <advance width="856"/>
  <unicode hex="12A2"/>
  <note>
uni12A2
</note>
  <anchor x="428" y="721" name="top"/>
  <outline>
    <contour>
      <point x="77" y="-7" type="curve"/>
      <point x="292" y="8" type="line"/>
      <point x="292" y="65" type="line"/>
      <point x="266" y="65"/>
      <point x="250" y="77"/>
      <point x="250" y="106" type="curve" smooth="yes"/>
      <point x="250" y="124"/>
      <point x="258" y="148"/>
      <point x="271" y="184" type="curve" smooth="yes"/>
      <point x="324" y="329" type="line" smooth="yes"/>
      <point x="350" y="400"/>
      <point x="366" y="440"/>
      <point x="366" y="470" type="curve" smooth="yes"/>
      <point x="366" y="516"/>
      <point x="332" y="546"/>
      <point x="285" y="546" type="curve" smooth="yes"/>
      <point x="256" y="546" type="line"/>
      <point x="256" y="638" type="line" smooth="yes"/>
      <point x="256" y="676"/>
      <point x="250" y="701"/>
      <point x="234" y="721" type="curve"/>
      <point x="10" y="706" type="line"/>
      <point x="10" y="649" type="line"/>
      <point x="41" y="649"/>
      <point x="56" y="629"/>
      <point x="56" y="589" type="curve" smooth="yes"/>
      <point x="56" y="475" type="line"/>
      <point x="116" y="475" type="line" smooth="yes"/>
      <point x="155" y="475"/>
      <point x="171" y="462"/>
      <point x="171" y="435" type="curve" smooth="yes"/>
      <point x="171" y="406"/>
      <point x="158" y="380"/>
      <point x="144" y="344" type="curve" smooth="yes"/>
      <point x="88" y="201" type="line" smooth="yes"/>
      <point x="71" y="158"/>
      <point x="58" y="116"/>
      <point x="58" y="74" type="curve" smooth="yes"/>
      <point x="58" y="41"/>
      <point x="66" y="15"/>
    </contour>
    <contour>
      <point x="430" y="0" type="curve"/>
      <point x="638" y="0" type="line"/>
      <point x="638" y="67" type="line"/>
      <point x="601" y="67"/>
      <point x="585" y="87"/>
      <point x="581" y="129" type="curve" smooth="yes"/>
      <point x="563" y="320"/>
      <point x="498" y="374"/>
      <point x="336" y="392" type="curve"/>
      <point x="307" y="314" type="line"/>
      <point x="367" y="300"/>
      <point x="382" y="263"/>
      <point x="400" y="93" type="curve" smooth="yes"/>
      <point x="405" y="45"/>
      <point x="416" y="20"/>
    </contour>
    <component base="rightdoubleflag" xOffset="563"/>
  </outline>
</glyph>
<glyph name="aaGlottal-ethiopic" format="2">
  <advance width="671"/>
  <unicode hex="12A3"/>
  <note>
uni12A3
</note>
  <anchor x="345" y="721" name="top"/>
  <outline>
    <contour>
      <point x="103" y="135" type="curve"/>
      <point x="329" y="150" type="line"/>
      <point x="329" y="207" type="line"/>
      <point x="303" y="207"/>
      <point x="293" y="221"/>
      <point x="293" y="242" type="curve" smooth="yes"/>
      <point x="293" y="266"/>
      <point x="312" y="301"/>
      <point x="335" y="343" type="curve" smooth="yes"/>
      <point x="364" y="396"/>
      <point x="381" y="434"/>
      <point x="381" y="470" type="curve" smooth="yes"/>
      <point x="381" y="516"/>
      <point x="347" y="546"/>
      <point x="300" y="546" type="curve" smooth="yes"/>
      <point x="271" y="546" type="line"/>
      <point x="271" y="638" type="line" smooth="yes"/>
      <point x="271" y="676"/>
      <point x="265" y="701"/>
      <point x="249" y="721" type="curve"/>
      <point x="25" y="706" type="line"/>
      <point x="25" y="649" type="line"/>
      <point x="56" y="649"/>
      <point x="71" y="629"/>
      <point x="71" y="589" type="curve" smooth="yes"/>
      <point x="71" y="475" type="line"/>
      <point x="125" y="475" type="line" smooth="yes"/>
      <point x="164" y="475"/>
      <point x="180" y="462"/>
      <point x="180" y="435" type="curve" smooth="yes"/>
      <point x="180" y="406"/>
      <point x="164" y="378"/>
      <point x="142" y="340" type="curve" smooth="yes"/>
      <point x="120" y="302"/>
      <point x="91" y="247"/>
      <point x="91" y="201" type="curve" smooth="yes"/>
      <point x="91" y="174"/>
      <point x="95" y="156"/>
    </contour>
    <contour>
      <point x="450" y="-7" type="curve"/>
      <point x="666" y="8" type="line"/>
      <point x="666" y="65" type="line"/>
      <point x="629" y="65"/>
      <point x="614" y="84"/>
      <point x="609" y="129" type="curve" smooth="yes"/>
      <point x="588" y="320"/>
      <point x="538" y="374"/>
      <point x="339" y="392" type="curve"/>
      <point x="310" y="314" type="line"/>
      <point x="386" y="300"/>
      <point x="397" y="263"/>
      <point x="415" y="93" type="curve" smooth="yes"/>
      <point x="420" y="45"/>
      <point x="431" y="16"/>
    </contour>
  </outline>
</glyph>
<glyph name="eeGlottal-ethiopic" format="2">
  <advance width="877"/>
  <unicode hex="12A4"/>
  <note>
uni12A4
</note>
  <anchor x="433" y="721" name="top"/>
  <outline>
    <contour>
      <point x="77" y="-7" type="curve"/>
      <point x="292" y="8" type="line"/>
      <point x="292" y="65" type="line"/>
      <point x="266" y="65"/>
      <point x="250" y="77"/>
      <point x="250" y="106" type="curve" smooth="yes"/>
      <point x="250" y="124"/>
      <point x="258" y="148"/>
      <point x="271" y="184" type="curve" smooth="yes"/>
      <point x="317" y="311" type="line"/>
      <point x="369" y="295"/>
      <point x="384" y="257"/>
      <point x="400" y="110" type="curve" smooth="yes"/>
      <point x="406" y="51"/>
      <point x="418" y="21"/>
      <point x="441" y="0" type="curve"/>
      <point x="671" y="0" type="line" smooth="yes"/>
      <point x="798" y="0"/>
      <point x="857" y="68"/>
      <point x="857" y="155" type="curve" smooth="yes"/>
      <point x="857" y="241"/>
      <point x="804" y="279"/>
      <point x="690" y="279" type="curve" smooth="yes"/>
      <point x="551" y="279" type="line"/>
      <point x="515" y="350"/>
      <point x="458" y="380"/>
      <point x="347" y="391" type="curve"/>
      <point x="359" y="426"/>
      <point x="366" y="450"/>
      <point x="366" y="470" type="curve" smooth="yes"/>
      <point x="366" y="516"/>
      <point x="332" y="546"/>
      <point x="285" y="546" type="curve" smooth="yes"/>
      <point x="256" y="546" type="line"/>
      <point x="256" y="638" type="line" smooth="yes"/>
      <point x="256" y="676"/>
      <point x="250" y="701"/>
      <point x="234" y="721" type="curve"/>
      <point x="10" y="706" type="line"/>
      <point x="10" y="649" type="line"/>
      <point x="41" y="649"/>
      <point x="56" y="629"/>
      <point x="56" y="589" type="curve" smooth="yes"/>
      <point x="56" y="475" type="line"/>
      <point x="116" y="475" type="line" smooth="yes"/>
      <point x="155" y="475"/>
      <point x="171" y="462"/>
      <point x="171" y="435" type="curve" smooth="yes"/>
      <point x="171" y="406"/>
      <point x="158" y="380"/>
      <point x="144" y="344" type="curve" smooth="yes"/>
      <point x="88" y="201" type="line" smooth="yes"/>
      <point x="71" y="158"/>
      <point x="58" y="116"/>
      <point x="58" y="74" type="curve" smooth="yes"/>
      <point x="58" y="41"/>
      <point x="66" y="15"/>
    </contour>
    <contour>
      <point x="627" y="67" type="curve" smooth="yes"/>
      <point x="601" y="67"/>
      <point x="587" y="83"/>
      <point x="581" y="129" type="curve" smooth="yes"/>
      <point x="577" y="160"/>
      <point x="573" y="188"/>
      <point x="567" y="212" type="curve"/>
      <point x="615" y="212" type="line" smooth="yes"/>
      <point x="667" y="212"/>
      <point x="680" y="185"/>
      <point x="680" y="147" type="curve" smooth="yes"/>
      <point x="680" y="103"/>
      <point x="662" y="67"/>
    </contour>
  </outline>
</glyph>
<glyph name="eGlottal-ethiopic" format="2">
  <advance width="644"/>
  <unicode hex="12A5"/>
  <note>
uni12A5
</note>
  <anchor x="296" y="721" name="top"/>
  <outline>
    <contour>
      <point x="80" y="-7" type="curve"/>
      <point x="296" y="8" type="line"/>
      <point x="296" y="65" type="line"/>
      <point x="270" y="65"/>
      <point x="249" y="79"/>
      <point x="249" y="111" type="curve" smooth="yes"/>
      <point x="249" y="129"/>
      <point x="254" y="148"/>
      <point x="269" y="184" type="curve" smooth="yes"/>
      <point x="322" y="311" type="line"/>
      <point x="370" y="294"/>
      <point x="385" y="249"/>
      <point x="401" y="93" type="curve" smooth="yes"/>
      <point x="406" y="45"/>
      <point x="417" y="16"/>
      <point x="436" y="-7" type="curve"/>
      <point x="639" y="8" type="line"/>
      <point x="639" y="65" type="line"/>
      <point x="602" y="65"/>
      <point x="587" y="84"/>
      <point x="582" y="129" type="curve" smooth="yes"/>
      <point x="561" y="314"/>
      <point x="506" y="370"/>
      <point x="356" y="390" type="curve"/>
      <point x="384" y="454" type="line"/>
      <point x="384" y="504" type="line"/>
      <point x="287" y="504" type="line"/>
      <point x="318" y="570" type="line"/>
      <point x="318" y="621" type="line"/>
      <point x="221" y="621" type="line"/>
      <point x="231" y="648" type="line" smooth="yes"/>
      <point x="241" y="674"/>
      <point x="243" y="700"/>
      <point x="226" y="721" type="curve"/>
      <point x="43" y="706" type="line"/>
      <point x="43" y="649" type="line"/>
      <point x="82" y="649"/>
      <point x="95" y="623"/>
      <point x="81" y="596" type="curve" smooth="yes"/>
      <point x="48" y="534" type="line"/>
      <point x="151" y="534" type="line"/>
      <point x="106" y="447" type="line"/>
      <point x="196" y="447" type="line"/>
      <point x="88" y="202" type="line" smooth="yes"/>
      <point x="69" y="160"/>
      <point x="56" y="119"/>
      <point x="56" y="77" type="curve" smooth="yes"/>
      <point x="56" y="47"/>
      <point x="66" y="15"/>
    </contour>
  </outline>
</glyph>
<glyph name="oGlottal-ethiopic" format="2">
  <advance width="661"/>
  <unicode hex="12A6"/>
  <note>
uni12A6
</note>
  <anchor x="335" y="721" name="top"/>
  <outline>
    <contour>
      <point x="84" y="-7" type="curve"/>
      <point x="302" y="8" type="line"/>
      <point x="302" y="65" type="line"/>
      <point x="276" y="65"/>
      <point x="260" y="77"/>
      <point x="260" y="106" type="curve" smooth="yes"/>
      <point x="260" y="124"/>
      <point x="268" y="148"/>
      <point x="281" y="184" type="curve" smooth="yes"/>
      <point x="334" y="329" type="line" smooth="yes"/>
      <point x="360" y="400"/>
      <point x="376" y="440"/>
      <point x="376" y="470" type="curve" smooth="yes"/>
      <point x="376" y="516"/>
      <point x="342" y="546"/>
      <point x="295" y="546" type="curve" smooth="yes"/>
      <point x="266" y="546" type="line"/>
      <point x="266" y="638" type="line" smooth="yes"/>
      <point x="266" y="676"/>
      <point x="260" y="701"/>
      <point x="244" y="721" type="curve"/>
      <point x="20" y="706" type="line"/>
      <point x="20" y="649" type="line"/>
      <point x="51" y="649"/>
      <point x="66" y="629"/>
      <point x="66" y="589" type="curve" smooth="yes"/>
      <point x="66" y="475" type="line"/>
      <point x="126" y="475" type="line" smooth="yes"/>
      <point x="165" y="475"/>
      <point x="181" y="462"/>
      <point x="181" y="435" type="curve" smooth="yes"/>
      <point x="181" y="406"/>
      <point x="168" y="380"/>
      <point x="154" y="344" type="curve" smooth="yes"/>
      <point x="98" y="201" type="line" smooth="yes"/>
      <point x="81" y="158"/>
      <point x="65" y="114"/>
      <point x="65" y="72" type="curve" smooth="yes"/>
      <point x="65" y="39"/>
      <point x="73" y="15"/>
    </contour>
    <contour>
      <point x="441" y="135" type="curve"/>
      <point x="651" y="150" type="line"/>
      <point x="651" y="207" type="line"/>
      <point x="621" y="207"/>
      <point x="612" y="227"/>
      <point x="608" y="244" type="curve" smooth="yes"/>
      <point x="585" y="341"/>
      <point x="510" y="384"/>
      <point x="346" y="392" type="curve"/>
      <point x="317" y="314" type="line"/>
      <point x="382" y="304"/>
      <point x="405" y="271"/>
      <point x="417" y="201" type="curve" smooth="yes"/>
      <point x="422" y="174"/>
      <point x="426" y="153"/>
    </contour>
  </outline>
</glyph>
<glyph name="waGlottal-ethiopic" format="2">
  <advance width="800"/>
  <unicode hex="12A7"/>
  <note>
uni12A7
</note>
  <anchor x="403" y="803" name="top"/>
  <outline>
    <contour>
      <point x="212" y="-7" type="curve"/>
      <point x="436" y="8" type="line"/>
      <point x="436" y="65" type="line"/>
      <point x="410" y="65"/>
      <point x="394" y="77"/>
      <point x="394" y="106" type="curve" smooth="yes"/>
      <point x="394" y="124"/>
      <point x="402" y="148"/>
      <point x="415" y="184" type="curve" smooth="yes"/>
      <point x="468" y="329" type="line" smooth="yes"/>
      <point x="494" y="400"/>
      <point x="510" y="440"/>
      <point x="510" y="470" type="curve" smooth="yes"/>
      <point x="510" y="516"/>
      <point x="476" y="546"/>
      <point x="429" y="546" type="curve" smooth="yes"/>
      <point x="395" y="546" type="line"/>
      <point x="395" y="678" type="line"/>
      <point x="205" y="678" type="line"/>
      <point x="205" y="475" type="line"/>
      <point x="251" y="475" type="line" smooth="yes"/>
      <point x="290" y="475"/>
      <point x="306" y="462"/>
      <point x="306" y="435" type="curve" smooth="yes"/>
      <point x="306" y="406"/>
      <point x="293" y="380"/>
      <point x="279" y="344" type="curve" smooth="yes"/>
      <point x="223" y="201" type="line" smooth="yes"/>
      <point x="206" y="158"/>
      <point x="193" y="116"/>
      <point x="193" y="74" type="curve" smooth="yes"/>
      <point x="193" y="41"/>
      <point x="201" y="15"/>
    </contour>
    <contour>
      <point x="579" y="-7" type="curve"/>
      <point x="795" y="8" type="line"/>
      <point x="795" y="65" type="line"/>
      <point x="758" y="65"/>
      <point x="743" y="84"/>
      <point x="738" y="129" type="curve" smooth="yes"/>
      <point x="717" y="320"/>
      <point x="659" y="374"/>
      <point x="480" y="392" type="curve"/>
      <point x="451" y="314" type="line"/>
      <point x="511" y="300"/>
      <point x="526" y="263"/>
      <point x="544" y="93" type="curve" smooth="yes"/>
      <point x="549" y="45"/>
      <point x="560" y="16"/>
    </contour>
    <component base="bone" xOffset="1" yOffset="-28"/>
  </outline>
</glyph>
<glyph name="kaa-ethiopic" format="2">
  <advance width="824"/>
  <unicode hex="12AB"/>
  <note>
uni12AB
</note>
  <anchor x="413" y="771" name="top"/>
  <outline>
    <contour>
      <point x="155" y="483" type="curve" smooth="yes"/>
      <point x="212" y="483"/>
      <point x="266" y="493"/>
      <point x="305" y="502" type="curve"/>
      <point x="305" y="555" type="line"/>
      <point x="269" y="555"/>
      <point x="256" y="568"/>
      <point x="256" y="622" type="curve" smooth="yes"/>
      <point x="256" y="700" type="line" smooth="yes"/>
      <point x="256" y="731"/>
      <point x="245" y="760"/>
      <point x="227" y="771" type="curve"/>
      <point x="30" y="756" type="line"/>
      <point x="30" y="699" type="line"/>
      <point x="59" y="699"/>
      <point x="76" y="679"/>
      <point x="76" y="640" type="curve" smooth="yes"/>
      <point x="76" y="563" type="line" smooth="yes"/>
      <point x="76" y="505"/>
      <point x="103" y="483"/>
    </contour>
    <component base="baashort" xOffset="146"/>
  </outline>
</glyph>
<glyph name="kee-ethiopic" format="2">
  <advance width="1015"/>
  <unicode hex="12AC"/>
  <note>
uni12AC
</note>
  <anchor x="512" y="771" name="top"/>
  <outline>
    <contour>
      <point x="187" y="-7" type="curve"/>
      <point x="430" y="8" type="line"/>
      <point x="430" y="69" type="line"/>
      <point x="389" y="69"/>
      <point x="371" y="83"/>
      <point x="371" y="142" type="curve" smooth="yes"/>
      <point x="371" y="298" type="line" smooth="yes"/>
      <point x="371" y="478"/>
      <point x="412" y="542"/>
      <point x="467" y="542" type="curve" smooth="yes"/>
      <point x="502" y="542"/>
      <point x="522" y="509"/>
      <point x="522" y="430" type="curve" smooth="yes"/>
      <point x="522" y="379"/>
      <point x="518" y="216"/>
      <point x="518" y="131" type="curve" smooth="yes"/>
      <point x="518" y="49"/>
      <point x="552" y="18"/>
      <point x="610" y="0" type="curve"/>
      <point x="809" y="0" type="line" smooth="yes"/>
      <point x="936" y="0"/>
      <point x="995" y="68"/>
      <point x="995" y="155" type="curve" smooth="yes"/>
      <point x="995" y="241"/>
      <point x="942" y="279"/>
      <point x="828" y="279" type="curve" smooth="yes"/>
      <point x="720" y="279" type="line"/>
      <point x="720" y="305"/>
      <point x="723" y="346"/>
      <point x="723" y="376" type="curve" smooth="yes"/>
      <point x="723" y="525"/>
      <point x="670" y="613"/>
      <point x="488" y="613" type="curve" smooth="yes"/>
      <point x="278" y="613"/>
      <point x="171" y="475"/>
      <point x="171" y="296" type="curve" smooth="yes"/>
      <point x="171" y="91" type="line" smooth="yes"/>
      <point x="171" y="49"/>
      <point x="175" y="13"/>
    </contour>
    <contour>
      <point x="760" y="67" type="curve" smooth="yes"/>
      <point x="731" y="67"/>
      <point x="720" y="80"/>
      <point x="720" y="112" type="curve" smooth="yes"/>
      <point x="720" y="212" type="line"/>
      <point x="753" y="212" type="line" smooth="yes"/>
      <point x="805" y="212"/>
      <point x="818" y="185"/>
      <point x="818" y="147" type="curve" smooth="yes"/>
      <point x="818" y="103"/>
      <point x="795" y="67"/>
    </contour>
    <contour>
      <point x="155" y="483" type="curve" smooth="yes"/>
      <point x="212" y="483"/>
      <point x="266" y="493"/>
      <point x="305" y="502" type="curve"/>
      <point x="305" y="555" type="line"/>
      <point x="269" y="555"/>
      <point x="256" y="568"/>
      <point x="256" y="622" type="curve" smooth="yes"/>
      <point x="256" y="700" type="line" smooth="yes"/>
      <point x="256" y="731"/>
      <point x="245" y="760"/>
      <point x="227" y="771" type="curve"/>
      <point x="30" y="756" type="line"/>
      <point x="30" y="699" type="line"/>
      <point x="59" y="699"/>
      <point x="76" y="679"/>
      <point x="76" y="640" type="curve" smooth="yes"/>
      <point x="76" y="563" type="line" smooth="yes"/>
      <point x="76" y="505"/>
      <point x="103" y="483"/>
    </contour>
  </outline>
</glyph>
<glyph name="ke-ethiopic" format="2">
  <advance width="806"/>
  <unicode hex="12AD"/>
  <note>
uni12AD
</note>
  <anchor x="404" y="771" name="top"/>
  <outline>
    <contour>
      <point x="189" y="-7" type="curve"/>
      <point x="432" y="8" type="line"/>
      <point x="432" y="69" type="line"/>
      <point x="391" y="69"/>
      <point x="373" y="83"/>
      <point x="373" y="142" type="curve" smooth="yes"/>
      <point x="373" y="179" type="line" smooth="yes"/>
      <point x="373" y="256"/>
      <point x="398" y="298"/>
      <point x="460" y="321" type="curve"/>
      <point x="460" y="369" type="line"/>
      <point x="373" y="369" type="line"/>
      <point x="373" y="481"/>
      <point x="414" y="541"/>
      <point x="469" y="541" type="curve" smooth="yes"/>
      <point x="504" y="541"/>
      <point x="524" y="508"/>
      <point x="524" y="429" type="curve" smooth="yes"/>
      <point x="524" y="325"/>
      <point x="519" y="179"/>
      <point x="519" y="91" type="curve" smooth="yes"/>
      <point x="519" y="43"/>
      <point x="524" y="13"/>
      <point x="536" y="-7" type="curve"/>
      <point x="779" y="8" type="line"/>
      <point x="779" y="69" type="line"/>
      <point x="738" y="69"/>
      <point x="720" y="83"/>
      <point x="720" y="142" type="curve" smooth="yes"/>
      <point x="720" y="214"/>
      <point x="725" y="304"/>
      <point x="725" y="375" type="curve" smooth="yes"/>
      <point x="725" y="525"/>
      <point x="672" y="612"/>
      <point x="490" y="612" type="curve" smooth="yes"/>
      <point x="280" y="612"/>
      <point x="173" y="477"/>
      <point x="173" y="307" type="curve"/>
      <point x="260" y="309" type="line"/>
      <point x="209" y="284"/>
      <point x="173" y="228"/>
      <point x="173" y="142" type="curve" smooth="yes"/>
      <point x="173" y="91" type="line" smooth="yes"/>
      <point x="173" y="49"/>
      <point x="177" y="13"/>
    </contour>
    <contour>
      <point x="155" y="483" type="curve" smooth="yes"/>
      <point x="212" y="483"/>
      <point x="266" y="493"/>
      <point x="305" y="502" type="curve"/>
      <point x="305" y="555" type="line"/>
      <point x="269" y="555"/>
      <point x="256" y="568"/>
      <point x="256" y="622" type="curve" smooth="yes"/>
      <point x="256" y="700" type="line" smooth="yes"/>
      <point x="256" y="731"/>
      <point x="245" y="760"/>
      <point x="227" y="771" type="curve"/>
      <point x="30" y="756" type="line"/>
      <point x="30" y="699" type="line"/>
      <point x="59" y="699"/>
      <point x="76" y="679"/>
      <point x="76" y="640" type="curve" smooth="yes"/>
      <point x="76" y="563" type="line" smooth="yes"/>
      <point x="76" y="505"/>
      <point x="103" y="483"/>
    </contour>
  </outline>
</glyph>
<glyph name="kwaa-ethiopic" format="2">
  <advance width="923"/>
  <unicode hex="12B3"/>
  <note>
uni12B3
</note>
  <anchor x="456" y="771" name="top"/>
  <outline>
    <contour>
      <point x="527" y="173" type="line"/>
      <point x="728" y="173" type="line"/>
      <point x="728" y="375" type="line" smooth="yes"/>
      <point x="728" y="525"/>
      <point x="675" y="612"/>
      <point x="493" y="612" type="curve" smooth="yes"/>
      <point x="287" y="612"/>
      <point x="176" y="490"/>
      <point x="176" y="361" type="curve" smooth="yes"/>
      <point x="176" y="343" type="line" smooth="yes"/>
      <point x="176" y="305"/>
      <point x="180" y="279"/>
      <point x="192" y="259" type="curve"/>
      <point x="435" y="274" type="line"/>
      <point x="435" y="335" type="line"/>
      <point x="394" y="335"/>
      <point x="376" y="349"/>
      <point x="376" y="378" type="curve" smooth="yes"/>
      <point x="376" y="391" type="line" smooth="yes"/>
      <point x="376" y="481"/>
      <point x="407" y="541"/>
      <point x="462" y="541" type="curve" smooth="yes"/>
      <point x="507" y="541"/>
      <point x="527" y="508"/>
      <point x="527" y="429" type="curve" smooth="yes"/>
    </contour>
    <contour>
      <point x="428" y="139" type="line"/>
      <point x="677" y="139" type="line"/>
      <point x="677" y="206" type="line"/>
      <point x="428" y="206" type="line"/>
    </contour>
    <contour>
      <point x="663" y="-7" type="curve"/>
      <point x="896" y="8" type="line"/>
      <point x="896" y="69" type="line"/>
      <point x="855" y="69"/>
      <point x="837" y="83"/>
      <point x="837" y="142" type="curve" smooth="yes"/>
      <point x="837" y="206" type="line"/>
      <point x="647" y="206" type="line"/>
      <point x="647" y="91" type="line" smooth="yes"/>
      <point x="647" y="43"/>
      <point x="651" y="13"/>
    </contour>
    <contour>
      <point x="155" y="483" type="curve" smooth="yes"/>
      <point x="212" y="483"/>
      <point x="266" y="493"/>
      <point x="305" y="502" type="curve"/>
      <point x="305" y="555" type="line"/>
      <point x="269" y="555"/>
      <point x="256" y="568"/>
      <point x="256" y="622" type="curve" smooth="yes"/>
      <point x="256" y="700" type="line" smooth="yes"/>
      <point x="256" y="731"/>
      <point x="245" y="760"/>
      <point x="227" y="771" type="curve"/>
      <point x="30" y="756" type="line"/>
      <point x="30" y="699" type="line"/>
      <point x="59" y="699"/>
      <point x="76" y="679"/>
      <point x="76" y="640" type="curve" smooth="yes"/>
      <point x="76" y="563" type="line" smooth="yes"/>
      <point x="76" y="505"/>
      <point x="103" y="483"/>
    </contour>
    <component base="leftsingleflag" xOffset="190" yOffset="-213"/>
  </outline>
</glyph>
<glyph name="kwee-ethiopic" format="2">
  <advance width="1019"/>
  <unicode hex="12B4"/>
  <note>
uni12B4
</note>
  <anchor x="514" y="771" name="top"/>
  <outline>
    <contour>
      <point x="676" y="0" type="curve"/>
      <point x="813" y="0" type="line" smooth="yes"/>
      <point x="940" y="0"/>
      <point x="999" y="68"/>
      <point x="999" y="155" type="curve" smooth="yes"/>
      <point x="999" y="241"/>
      <point x="946" y="279"/>
      <point x="832" y="279" type="curve" smooth="yes"/>
      <point x="724" y="279" type="line"/>
      <point x="724" y="311"/>
      <point x="724" y="343"/>
      <point x="724" y="375" type="curve" smooth="yes"/>
      <point x="724" y="525"/>
      <point x="675" y="612"/>
      <point x="493" y="612" type="curve" smooth="yes"/>
      <point x="287" y="612"/>
      <point x="176" y="490"/>
      <point x="176" y="341" type="curve" smooth="yes"/>
      <point x="176" y="317" type="line" smooth="yes"/>
      <point x="176" y="279"/>
      <point x="180" y="253"/>
      <point x="192" y="233" type="curve"/>
      <point x="435" y="248" type="line"/>
      <point x="435" y="309" type="line"/>
      <point x="394" y="309"/>
      <point x="376" y="323"/>
      <point x="376" y="352" type="curve" smooth="yes"/>
      <point x="376" y="377" type="line" smooth="yes"/>
      <point x="376" y="487"/>
      <point x="417" y="541"/>
      <point x="472" y="541" type="curve" smooth="yes"/>
      <point x="507" y="541"/>
      <point x="527" y="508"/>
      <point x="527" y="429" type="curve" smooth="yes"/>
      <point x="527" y="269"/>
      <point x="528" y="207"/>
      <point x="528" y="144" type="curve" smooth="yes"/>
      <point x="528" y="19"/>
      <point x="628" y="4"/>
    </contour>
    <contour>
      <point x="394" y="0" type="line"/>
      <point x="697" y="0" type="line"/>
      <point x="697" y="67" type="line"/>
      <point x="394" y="67" type="line"/>
    </contour>
    <contour>
      <point x="155" y="483" type="curve" smooth="yes"/>
      <point x="212" y="483"/>
      <point x="266" y="493"/>
      <point x="305" y="502" type="curve"/>
      <point x="305" y="555" type="line"/>
      <point x="269" y="555"/>
      <point x="256" y="568"/>
      <point x="256" y="622" type="curve" smooth="yes"/>
      <point x="256" y="700" type="line" smooth="yes"/>
      <point x="256" y="731"/>
      <point x="245" y="760"/>
      <point x="227" y="771" type="curve"/>
      <point x="30" y="756" type="line"/>
      <point x="30" y="699" type="line"/>
      <point x="59" y="699"/>
      <point x="76" y="679"/>
      <point x="76" y="640" type="curve" smooth="yes"/>
      <point x="76" y="563" type="line" smooth="yes"/>
      <point x="76" y="505"/>
      <point x="103" y="483"/>
    </contour>
    <contour>
      <point x="764" y="67" type="curve" smooth="yes"/>
      <point x="734" y="67"/>
      <point x="723" y="84"/>
      <point x="723" y="122" type="curve" smooth="yes"/>
      <point x="723" y="212" type="line"/>
      <point x="757" y="212" type="line" smooth="yes"/>
      <point x="809" y="212"/>
      <point x="822" y="185"/>
      <point x="822" y="147" type="curve" smooth="yes"/>
      <point x="822" y="103"/>
      <point x="799" y="67"/>
    </contour>
    <component base="leftsingleflag" xOffset="165" yOffset="-352"/>
  </outline>
</glyph>
